<?xml version="1.0" encoding="UTF-8"?>
<svg width="32px" height="32px" viewBox="0 0 32 32" version="1.1" xmlns="http://www.w3.org/2000/svg" xmlns:xlink="http://www.w3.org/1999/xlink">
    <!-- Generator: Sketch 46.2 (44496) - http://www.bohemiancoding.com/sketch -->
    <title>Social Networks</title>
    <desc>Created with Sketch.</desc>
    <defs>
        <path d="M10.7268184,10.296875 C10.6911166,10.345 10.6623047,10.546875 10.6153287,10.70625 C10.5614628,10.890625 10.3923491,10.87 10.204445,10.833125 C9.93073141,10.78 9.68645609,10.765 9.40209456,10.811875 C8.91041218,10.89375 8.39931304,11.619375 7.54247037,11.619375 C6.62048761,11.619375 6.14070582,10.896875 5.62960668,10.811875 C5.10848599,10.725625 4.80909213,10.864375 4.62933055,10.864375 C4.49090787,10.864375 4.43704203,10.78 4.41637258,10.71 C4.3700229,10.553125 4.34121094,10.346875 4.30488281,10.2975 C3.95099677,10.243125 3.15240436,10.104375 3.13173491,9.74875 C3.12672414,9.65625 3.19186422,9.574375 3.28393723,9.559375 C4.45645878,9.366875 5.20243804,8.0475 5.08092672,7.76125 C4.99449084,7.558125 4.62056169,7.485 4.4633486,7.423125 C4.05747575,7.263125 4.00047818,7.079375 4.02490571,6.953125 C4.0581021,6.778125 4.27231277,6.660625 4.45082166,6.660625 C4.62306708,6.660625 4.92684537,6.89 5.16360453,6.759375 C5.12915544,6.145625 5.04209321,5.2675 5.26131466,4.7775 C5.67908809,3.8425 6.59480738,3.38 7.51115302,3.38 C8.43376212,3.38 9.35637123,3.84875 9.77101293,4.776875 C9.98960803,5.26625 9.90379849,6.14 9.86872306,6.759375 C10.0923289,6.8825 10.3691743,6.655 10.5620892,6.655 C10.751246,6.655 11.0080482,6.7825 11.0124327,6.995625 C11.0155644,7.1625 10.8664938,7.30625 10.568979,7.423125 C10.4092605,7.48625 10.0378367,7.55875 9.95140086,7.76125 C9.82738416,8.05375 10.5965383,9.369375 11.7483904,9.55875 C11.839837,9.57375 11.9056034,9.655 11.9005927,9.748125 C11.8799232,10.10375 11.0775727,10.2425 10.7268184,10.296875 L10.7268184,10.296875 Z" id="path-1"></path>
    </defs>
    <g id="Page-1" stroke="none" stroke-width="1" fill="none" fill-rule="evenodd">
        <g id="Social-Networks">
            <g id="Group-2" transform="translate(1.000000, 1.000000)">
                <g id="Group">
                    <g id="iconmonstr-twitter-4" transform="translate(7.015086, 0.000000)">
                        <ellipse id="Oval" fill="#FFFFFF" cx="7.51616379" cy="7.5" rx="7.51616379" ry="7.5"></ellipse>
                        <path d="M7.51616379,0 C3.36536234,0 0,3.358125 0,7.5 C0,11.641875 3.36536234,15 7.51616379,15 C11.6669652,15 15.0323276,11.641875 15.0323276,7.5 C15.0323276,3.358125 11.6669652,0 7.51616379,0 Z M11.3155846,6.028125 C11.4302061,8.553125 9.54302263,11.368125 6.20208782,11.368125 C5.18615302,11.368125 4.24099542,11.070625 3.44490841,10.56125 C4.39946121,10.67375 5.35213497,10.40875 6.10813578,9.818125 C5.32144397,9.80375 4.65688982,9.284375 4.42702047,8.57125 C4.70950296,8.625 4.98760102,8.609375 5.24001886,8.540625 C4.37503367,8.366875 3.77749865,7.589375 3.79691541,6.7575 C4.03993804,6.891875 4.31678341,6.9725 4.61179283,6.981875 C3.81069504,6.4475 3.58395744,5.391875 4.05497037,4.585 C4.94187769,5.67125 6.26785426,6.385625 7.7629445,6.460625 C7.50050512,5.338125 8.35421606,4.25625 9.51608971,4.25625 C10.032826,4.25625 10.5007072,4.474375 10.828913,4.823125 C11.2385439,4.743125 11.6243737,4.593125 11.9713699,4.3875 C11.8367053,4.806875 11.5517174,5.158125 11.1802936,5.380625 C11.5442012,5.336875 11.8911975,5.240625 12.2131398,5.0975 C11.9726226,5.45875 11.6682179,5.775 11.3155846,6.028125 L11.3155846,6.028125 Z" id="Shape" fill="#55ACEE" fill-rule="nonzero"></path>
                    </g>
                    <g id="iconmonstr-youtube-9" transform="translate(0.000000, 7.000000)">
                        <ellipse id="Oval" fill="#FFFFFF" cx="7.51616379" cy="7.5" rx="7.51616379" ry="7.5"></ellipse>
                        <path d="M7.51616379,0 C3.36536234,0 0,3.358125 0,7.5 C0,11.641875 3.36536234,15 7.51616379,15 C11.6669652,15 15.0323276,11.641875 15.0323276,7.5 C15.0323276,3.358125 11.6669652,0 7.51616379,0 Z M10.2977707,10.5575 C8.98118939,10.6475 6.04863281,10.6475 4.7339305,10.5575 C3.30836476,10.46 3.14238281,9.76375 3.13173491,7.5 C3.14238281,5.231875 3.3102438,4.54 4.7339305,4.4425 C6.04863281,4.3525 8.98181573,4.3525 10.2977707,4.4425 C11.7239628,4.54 11.8893184,5.23625 11.9005927,7.5 C11.8893184,9.768125 11.7220838,10.46 10.2977707,10.5575 Z M6.26346983,6.03625 L9.34321794,7.4975 L6.26346983,8.96375 L6.26346983,6.03625 L6.26346983,6.03625 Z" id="Shape" fill="#FF0000" fill-rule="nonzero"></path>
                    </g>
                    <g id="iconmonstr-snapchat-4" transform="translate(6.012931, 15.000000)">
                        <ellipse id="Oval" fill="#FFFFFF" cx="7.51616379" cy="7.5" rx="7.51616379" ry="7.5"></ellipse>
                        <path d="M7.51616379,0 C3.36536234,0 0,3.358125 0,7.5 C0,11.641875 3.36536234,15 7.51616379,15 C11.6669652,15 15.0323276,11.641875 15.0323276,7.5 C15.0323276,3.358125 11.6669652,0 7.51616379,0 Z" id="Shape" fill="#FFFC00" fill-rule="nonzero"></path>
                        <g id="Path">
                            <use fill="#FFFFFF" fill-rule="evenodd" xlink:href="#path-1"></use>
                            <path stroke="#000000" stroke-width="0.2" d="M10.7968525,10.3870638 C10.7960962,10.3895675 10.7953193,10.3922007 10.7945294,10.394954 C10.7837506,10.4325273 10.7386495,10.6309978 10.7408086,10.6219624 C10.7269889,10.6785229 10.7211398,10.7009653 10.7113161,10.7342931 C10.6448714,10.9617237 10.4874274,10.9905659 10.1853916,10.9312931 C9.90222943,10.8763342 9.67386673,10.8684248 9.41852039,10.9105167 C9.25644057,10.9375063 9.27887201,10.9241536 8.71701037,11.2953183 C8.28020495,11.5838712 7.95291276,11.719375 7.54247037,11.719375 C7.10199381,11.719375 6.76121374,11.5832135 6.32166046,11.2952012 C5.69497459,10.8845724 5.84657329,10.9789139 5.70018097,10.9319282 C5.67030158,10.9223381 5.64140046,10.9152099 5.61327795,10.9105329 C5.35532977,10.8678402 5.15582382,10.8770274 4.91112609,10.9223282 C4.55768131,10.9877613 4.69266406,10.964375 4.62933055,10.964375 C4.46281192,10.964375 4.36007008,10.8724431 4.32047085,10.7383348 C4.30975938,10.7020808 4.29956484,10.662334 4.28837585,10.6144134 C4.29207447,10.630254 4.24982192,10.441972 4.23974872,10.4050363 C4.23180039,10.375892 4.22484293,10.3574529 4.28969592,10.3963401 C3.51126855,10.2767338 3.05296556,10.1169342 3.03188131,9.75415912 C3.02409772,9.61047228 3.12554682,9.48386069 3.26773651,9.46069604 C4.19276407,9.30882864 5.1375575,8.15057865 4.98891121,7.80040541 C4.95986694,7.73215113 4.86628206,7.67017855 4.71115719,7.61225554 C4.65690783,7.59199905 4.46160798,7.52990624 4.42667418,7.51615718 C4.03910728,7.36337361 3.88342202,7.15794179 3.92665775,6.93448799 C3.96777045,6.7177559 4.21309648,6.560625 4.45082166,6.560625 C4.52305586,6.560625 4.55137765,6.56940702 4.73428002,6.63617176 C4.81881367,6.66702902 4.87247355,6.68345505 4.92577389,6.69275437 C4.97693556,6.70168055 5.02088695,6.70199512 5.05957922,6.6930397 C5.05649726,6.64161729 5.05254523,6.57841202 5.04638599,6.48067798 C5.03154188,6.24223986 5.02377008,6.08966164 5.01972317,5.92906839 C5.00637143,5.39923261 5.04644002,5.01291593 5.17001406,4.73670538 C5.58174224,3.815235 6.49266549,3.28 7.51115302,3.28 C8.53307627,3.28 9.45263397,3.81906254 9.8623181,4.73609061 C9.98684904,5.01488153 10.0265731,5.40458841 10.0123013,5.9413707 C10.0080864,6.09990056 10.0003487,6.25033558 9.98563248,6.48643776 C9.97970647,6.5804282 9.97586095,6.64185897 9.97284731,6.69186509 C10.0140459,6.69981743 10.0619741,6.69600899 10.12054,6.68115374 C10.1613017,6.67081452 10.2006576,6.65741125 10.2684714,6.63187388 C10.4325423,6.57008789 10.482121,6.555 10.5620892,6.555 C10.8314766,6.555 11.1071434,6.73748929 11.112415,6.99374864 C11.1165342,7.21323847 10.937586,7.38576168 10.605735,7.51612496 C10.5693232,7.53051588 10.3748519,7.59260398 10.3227087,7.6120113 C10.1664226,7.6701799 10.0725999,7.73203497 10.0434674,7.80028519 C9.89533647,8.14965997 10.8518031,9.31000036 11.764577,9.46006874 C11.9065287,9.48335307 12.0081922,9.6095762 12.0004242,9.75392736 C11.9798753,10.1074789 11.5449841,10.2669424 10.7968525,10.3870638 Z"></path>
                        </g>
                    </g>
                    <g id="iconmonstr-facebook-4" transform="translate(14.030172, 7.000000)">
                        <ellipse id="Oval" fill="#FFFFFF" cx="7.51616379" cy="7.5" rx="7.51616379" ry="7.5"></ellipse>
                        <path d="M7.51616379,0 C3.36536234,0 0,3.358125 0,7.5 C0,11.641875 3.36536234,15 7.51616379,15 C11.6669652,15 15.0323276,11.641875 15.0323276,7.5 C15.0323276,3.358125 11.6669652,0 7.51616379,0 Z M9.39520474,5 L8.54963631,5 C8.21266164,5 8.14251078,5.138125 8.14251078,5.48625 L8.14251078,6.25 L9.39520474,6.25 L9.26429822,7.5 L8.14251078,7.5 L8.14251078,11.875 L6.26346983,11.875 L6.26346983,7.5 L5.01077586,7.5 L5.01077586,6.25 L6.26346983,6.25 L6.26346983,4.8075 C6.26346983,3.701875 6.84659887,3.125 8.16067484,3.125 L9.39520474,3.125 L9.39520474,5 Z" id="Shape" fill="#3B5998" fill-rule="nonzero"></path>
                    </g>
                </g>
            </g>
        </g>
    </g>
</svg>