<?xml version="1.0" encoding="UTF-8"?>
<svg width="32px" height="32px" viewBox="0 0 32 32" version="1.1" xmlns="http://www.w3.org/2000/svg" xmlns:xlink="http://www.w3.org/1999/xlink">
    <!-- Generator: Sketch 46.2 (44496) - http://www.bohemiancoding.com/sketch -->
    <title>Pricing Table</title>
    <desc>Created with Sketch.</desc>
    <defs></defs>
    <g id="Page-1" stroke="none" stroke-width="1" fill="none" fill-rule="evenodd">
        <g id="Pricing-Table">
            <g id="Group-3" transform="translate(0.000000, 6.000000)">
                <g id="Group-2">
                    <rect id="Rectangle-2" fill="#D8D8D8" x="0" y="0" width="14" height="21" rx="2"></rect>
                    <g id="Group-4" opacity="0.299999982" transform="translate(4.000000, 3.000000)" stroke="#4A4A4A" stroke-linecap="square">
                        <path d="M0.35,10.5 L6.65,10.5" id="Line-Copy-3"></path>
                        <path d="M0.35,4.5 L6.65,4.5" id="Line-Copy"></path>
                        <path d="M0.35,13.5 L6.65,13.5" id="Line-Copy-4"></path>
                        <path d="M0.35,7.5 L6.65,7.5" id="Line-Copy-2"></path>
                        <path d="M0.35,1.5 L6.65,1.5" id="Line"></path>
                    </g>
                </g>
            </g>
            <g id="Group-3" transform="translate(18.000000, 6.000000)">
                <g id="Group-2">
                    <rect id="Rectangle-2" fill="#D8D8D8" x="0" y="0" width="14" height="21" rx="2"></rect>
                    <g id="Group-5" opacity="0.299999982" transform="translate(4.000000, 3.000000)" stroke="#4A4A4A" stroke-linecap="square">
                        <path d="M0.35,10.5 L6.65,10.5" id="Line-Copy-3"></path>
                        <path d="M0.35,4.5 L6.65,4.5" id="Line-Copy"></path>
                        <path d="M0.35,13.5 L6.65,13.5" id="Line-Copy-4"></path>
                        <path d="M0.35,7.5 L6.65,7.5" id="Line-Copy-2"></path>
                        <path d="M0.35,1.5 L6.65,1.5" id="Line"></path>
                    </g>
                </g>
            </g>
            <g id="Group" transform="translate(7.000000, 3.000000)">
                <rect id="Rectangle-2" fill="#ECECEC" x="0" y="0" width="18" height="26" rx="2"></rect>
                <rect id="Rectangle-3" fill="#4CAF50" x="3" y="20" width="12" height="3" rx="1"></rect>
                <path d="M5.5,21.5 L12.5,21.5" id="Line-2" stroke="#FFFFFF" opacity="0.3" stroke-linecap="square"></path>
                <g id="Group-2" transform="translate(3.000000, 3.000000)" stroke="#4A4A4A" stroke-linecap="square">
                    <path d="M0.6,10.5 L11.4,10.5" id="Line-Copy-3"></path>
                    <path d="M0.6,4.5 L11.4,4.5" id="Line-Copy"></path>
                    <path d="M0.6,13.5 L11.4,13.5" id="Line-Copy-4"></path>
                    <path d="M0.6,7.5 L11.4,7.5" id="Line-Copy-2"></path>
                    <path d="M0.6,1.5 L11.4,1.5" id="Line"></path>
                </g>
            </g>
        </g>
    </g>
</svg>