<?xml version="1.0" encoding="UTF-8"?>
<svg width="32px" height="32px" viewBox="0 0 32 32" version="1.1" xmlns="http://www.w3.org/2000/svg" xmlns:xlink="http://www.w3.org/1999/xlink">
    <!-- Generator: Sketch 46.2 (44496) - http://www.bohemiancoding.com/sketch -->
    <title>Services</title>
    <desc>Created with Sketch.</desc>
    <defs>
        <path d="M0,0 L15,0 L15,0 C15.5522847,-1.01453063e-16 16,0.44771525 16,1 L16,10 L16,10 C16,10.5522847 15.5522847,11 15,11 L0,11 L0,0 Z" id="path-1"></path>
        <path d="M1,0 L15,0 L15,0 C15.5522847,-1.01453063e-16 16,0.44771525 16,1 L16,11 L1,11 L1,11 C0.44771525,11 6.76353751e-17,10.5522847 0,10 L0,1 L0,1 C-6.76353751e-17,0.44771525 0.44771525,1.01453063e-16 1,0 Z" id="path-3"></path>
        <path d="M1,4.44102762e-16 L16,4.44102762e-16 L16,9 L16,9 C16,9.55228475 15.5522847,10 15,10 L1,10 L1,10 C0.44771525,10 6.76353751e-17,9.55228475 0,9 L0,1 L0,1 C-6.76353751e-17,0.44771525 0.44771525,9.89632638e-16 1,8.8817842e-16 Z" id="path-5"></path>
        <path d="M1,0 L15,0 L15,0 C15.5522847,-1.01453063e-16 16,0.44771525 16,1 L16,11 L1,11 L1,11 C0.44771525,11 6.76353751e-17,10.5522847 0,10 L0,1 L0,1 C-6.76353751e-17,0.44771525 0.44771525,1.01453063e-16 1,0 Z" id="path-7"></path>
    </defs>
    <g id="Page-1" stroke="none" stroke-width="1" fill="none" fill-rule="evenodd">
        <g id="Services">
            <g id="element-icon-single-image" transform="translate(16.000000, 11.000000)">
                <mask id="mask-2" fill="white">
                    <use xlink:href="#path-1"></use>
                </mask>
                <use id="Mask" fill="#D8D8D8" xlink:href="#path-1"></use>
                <g mask="url(#mask-2)" fill-rule="nonzero">
                    <g transform="translate(-1.000000, -2.000000)">
                        <rect id="Rectangle" stroke="#979797" stroke-width="1" fill="#ACB3BB" x="0" y="0" width="18" height="18"></rect>
                        <path d="M14.5445414,18 L1.7025251,18 C0.762246451,18 0,17.2936273 0,16.4138293 L0,14.3991978 L5.79525886,9 L15,17.5756684 L14.5445414,18 Z" id="Combined-Shape" stroke="none" fill="#40915A"></path>
                        <path d="M18,12.1911977 L18,16.5732856 C18,17.3612382 17.2367097,18 16.28602,18 L1.40772969,18 C1.26723036,18 1.13067943,17.9860031 1,17.9595767 L12.9649144,8 L18,12.1911977 Z" id="Combined-Shape" stroke="none" fill="#4CAD6B"></path>
                    </g>
                </g>
            </g>
            <g id="element-icon-single-image">
                <mask id="mask-4" fill="white">
                    <use xlink:href="#path-3"></use>
                </mask>
                <use id="Mask" fill="#D8D8D8" xlink:href="#path-3"></use>
                <g mask="url(#mask-4)" fill-rule="nonzero">
                    <g transform="translate(-1.000000, -2.000000)">
                        <rect id="Rectangle" stroke="#979797" stroke-width="1" fill="#91BFF4" x="0" y="0" width="18" height="18"></rect>
                        <path d="M14.5445414,18 L1.7025251,18 C0.762246451,18 0,17.1366556 0,16.0613469 L0,13.5990196 L5.79525886,7 L15,17.4813725 L14.5445414,18 Z" id="Combined-Shape" stroke="none" fill="#40915A"></path>
                        <path d="M18,11.0294373 L18,16.2879427 C18,17.2334858 17.2367097,18 16.28602,18 L1.40772969,18 C1.26723036,18 1.13067943,17.9832037 1,17.9514921 L12.9649144,6 L18,11.0294373 Z" id="Combined-Shape" stroke="none" fill="#4CAD6B"></path>
                        <rect id="Rectangle-10" stroke="none" fill="#FFC90F" x="3" y="3" width="3" height="3" rx="1.5"></rect>
                    </g>
                </g>
            </g>
            <g id="element-icon-single-image" transform="translate(0.000000, 22.000000)">
                <mask id="mask-6" fill="white">
                    <use xlink:href="#path-5"></use>
                </mask>
                <use id="Mask" fill="#D8D8D8" xlink:href="#path-5"></use>
                <g mask="url(#mask-6)" fill-rule="nonzero">
                    <g transform="translate(-1.000000, -3.000000)">
                        <rect id="Rectangle" stroke="#979797" stroke-width="1" fill="#384C63" x="0" y="0" width="18" height="18"></rect>
                        <path d="M15.5445414,19 L2.7025251,19 C1.76224645,19 1,18.1366556 1,17.0613469 L1,14.5990196 L6.79525886,8 L16,18.4813725 L15.5445414,19 Z" id="Combined-Shape" stroke="none" fill="#40915A"></path>
                        <path d="M19,12.0294373 L19,17.2879427 C19,18.2334858 18.2367097,19 17.28602,19 L2.40772969,19 C2.26723036,19 2.13067943,18.9832037 2,18.9514921 L13.9649144,7 L19,12.0294373 Z" id="Combined-Shape" stroke="none" fill="#4CAD6B"></path>
                        <path d="M5.44154847,7.04318188 C5.21329726,7.42937451 4.7926998,7.68839518 4.31160482,7.68839518 L4.31160482,7.68839518 C3.58722548,7.68839518 3,7.1011697 3,6.37679036 L3,6.37679036 C3,6.04134245 3.1259282,5.73530663 3.33308961,5.50337791 C3.46899908,6.38785212 4.23330089,7.06518555 5.15580241,7.06518555 C5.25299025,7.06518555 5.3484222,7.05766772 5.44154847,7.04318188 Z" id="Combined-Shape" stroke="none" fill="#E4EFFD"></path>
                    </g>
                </g>
            </g>
            <path d="M8.5,25.5 L8.5,25.5" id="Yll" stroke="#E4EFFD" opacity="0.510133605" stroke-linecap="square"></path>
            <path d="M6.5,23.5 L6.5,23.5" id="Yll" stroke="#E4EFFD" opacity="0.510133605" stroke-linecap="square"></path>
            <rect id="Rectangle-11" fill="#4A4A4A" x="3" y="14" width="4" height="1" rx="0.5"></rect>
            <rect id="Rectangle-11-Copy" fill="#4A4A4A" x="3" y="16" width="10" height="1" rx="0.5"></rect>
            <rect id="Rectangle-11-Copy-2" fill="#4A4A4A" x="3" y="18" width="10" height="1" rx="0.5"></rect>
            <rect id="Rectangle-11" fill="#4A4A4A" x="19" y="3" width="4" height="1" rx="0.5"></rect>
            <rect id="Rectangle-11-Copy-3" fill="#4A4A4A" x="19" y="25" width="4" height="1" rx="0.5"></rect>
            <rect id="Rectangle-11-Copy" fill="#4A4A4A" x="19" y="5" width="10" height="1" rx="0.5"></rect>
            <g id="Group" transform="translate(18.000000, 12.000000)" fill="#FFFFFF">
                <path d="M2.4380406,0.790091506 C2.7252363,0.930030502 2.9125561,1 3,1 C3.14100971,1 3.54173598,0.818051819 4.20217882,0.454155457 L4.20215559,0.454113296 C4.65727354,0.203348575 5.2286136,0.342920398 5.51685244,0.775278655 L6,1.5 L6,1.5 C6.29557383,1.94336074 6.17576886,2.54238557 5.73240812,2.8379594 C5.57392015,2.94361804 5.38770319,3 5.19722436,3 L1,3 L1,1.68907877 L0.999971163,1.68907877 C0.999971163,1.1367781 1.44769932,0.689049936 2,0.689049936 C2.15178961,0.689049936 2.30158761,0.723603411 2.4380406,0.790091506 Z" id="Rectangle-2"></path>
                <path d="M6,3 C6.55228475,3 7,2.55228475 7,2 C7,1.44771525 6.55228475,1 6,1 C5.44771525,1 5,1.44771525 5,2 C5,2.16268932 5,2.49602265 5,3 C5.46116615,3 5.79449948,3 6,3 Z" id="Oval" opacity="0.831918025"></path>
                <circle id="Oval-4" opacity="0.821671196" cx="3.5" cy="1.5" r="1.5"></circle>
                <rect id="Rectangle-10" fill-rule="nonzero" x="0" y="1" width="2" height="2" rx="1"></rect>
            </g>
            <rect id="Rectangle-11-Copy-4" fill="#4A4A4A" x="19" y="27" width="10" height="1" rx="0.5"></rect>
            <rect id="Rectangle-11-Copy-2" fill="#4A4A4A" x="19" y="7" width="10" height="1" rx="0.5"></rect>
            <rect id="Rectangle-11-Copy-5" fill="#4A4A4A" x="19" y="29" width="10" height="1" rx="0.5"></rect>
            <path d="M19.5,15.5 L18.9188612,16.0811388" id="Line" stroke="#FFFFFF" stroke-width="0.5" opacity="0.276947464" stroke-linecap="square"></path>
            <path d="M21.5,15.5 L20.9188612,16.0811388" id="Line" stroke="#FFFFFF" stroke-width="0.5" opacity="0.276947464" stroke-linecap="square"></path>
            <path d="M23.5,15.5 L22.9188612,16.0811388" id="Line-Copy" stroke="#FFFFFF" stroke-width="0.5" opacity="0.276947464" stroke-linecap="square"></path>
            <g id="element-icon-single-image">
                <mask id="mask-8" fill="white">
                    <use xlink:href="#path-7"></use>
                </mask>
                <use id="Mask" fill="#D8D8D8" xlink:href="#path-7"></use>
                <g mask="url(#mask-8)" fill-rule="nonzero">
                    <g transform="translate(-1.000000, -2.000000)">
                        <rect id="Rectangle" stroke="#979797" stroke-width="1" fill="#91BFF4" x="0" y="0" width="18" height="18"></rect>
                        <path d="M14.5445414,18 L1.7025251,18 C0.762246451,18 0,17.1366556 0,16.0613469 L0,13.5990196 L5.79525886,7 L15,17.4813725 L14.5445414,18 Z" id="Combined-Shape" stroke="none" fill="#40915A"></path>
                        <path d="M18,11.0294373 L18,16.2879427 C18,17.2334858 17.2367097,18 16.28602,18 L1.40772969,18 C1.26723036,18 1.13067943,17.9832037 1,17.9514921 L12.9649144,6 L18,11.0294373 Z" id="Combined-Shape" stroke="none" fill="#4CAD6B"></path>
                        <rect id="Rectangle-10" stroke="none" fill="#FFC90F" x="3" y="3" width="3" height="3" rx="1.5"></rect>
                    </g>
                </g>
            </g>
            <rect id="Rectangle-11" fill="#4A4A4A" x="3" y="14" width="4" height="1" rx="0.5"></rect>
            <rect id="Rectangle-11-Copy" fill="#4A4A4A" x="3" y="16" width="10" height="1" rx="0.5"></rect>
            <rect id="Rectangle-11-Copy-2" fill="#4A4A4A" x="3" y="18" width="10" height="1" rx="0.5"></rect>
        </g>
    </g>
</svg>