<?xml version="1.0" encoding="UTF-8"?>
<svg width="32px" height="32px" viewBox="0 0 32 32" version="1.1" xmlns="http://www.w3.org/2000/svg" xmlns:xlink="http://www.w3.org/1999/xlink">
    <!-- Generator: Sketch 46.2 (44496) - http://www.bohemiancoding.com/sketch -->
    <title>Scrollbox</title>
    <desc>Created with Sketch.</desc>
    <defs></defs>
    <g id="Page-1" stroke="none" stroke-width="1" fill="none" fill-rule="evenodd">
        <g id="Scrollbox">
            <g id="Group" fill="#ECECEC">
                <rect id="Rectangle-2" x="0" y="0" width="32" height="32" rx="2"></rect>
            </g>
            <g id="Group-2" transform="translate(4.000000, 5.000000)">
                <g id="Group-3" transform="translate(24.000000, 0.000000)">
                    <rect id="Rectangle-4" fill="#CCCCCC" x="0" y="0" width="1" height="22" rx="0.5"></rect>
                    <rect id="Rectangle-4" fill="#4A4A4A" x="0" y="4" width="1" height="10" rx="0.5"></rect>
                </g>
                <g id="Group-4" fill="#4A4A4A">
                    <rect id="Rectangle-7" x="8" y="0" width="13" height="1" rx="0.5"></rect>
                    <rect id="Rectangle-7-Copy-4" x="0" y="12" width="21" height="1" rx="0.5"></rect>
                    <rect id="Rectangle-7-Copy-2" x="8" y="6" width="13" height="1" rx="0.5"></rect>
                    <rect id="Rectangle-7-Copy-5" x="0" y="18" width="21" height="1" rx="0.5"></rect>
                    <rect id="Rectangle-7-Copy" x="8" y="3" width="13" height="1" rx="0.5"></rect>
                    <rect id="Rectangle-7-Copy-6" x="0" y="15" width="21" height="1" rx="0.5"></rect>
                    <rect id="Rectangle-7-Copy-4" x="0" y="21" width="21" height="1" rx="0.5"></rect>
                    <rect id="Rectangle-7-Copy-3" x="0" y="9" width="21" height="1" rx="0.5"></rect>
                </g>
            </g>
            <path d="M8.47914845,11.8204746 L7.78939296,9.77955426 L5.91854932,9.77955426 L5.19099901,11.8204746 L5.89965191,11.8204746 L5.89965191,12 L4.454,12 L4.454,11.8204746 L4.89808915,11.8204746 L7.30750899,5.32921408 L8.08230283,5.32921408 L10.4633766,11.8204746 L10.898017,11.8204746 L10.898017,12 L7.80829037,12 L7.80829037,11.8204746 L8.47914845,11.8204746 Z M6.89176596,7.09612196 L6.00358767,9.57168274 L7.71380332,9.57168274 L6.89176596,7.09612196 Z" id="A" fill="#4A4A4A"></path>
        </g>
    </g>
</svg>