<?xml version="1.0" encoding="UTF-8"?>
<svg width="32px" height="32px" viewBox="0 0 32 32" version="1.1" xmlns="http://www.w3.org/2000/svg" xmlns:xlink="http://www.w3.org/1999/xlink">
    <!-- Generator: Sketch 46.2 (44496) - http://www.bohemiancoding.com/sketch -->
    <title>Info</title>
    <desc>Created with Sketch.</desc>
    <defs></defs>
    <g id="Page-1" stroke="none" stroke-width="1" fill="none" fill-rule="evenodd">
        <g id="Info">
            <circle id="Oval-5" fill="#80B5F4" cx="16" cy="16" r="16"></circle>
            <g id="Group" transform="translate(12.000000, 8.000000)" fill="#FFFFFF">
                <path d="M6.515216,3.09567463 C5.86296536,3.65106851 4.89684975,3.63880816 4.3561683,3.06870186 C3.81548684,2.49859557 3.90621344,1.58765154 4.55723804,1.03225766 C5.20948868,0.476863791 6.17560429,0.490350177 6.71628575,1.05923043 C7.25451513,1.63056276 7.1662406,2.5415068 6.515216,3.09567463 Z" id="Path"></path>
                <path d="M0.701357845,13.1111549 C1.39284161,10.9177782 2.70224703,8.29038509 2.93396765,7.6258741 C3.26867522,6.66098453 2.67527426,6.2330983 0.800666683,7.88211543 L0.38381477,7.097453 C2.52201988,4.77166453 6.9247117,4.2456955 5.42649688,7.84901248 C4.49103215,10.0987868 3.82161702,11.6178442 3.43909409,12.7899337 C2.88124814,14.4978005 4.2899624,13.8050907 5.66925182,12.5312403 C5.85683518,12.8377491 5.91813694,12.9370579 6.1057203,13.290156 C3.04308477,16.2056673 -0.356710393,16.4631347 0.701357845,13.1111549 L0.701357845,13.1111549 Z" id="Path"></path>
            </g>
        </g>
    </g>
</svg>