<?xml version="1.0" encoding="UTF-8"?>
<svg width="32px" height="32px" viewBox="0 0 32 32" version="1.1" xmlns="http://www.w3.org/2000/svg" xmlns:xlink="http://www.w3.org/1999/xlink">
    <!-- Generator: Sketch 46.2 (44496) - http://www.bohemiancoding.com/sketch -->
    <title>Clients</title>
    <desc>Created with Sketch.</desc>
    <defs></defs>
    <g id="Page-1" stroke="none" stroke-width="1" fill="none" fill-rule="evenodd">
        <g id="Clients">
            <rect id="Rectangle-9" fill="#8870FF" x="0" y="0" width="9" height="9" rx="1"></rect>
            <rect id="Rectangle-9-Copy" fill="#403481" x="0" y="11" width="9" height="9" rx="1"></rect>
            <rect id="Rectangle-9-Copy-3" fill="#C6AED8" x="0" y="22" width="9" height="9" rx="1"></rect>
            <rect id="Rectangle-9" fill="#6E51FF" x="22" y="0" width="9" height="9" rx="1"></rect>
            <rect id="Rectangle-9-Copy-2" fill="#A492FF" x="22" y="11" width="9" height="9" rx="1"></rect>
            <rect id="Rectangle-9-Copy-6" fill="#E74C3C" x="22" y="22" width="9" height="9" rx="1"></rect>
            <rect id="Rectangle-9-Copy-4" fill="#695BB0" x="11" y="0" width="9" height="9" rx="1"></rect>
            <rect id="Rectangle-9-Copy-5" fill="#4B54FF" x="11" y="11" width="9" height="9" rx="1"></rect>
            <rect id="Rectangle-9-Copy-7" fill="#802EDF" x="11" y="22" width="9" height="9" rx="1"></rect>
            <circle id="Oval" fill="#FFFFFF" cx="26.5" cy="4.5" r="3.5"></circle>
            <polygon id="Star" fill="#FFFFFF" points="15.3531695 6.7199457 12.3192981 7.60854608 13.2078984 4.5746746 12.3192981 1.54080311 15.3531695 2.42940349 18.387041 1.54080311 17.4984407 4.5746746 18.387041 7.60854608"></polygon>
            <polygon id="Star-Copy" fill="#FFFFFF" points="4.35316955 6.19711714 2.41940259 7.2137586 2.78871922 5.06047745 1.22426889 3.53551527 3.38628607 3.22135578 4.35316955 1.26223587 5.32005303 3.22135578 7.48207021 3.53551527 5.91761988 5.06047745 6.2869365 7.2137586"></polygon>
            <polygon id="Star-Copy-2" fill="#FFFFFF" points="15.4285611 28.0134869 14.2155114 29.3571221 14.3078493 27.5492729 12.5 27.6416108 13.8436352 26.4285611 12.5 25.2155114 14.3078493 25.3078493 14.2155114 23.5 15.4285611 24.8436352 16.6416108 23.5 16.5492729 25.3078493 18.3571221 25.2155114 17.0134869 26.4285611 18.3571221 27.6416108 16.5492729 27.5492729 16.6416108 29.3571221"></polygon>
            <rect id="Rectangle-15" fill="#FFFFFF" x="13" y="13" width="5" height="5" rx="1"></rect>
            <polygon id="Polygon" fill="#FFFFFF" points="26.5 23.5244717 29.5 25.7040993 28.354102 29.2308108 24.645898 29.2308108 23.5 25.7040993"></polygon>
            <polygon id="Triangle" fill="#FFFFFF" points="4.5 12 8 19 1 19"></polygon>
            <polygon id="Triangle-Copy" fill="#FFFFFF" transform="translate(5.000000, 26.500000) rotate(90.000000) translate(-5.000000, -26.500000) " points="5 24.1 8 28.9 2 28.9"></polygon>
            <rect id="Rectangle-16" fill="#FFFFFF" transform="translate(26.681981, 15.681981) rotate(45.000000) translate(-26.681981, -15.681981) " x="24.298097" y="13.298097" width="4.76776695" height="4.76776695"></rect>
        </g>
    </g>
</svg>