<?xml version="1.0" encoding="UTF-8"?>
<svg width="32px" height="32px" viewBox="0 0 32 32" version="1.1" xmlns="http://www.w3.org/2000/svg" xmlns:xlink="http://www.w3.org/1999/xlink">
    <!-- Generator: Sketch 46.2 (44496) - http://www.bohemiancoding.com/sketch -->
    <title>Carousel</title>
    <desc>Created with Sketch.</desc>
    <defs>
        <path d="M6.6460625,0 C6.6460625,0.620432174 6.13176953,1.12502109 5.5,1.12502109 C4.86823047,1.12502109 4.35428125,0.620432174 4.35428125,0 L3.20839062,0 L0,1.8 L0.91678125,4.27497891 L2.29178125,3.82493672 L2.29178125,9 L8.7085625,9 L8.7085625,3.82493672 L10.0835625,4.27497891 L11,1.8 L7.79178125,0 L6.6460625,0 Z" id="path-1"></path>
    </defs>
    <g id="Page-1" stroke="none" stroke-width="1" fill="none" fill-rule="evenodd">
        <g id="Carousel">
            <g id="Group" transform="translate(-12.000000, 3.000000)">
                <rect id="Rectangle-8" fill="#ECECEC" x="20" y="0" width="17" height="26" rx="2"></rect>
                <rect id="Rectangle-8-Copy" fill="#ECECEC" x="40" y="0" width="17" height="26" rx="2"></rect>
                <rect id="Rectangle-8-Copy-2" fill="#ECECEC" x="0" y="0" width="17" height="26" rx="2"></rect>
                <rect id="Rectangle-10" fill="#4A4A4A" x="23" y="20" width="8" height="1" rx="0.5"></rect>
                <rect id="Rectangle-10-Copy" fill="#4A4A4A" x="23" y="22" width="11" height="1" rx="0.5"></rect>
                <g id="shirt" transform="translate(23.000000, 5.000000)">
                    <g id="Fill-1">
                        <use fill="#4A90E2" fill-rule="evenodd" xlink:href="#path-1"></use>
                        <path stroke="#326198" stroke-width="0.5" d="M8.9585625,4.16981289 L8.9585625,9.25 L2.04178125,9.25 L2.04178125,4.16981289 L0.765911482,4.58740941 L-0.308642615,1.68650069 L3.08606904,-0.218030798 L3.20839062,-0.25 L4.60428125,-0.25 L4.60428125,0 C4.60428125,0.481301793 5.00526265,0.875021093 5.5,0.875021093 C5.99482548,0.875021093 6.3960625,0.481213936 6.3960625,0 L6.3960625,-0.25 L7.79178125,-0.25 L7.91410782,-0.218028002 L11.3086179,1.6864924 L10.2344602,4.58741856 L8.9585625,4.16981289 Z"></path>
                    </g>
                </g>
            </g>
        </g>
    </g>
</svg>