<?xml version="1.0" standalone="no"?>
<!DOCTYPE svg PUBLIC "-//W3C//DTD SVG 1.1//EN" "http://www.w3.org/Graphics/SVG/1.1/DTD/svg11.dtd" >
<svg xmlns="http://www.w3.org/2000/svg" xmlns:xlink="http://www.w3.org/1999/xlink" version="1.1">
<metadata></metadata>
<defs>
<font id="advent_prothin" horiz-adv-x="1003" >
<font-face units-per-em="2048" ascent="1638" descent="-410" />
<missing-glyph horiz-adv-x="569" />
<glyph horiz-adv-x="0" />
<glyph unicode="&#xd;" horiz-adv-x="681" />
<glyph unicode=" "  horiz-adv-x="569" />
<glyph unicode="&#x09;" horiz-adv-x="569" />
<glyph unicode="&#xa0;" horiz-adv-x="569" />
<glyph unicode="!" horiz-adv-x="389" d="M192.5 0q-12.5 0 -21.5 9t-9 21.5t9 21.5t21.5 9t21.5 -9t9 -21.5t-9 -21.5t-21.5 -9zM209 246h-31l-18 1171q0 18 11 27.5t24 9.5q31 0 30 -37z" />
<glyph unicode="&#x22;" horiz-adv-x="872" d="M330 1049h-33l-14 421q0 23 11 31t18 8t18.5 -7t11.5 -32zM573 1049h-32l-15 421q0 23 11.5 31t19.5 8t18.5 -7t10.5 -32z" />
<glyph unicode="#" horiz-adv-x="1255" d="M772 502l82 344h-391l-82 -344h391zM1192 463h-389l-109 -463h-39l109 463h-391l-109 -463h-39l109 463h-264v39h272l82 344h-354v39h364l127 549h39l-127 -549h389l129 549h39l-129 -549h291v-39h-299l-82 -344h381v-39z" />
<glyph unicode="$" horiz-adv-x="1105" d="M532 791v622q-166 -8 -274 -91t-108 -226q0 -135 161 -217q84 -43 221 -88zM569 737v-723q193 4 311.5 92.5t118.5 276.5q0 115 -86 195q-72 63 -213 114q-49 18 -131 45zM569 -233h-37v210q-213 6 -335.5 123t-126.5 265h45q0 -125 108.5 -235t308.5 -116v736 q-266 86 -339 159q-86 82 -86.5 206t109.5 226.5t316 110.5v221h37v-219q168 0 297 -61l-16 -41q-123 63 -279 63h-2v-635q250 -84 324 -137q104 -76 131 -156q18 -47 18 -104q0 -184 -115.5 -292.5t-357.5 -113.5v-210z" />
<glyph unicode="%" horiz-adv-x="1359" d="M618 1194q0 100 -69.5 177t-184 77t-184 -77t-69.5 -177t69.5 -177t184 -77t184 77t69.5 177zM364.5 899q-122.5 0 -208.5 86t-86 209t86 209t208.5 86t208.5 -86t86 -209t-86 -209t-208.5 -86zM1186.5 93q70.5 77 70.5 178.5t-70.5 179t-185 77.5t-185.5 -77.5t-71 -179 t71 -178.5t185.5 -77t185 77zM1001.5 -23q-122.5 0 -208.5 86.5t-86 209t86 208.5t208.5 86t208.5 -86t86 -208.5t-86 -209t-208.5 -86.5zM129 2l-27 33l1117 1481l30 -27z" />
<glyph unicode="&#x26;" horiz-adv-x="1105" d="M846 418v524q-264 -59 -349 -99t-156 -83t-114 -92q-117 -133 -116.5 -282.5t81 -260.5t255 -111t287 129.5t112.5 274.5zM999 14l-12 -37q-141 45 -141 254q-88 -139 -185.5 -196.5t-224.5 -57.5q-184 0 -280 129q-84 113 -84 261q0 129 49 222t121.5 150.5t131 89 t142.5 68.5q-78 10 -133 74q-66 76 -66 182.5t62 185.5q88 115 258 115q68 0 143 -22l-20 -35q-61 20 -137 20t-156 -55q-109 -76 -109 -195q0 -20 4 -43q20 -127 105 -170q55 -25 102 -24.5t84 8.5l193 45v264h39v-256l149 33l8 -39l-157 -35v-700q-1 -197 114 -236z" />
<glyph unicode="'" horiz-adv-x="335" d="M139 1206h-33l-12 254q0 29 10.5 37t18.5 8t19.5 -8t11.5 -37z" />
<glyph unicode="(" horiz-adv-x="555" d="M391 -207l-16 -37q-117 68 -166 149t-49 240v1139q0 160 49 241t166 148l14 -35q-141 -78 -174 -198q-16 -59 -16 -137v-1170q0 -186 96 -272q35 -31 46 -38t50 -30z" />
<glyph unicode=")" horiz-adv-x="555" d="M176 -244l-16 37q39 23 50 30t47 39t50 60q45 94 45 211v1170q0 160 -65 233q-53 63 -125 102l14 35q117 -68 166 -148.5t49 -240.5v-1139q0 -160 -49 -240.5t-166 -148.5z" />
<glyph unicode="*" horiz-adv-x="720" d="M559 903l-35 -26l-166 223l-157 -223l-33 22l156 221l-263 97l15 38l260 -102l-2 281h45l-2 -281l266 102l14 -38l-268 -97z" />
<glyph unicode="+" horiz-adv-x="788" d="M725 809h-307v-287h-39v287h-309v37h309v270h39v-270h307v-37z" />
<glyph unicode="," horiz-adv-x="364" d="M94 -172l-33 22q51 29 83 66t38 59l6 23h-4q-27 6 -26.5 33.5t31 27.5t30.5 -30q0 -99 -125 -201z" />
<glyph unicode="-" horiz-adv-x="839" d="M748 807h-656v39h656v-39z" />
<glyph unicode="." horiz-adv-x="268" d="M92 0q-12 0 -21.5 9t-9.5 21.5t9.5 21.5t21.5 9t21.5 -9t9.5 -21.5t-9.5 -21.5t-21.5 -9z" />
<glyph unicode="/" horiz-adv-x="829" d="M102 -233h-41l664 1906h41z" />
<glyph unicode="0" horiz-adv-x="1124" d="M950 377v667q0 176 -98 277.5t-292.5 101.5t-293 -103t-98.5 -280v-663q0 -178 114.5 -269.5t278.5 -91.5t276.5 86.5t112.5 274.5zM989 1036v-657q0 -207 -126 -304.5t-302 -97.5t-304 97.5t-128 304.5v659q0 211 115.5 319.5t318.5 108.5t314.5 -114.5t111.5 -315.5z " />
<glyph unicode="1" horiz-adv-x="436" d="M373 0h-39v1356q-49 -57 -114.5 -93t-106.5 -44l-41 -9l-11 37q20 4 53 12.5t106 56.5t114 118h39v-1434z" />
<glyph unicode="2" horiz-adv-x="845" d="M780 0h-719v41l596 827q86 131 86 253t-86 208t-217 86t-208.5 -63.5t-106.5 -157.5l-37 14q86 246 365 246q127 0 223 -88q106 -100 106 -237.5t-96 -282.5l-577 -805h671v-41z" />
<glyph unicode="3" horiz-adv-x="923" d="M61 170l37 23q121 -178 314.5 -178.5t301 122.5t107.5 288t-119.5 270.5t-265.5 111.5h-176l436 586h-538v41h587v-41l-409 -547h88q182 0 309 -127t127 -308.5t-127 -308.5t-309 -127q-111 0 -207.5 52.5t-155.5 142.5z" />
<glyph unicode="4" horiz-adv-x="991" d="M778 0h-39l-2 807h-676l353 627h41l-326 -588h610v588h39v-588h150l-13 -39h-137v-807z" />
<glyph unicode="5" horiz-adv-x="923" d="M61 170l33 20q47 -80 139.5 -128t190.5 -48q174 0 285.5 120t111.5 276.5t-109.5 276.5t-283.5 120h-291l66 627h542v-41h-505l-60 -547h244q182 0 309 -127t127 -308.5t-127 -308.5t-309 -127q-111 0 -207.5 52.5t-155.5 142.5z" />
<glyph unicode="6" horiz-adv-x="995" d="M100 428v-16q0 -166 115 -282t281 -116t281.5 116t115.5 282t-115.5 280.5t-279.5 114.5t-278 -109.5t-120 -269.5zM61 412v532q0 170 103 318q55 76 157.5 124t239.5 48h72v-41h-80q-170 0 -303 -99q-68 -51 -109 -147t-41 -227v-332q61 137 169 197.5t227 60.5 q182 0 309 -127t127 -308.5t-128 -308.5t-308.5 -127t-307.5 127.5t-127 309.5z" />
<glyph unicode="7" horiz-adv-x="931" d="M131 0h-43l733 1393h-760v41h807v-41z" />
<glyph unicode="8" horiz-adv-x="972" d="M700.5 888q92.5 85 92.5 216t-86 220t-218.5 89t-218.5 -89t-86 -219t93.5 -216t212 -86t211 85zM600 791q139 -37 224 -154t85 -244q0 -180 -119.5 -299t-302 -119t-304.5 119t-122 299q0 131 82 244t226 154q-98 33 -161 123t-63 186q0 152 97.5 252t246 100 t245.5 -100.5t97 -251.5q0 -98 -60 -185t-171 -124zM760.5 121.5q109.5 107.5 109.5 268.5t-114.5 269.5t-272 108.5t-270.5 -107.5t-113 -269.5t111 -269.5t275.5 -107.5t274 107.5z" />
<glyph unicode="9" horiz-adv-x="995" d="M893 999v17q0 166 -114.5 281.5t-280.5 115.5t-282 -115.5t-116 -281.5t116 -280.5t279.5 -114.5t277.5 109t120 269zM432 0h-72v41h80q172 0 301 94q70 51 111 146.5t41 226.5v332q-61 -137 -169 -197.5t-226 -60.5q-182 0 -309.5 127t-127.5 307t127 308t308.5 128 t308.5 -127t127 -309v-533q0 -168 -105 -313q-53 -76 -155.5 -123t-239.5 -47z" />
<glyph unicode=":" horiz-adv-x="186" d="M92 795q-12 0 -21.5 9t-9.5 21.5t9.5 21.5t21.5 9t21.5 -9t9.5 -21.5t-9.5 -21.5t-21.5 -9zM92 225q-12 0 -21.5 9.5t-9.5 21.5t9.5 21.5t21.5 9.5t21.5 -9.5t9.5 -21.5t-9.5 -21.5t-21.5 -9.5z" />
<glyph unicode=";" horiz-adv-x="282" d="M94 -168l-33 23q51 29 83 65.5t38 59.5l6 22h-4q-27 6 -26.5 33.5t31 27.5t30.5 -30q0 -99 -125 -201zM186.5 549q-12.5 0 -21.5 9t-9 21.5t9 21.5t21.5 9t21.5 -9t9 -21.5t-9 -21.5t-21.5 -9z" />
<glyph unicode="&#x3c;" horiz-adv-x="722" d="M631 164l-570 569v2l570 570l28 -27l-548 -545l548 -540z" />
<glyph unicode="=" horiz-adv-x="780" d="M717 592h-656v39h656v-39zM717 807h-656v39h656v-39z" />
<glyph unicode="&#x3e;" horiz-adv-x="722" d="M659 733l-569 -569l-29 29l549 540l-549 545l29 27l569 -570v-2z" />
<glyph unicode="?" horiz-adv-x="851" d="M401.5 0q-12.5 0 -21.5 9t-9 21.5t9 21.5t21.5 9t21.5 -9t9 -21.5t-9 -21.5t-21.5 -9zM420 244h-39v135q0 92 34 170t74.5 122t100 104.5t102.5 121.5q55 80 55.5 176t-29.5 166t-108 122t-201.5 52t-216 -86t-92.5 -237h-39q0 154 95.5 258t269.5 104q106 0 192 -55 q168 -104 168 -297q0 -127 -75 -238q-39 -57 -99.5 -119.5t-97.5 -100.5t-65.5 -110.5t-28.5 -169.5v-118z" />
<glyph unicode="@" horiz-adv-x="1474" d="M1061 221v563q-227 113 -430 113q-49 0 -94 -8q-78 -16 -131.5 -84t-53.5 -187v-194q0 -117 62 -184q78 -88 256 -88.5t391 69.5zM668 111q-332 0 -355 307v207q0 227 181 295q59 23 135 22q174 0 432 -117q2 143 -96 232q-102 92 -333 92t-381.5 -113.5t-150.5 -335.5 v-311q0 -219 155 -353t413 -134q289 0 463 124t174 306v430q0 111 15 156t75 86l16 -35q-68 -31 -68 -144v-475q0 -129 -62 -227t-165 -152q-205 -106 -453.5 -106t-425 135t-176.5 393v301q0 252 183 383q156 111 401 111q279 0 391 -152q66 -88 66 -225l76 -33v-43l-76 33 v-582q-278 -75 -434 -75z" />
<glyph unicode="A" horiz-adv-x="1079" d="M801 614l-260 738l-260 -738h520zM1059 0h-43l-201 575h-549l-203 -575h-38l501 1434h29z" />
<glyph unicode="B" horiz-adv-x="1126" d="M199 39h428q184 0 282.5 102.5t98.5 278.5t-99.5 281.5t-275.5 105.5h-434v-768zM199 846h487q92 0 166 67q82 72 82 199t-82 205t-256 78h-397v-549zM631 0h-471v1434h452q168 0 264.5 -85t96.5 -243q0 -90 -49.5 -169t-128.5 -110q-2 -2 -2 -4v-2q254 -100 254 -393 q0 -164 -84 -285q-43 -66 -128 -104.5t-204 -38.5z" />
<glyph unicode="C" horiz-adv-x="880" d="M532 14q150 0 330 70l12 -37q-174 -68 -331 -67q-33 0 -99.5 6t-141.5 46t-121 127t-46 216v657q0 156 44 236t134 135q90 51 219 51q166 0 291 -68l-16 -34q-143 63 -268 63q-92 0 -162 -27.5t-109 -65.5t-66.5 -107.5t-27.5 -163.5v-672q0 -133 54.5 -220t136 -116 t167.5 -29z" />
<glyph unicode="D" horiz-adv-x="1179" d="M981 438v520q0 219 -120 327t-296 108h-366v-1352h366q59 0 102.5 4t108 25.5t104.5 61.5t70.5 118.5t30.5 187.5zM586 0h-426v1436h385q231 0 353 -127t122 -338v-561q0 -410 -434 -410z" />
<glyph unicode="E" horiz-adv-x="952" d="M840 0h-680v1434h684v-39h-645v-549h467l-15 -39h-452v-768h641v-39z" />
<glyph unicode="F" horiz-adv-x="923" d="M201 0h-41v1434h684v-41h-643v-547h424l-17 -39h-407v-807z" />
<glyph unicode="G" horiz-adv-x="1099" d="M807 1350q-152 66 -270 65q-168 0 -265 -92q-41 -41 -70.5 -120t-29.5 -185v-635q0 -160 106.5 -262.5t296 -102.5t275.5 102.5t86 252.5v202h-227l-17 39h283v-614h-39v180q-94 -201 -371 -200q-180 0 -306 102t-126 305v643q0 262 178 371q92 51 219 51q158 0 291 -68z " />
<glyph unicode="H" horiz-adv-x="1204" d="M1040 0h-39v807h-802v-807h-39v1434h39v-588h802v588h39v-1434z" />
<glyph unicode="I" horiz-adv-x="395" d="M276 0h-38v1391l-177 4v39h215v-1434z" />
<glyph unicode="J" horiz-adv-x="362" d="M18 -76l-12 37q188 27 189 281v1149l-172 4v39h208v-1184q0 -154 -49 -230t-164 -96z" />
<glyph unicode="K" horiz-adv-x="980" d="M975 0h-43l-533 825l-198 -252v-573h-39v1436h39v-805l622 805h45l-444 -580z" />
<glyph unicode="L" horiz-adv-x="901" d="M899 0h-739v1434h39v-1393h700v-41z" />
<glyph unicode="M" horiz-adv-x="1421" d="M1257 0h-36v1327l-496 -1327h-37l-491 1327v-1327h-37v1434h37l512 -1373l512 1373h36v-1434z" />
<glyph unicode="N" horiz-adv-x="1331" d="M1167 0h-34l-936 1372v-1372h-37v1434h37l936 -1368v1368h34v-1434z" />
<glyph unicode="O" horiz-adv-x="1124" d="M950 377v667q0 176 -98 277.5t-292.5 101.5t-293 -103t-98.5 -280v-663q0 -178 114.5 -269.5t278.5 -91.5t276.5 86.5t112.5 274.5zM989 1036v-657q0 -207 -126 -304.5t-302 -97.5t-304 97.5t-128 304.5v659q0 211 115.5 319.5t318.5 108.5t314.5 -114.5t111.5 -315.5z " />
<glyph unicode="P" horiz-adv-x="1128" d="M199 0h-39v1434h504q195 0 290 -119t95 -320q0 -420 -412 -420h-438v-575zM199 614h434q377 0 377 381q0 182 -83 290t-261 108h-467v-779z" />
<glyph unicode="Q" horiz-adv-x="1124" d="M948 381v676q0 182 -109.5 275t-276.5 93t-278.5 -88t-111.5 -280v-680q0 -98 37 -172q61 -127 221 -172q59 -16 92 -16.5t39 -0.5q-8 49 -8 150v190h41l2 -190q0 -90 10 -148q162 8 252 109.5t90 253.5zM877 -154v-39q-254 0 -310 170q-184 0 -311 98.5t-127 303.5v659 q0 211 115.5 319.5t318.5 108.5t314.5 -114.5t111.5 -315.5v-657q0 -182 -101.5 -281.5t-273.5 -120.5q30 -129 263 -131z" />
<glyph unicode="R" horiz-adv-x="1155" d="M201 614h446q186 0 273.5 113t87.5 285t-91.5 276.5t-269.5 104.5h-446v-779zM1051 0h-43l-277 580q-37 -4 -51 -5h-479v-575h-41v1434h489q203 0 301.5 -119t98.5 -320q0 -106 -50 -221q-27 -63 -86 -112.5t-143 -73.5z" />
<glyph unicode="S" horiz-adv-x="1148" d="M76 365h45q0 -127 113.5 -239t318.5 -112t329 88t124 281q0 100 -67 173t-165 109.5t-215 77.5t-215 78t-164.5 108.5t-66.5 172.5q0 143 118.5 247.5t341.5 104.5q170 0 299 -61l-16 -41q-123 63 -291 63t-288.5 -84t-120.5 -235q0 -102 92 -172t223 -111t262 -87 t223.5 -131t92.5 -212q0 -186 -119 -296t-356.5 -110t-365.5 118t-132 270z" />
<glyph unicode="T" horiz-adv-x="823" d="M426 0h-37l-2 1393h-387v41h823v-41h-397v-1393z" />
<glyph unicode="U" horiz-adv-x="1159" d="M975 377v1059h39v-1055q0 -109 -38 -188.5t-102.5 -122.5t-136 -63.5t-153.5 -20.5t-155 20.5t-137.5 63.5t-102 122.5t-37.5 188.5v1055h38v-1059q0 -98 37 -170t98.5 -110t127 -55t135 -17t133 17t123 55t95.5 111t36 169z" />
<glyph unicode="V" horiz-adv-x="1218" d="M674 0h-45l-469 1434h39l450 -1379l451 1379h39z" />
<glyph unicode="W" horiz-adv-x="1665" d="M1214 0h-43l-297 1337l-296 -1337h-43l-375 1434h43l352 -1360l299 1360h41l299 -1362l346 1362h45z" />
<glyph unicode="X" horiz-adv-x="1189" d="M1110 6l-45 -6l-473 709l-469 -709h-51l497 745l-458 689h45l436 -652l436 652h49l-459 -689z" />
<glyph unicode="Y" horiz-adv-x="1122" d="M817 -14l-12 37q18 0 35.5 10t36 19t28.5 18.5t25.5 26t25 36t19.5 43.5q16 49 16 135v389q-61 -109 -178 -153.5t-221 -44.5q-217 0 -343 107.5t-126 318.5v506h39v-496q0 -190 106.5 -293.5t323.5 -103.5q164 0 272.5 83t126.5 205v605h39v-1135q0 -260 -213 -313z" />
<glyph unicode="Z" horiz-adv-x="1126" d="M1061 0h-998v39l936 1356h-907l-2 39h959v-39l-936 -1356h948v-39z" />
<glyph unicode="[" horiz-adv-x="653" d="M489 -233h-329v1906h329v-35l-290 -2v-1831l290 -2v-36z" />
<glyph unicode="\" horiz-adv-x="944" d="M864 -233h-41l-663 1906h41z" />
<glyph unicode="]" horiz-adv-x="653" d="M489 -233h-329v36l291 2v1831l-291 2v35h329v-1906z" />
<glyph unicode="^" horiz-adv-x="833" d="M723 1520l-262 262l-273 -260l-28 30l303 289l291 -289z" />
<glyph unicode="_" horiz-adv-x="1052" d="M811 -39h-655v39h655v-39z" />
<glyph unicode="`" horiz-adv-x="454" d="M272 1204h-39l-129 232q-10 16 -10 30.5t13.5 20.5t21.5 6q20 0 31 -27z" />
<glyph unicode="a" horiz-adv-x="937" d="M268.5 60.5q65.5 -31.5 148.5 -39t164 -7.5t244 23v625q-131 94 -329 118q-45 6 -91.5 6t-93.5 -8q-84 -16 -140 -84.5t-56 -183.5v-178q0 -102 44 -171t109.5 -100.5zM410 823q238 0 415 -114q0 295 -366 295h-25l4 38q166 0 246 -38q43 -23 76 -45.5t51 -59.5 t30.5 -64.5t16.5 -74.5q6 -72 6 -150v-610q-213 -20 -340 -20q-449 0 -448 366v170q0 197 149 270q76 37 185 37z" />
<glyph unicode="b" horiz-adv-x="995" d="M451 14q426 0 426 305v383q0 137 -78 213t-193 86q-39 4 -80 5q-188 0 -327 -70v-893q131 -29 252 -29zM199 977q137 66 296.5 65.5t245.5 -38.5q174 -80 174 -295v-387q0 -203 -159 -285q-121 -61 -270.5 -61.5t-325.5 24.5v1434h39v-457z" />
<glyph unicode="c" horiz-adv-x="784" d="M166 145.5q55 -77.5 142 -103.5t189.5 -26t225.5 35l10 -39q-131 -35 -237.5 -35t-208.5 33q-213 70 -213 359v262q0 145 57 243q98 170 324 170q135 0 274 -65l-14 -41q-125 66 -258 66q-76 0 -154 -28t-134 -116t-56 -217v-297q-2 -123 53 -200.5z" />
<glyph unicode="d" horiz-adv-x="946" d="M575 14q121 0 252 29v893q-139 70 -327 70q-41 0 -82 -5q-113 -10 -190.5 -85.5t-77.5 -213.5v-383q-1 -305 425 -305zM285 1004q86 39 245.5 38.5t296.5 -65.5v457h39v-1434q-176 -25 -325.5 -25t-270.5 62q-160 82 -159 285v387q0 215 174 295z" />
<glyph unicode="e" horiz-adv-x="888" d="M770 545v157q0 162 -95 233t-230.5 71t-234.5 -75t-99 -235v-188zM403 8q162 0 336 98l19 -34q-158 -96 -330 -97q-356 0 -356 299v420q0 166 103.5 258t273 92t265 -91t95.5 -253v-194l-698 -35v-201q0 -135 87.5 -198.5t204.5 -63.5z" />
<glyph unicode="f" horiz-adv-x="614" d="M199 0h-39v1124q0 102 34.5 176t88.5 105q88 51 180 51q37 0 72 -8l-7 -35q-29 4 -55 4q-102 0 -178 -57q-96 -72 -96 -236v-98h309l-16 -39h-293v-987z" />
<glyph unicode="g" horiz-adv-x="917" d="M809 328v485q-76 193 -338 193q-166 0 -266 -99q-39 -37 -64.5 -102.5t-25.5 -149.5v-313q0 -147 87 -238.5t255 -91.5q186 0 293 131q59 74 59 185zM629 -430l-13 37q47 18 71 30.5t58 40.5q63 55 64 193v283q-119 -178 -352 -179q-180 0 -280.5 98.5t-100.5 286.5v306 q0 180 108.5 279t286.5 99q231 0 338 -149v131h39v-1157q0 -123 -51 -192.5t-168 -106.5z" />
<glyph unicode="h" horiz-adv-x="1009" d="M170 973q139 72 299 71.5t244 -43.5q174 -80 174 -292v-709h-39v711q0 125 -73 199.5t-179 88.5q-47 6 -94 7q-186 0 -332 -76v-930h-39v1434h39v-461z" />
<glyph unicode="i" horiz-adv-x="378" d="M187.5 1399q-27.5 0 -27.5 27.5t27.5 27.5t27.5 -27.5t-27.5 -27.5zM207 0h-39v1026h39v-1026z" />
<glyph unicode="j" horiz-adv-x="401" d="M195.5 1399q-27.5 0 -27.5 27.5t27.5 27.5t27.5 -27.5t-27.5 -27.5zM176 -168v1155h-153l-23 39h215v-1196q0 -225 -215 -258l-6 37q23 0 58.5 15.5t60 37t44 66.5t19.5 104z" />
<glyph unicode="k" horiz-adv-x="897" d="M889 0h-47l-463 750l-203 -183v-567h-39v1434h39v-818l486 449l28 -27l-282 -260q217 -360 481 -778z" />
<glyph unicode="l" horiz-adv-x="362" d="M199 0h-39v1434h39v-1434z" />
<glyph unicode="m" horiz-adv-x="1517" d="M1438 0h-39v705q0 109 -44 180t-106.5 93.5t-103.5 22.5q-127 0 -232 -49l-110 -55q23 -37 22 -215v-682h-39v770q0 109 -65 168q-76 66 -211 66l-145 -17q-96 -18 -166 -57v-930h-39v1026h39v-51q150 68 299 67l49 -2q174 -12 239 -110q43 25 138.5 71t187.5 46t164 -35 q162 -80 162 -303v-709z" />
<glyph unicode="n" horiz-adv-x="1024" d="M170 973q139 72 299 71.5t244 -43.5q174 -80 174 -292v-709h-39v711q0 123 -74 196q-96 98 -278.5 98.5t-325.5 -75.5v-930h-39v1026h39v-53z" />
<glyph unicode="o" horiz-adv-x="944" d="M825 377v278q0 176 -97 265.5t-244.5 89.5t-246 -89.5t-98.5 -265.5v-278q0 -150 84 -255.5t259 -105.5t259 103.5t84 257.5zM864 647v-270q0 -172 -94 -284.5t-284.5 -112.5t-288 113.5t-97.5 283.5v270q0 195 99.5 298.5t282 103.5t282.5 -108t100 -294z" />
<glyph unicode="p" horiz-adv-x="1011" d="M893 340v311q0 102 -36 176t-95 111q-111 66 -244 66q-164 0 -260 -95q-41 -39 -59 -96v-494q0 -141 95 -223t257 -82q182 0 285 133q57 76 57 193zM199 -430l-39 14v1442h39v-123q53 74 142 106.5t175 32.5q209 0 312.5 -110.5t103.5 -288.5v-283q0 -186 -107.5 -285.5 t-279.5 -99.5q-254 0 -346 183v-588z" />
<glyph unicode="q" horiz-adv-x="917" d="M809 319v494q-18 57 -59 97t-91 61q-86 33 -158.5 33t-133 -16.5t-120 -54.5t-96 -110.5t-36.5 -171.5v-311q0 -117 57 -193q102 -133 274 -133t267.5 82t95.5 223zM848 -430l-39 14v574q-92 -182 -346 -183q-172 0 -279.5 99.5t-107.5 285.5v283q0 178 103.5 288.5 t312.5 110.5q86 0 175 -32.5t142 -106.5v123h39v-1456z" />
<glyph unicode="r" horiz-adv-x="679" d="M164 0h-39v1026h39v-108q119 125 317 124q72 0 156 -16l-12 -43q-76 23 -155 23t-159 -35q-147 -59 -147 -154v-817z" />
<glyph unicode="s" horiz-adv-x="882" d="M659 954q-98 55 -219 55.5t-207 -58t-86 -163.5q0 -92 75 -138t171 -73.5t191.5 -60.5t161 -97.5t65.5 -174t-91 -192.5t-266 -83t-275.5 84t-104.5 207h39q8 -104 94 -178t237.5 -74t239.5 69.5t88 166t-64.5 154t-157.5 87t-190 58.5q-231 70 -249 205q-2 18 -2 36 q0 92 76.5 179.5t263.5 87.5q63 0 120.5 -15.5t81.5 -31.5l27 -15z" />
<glyph unicode="t" horiz-adv-x="497" d="M319 10l-12 -37q-115 33 -166 105t-51 192v1164h39v-408h322l-19 -39h-303v-717q0 -113 44 -170t146 -90z" />
<glyph unicode="u" horiz-adv-x="915" d="M838 0h-39v160q-102 -182 -340 -183q-385 0 -385 383v666h39v-666q0 -166 79.5 -254t246.5 -88t263.5 84t96.5 226v698h39v-1026z" />
<glyph unicode="v" horiz-adv-x="880" d="M444 0h-26l-381 1026h39l354 -950l356 950h39z" />
<glyph unicode="w" horiz-adv-x="1427" d="M981 0h-27l-274 932l-272 -932h-25l-346 1026h41l313 -950l277 950h22l279 -948l315 948h41z" />
<glyph unicode="x" horiz-adv-x="907" d="M791 0h-43l-289 479l-301 -479h-45l323 514l-311 512h47l287 -481l293 481h45l-314 -514z" />
<glyph unicode="y" horiz-adv-x="968" d="M629 -430l-13 37q190 49 191 264v307q-55 -111 -155.5 -157t-200.5 -46q-180 0 -277.5 97.5t-97.5 287.5v666h39v-686q0 -147 80.5 -236.5t246.5 -89.5t264.5 92.5t98.5 233.5v424q0 125 13 188.5t65 91.5l16 -32q-55 -41 -55 -185v-952q0 -125 -49 -196.5t-166 -108.5z " />
<glyph unicode="z" horiz-adv-x="991" d="M911 0h-751v39l661 948h-643v39h690v-39l-661 -948h704v-39z" />
<glyph unicode="{" horiz-adv-x="624" d="M545 -203l-17 -35q-133 76 -175 163t-42 282v299q0 39 -32.5 89t-54 70.5t-64.5 59.5q49 39 98 102.5t49 118.5v324q0 170 43 254t174 159l15 -34q-41 -20 -60.5 -38t-45 -39.5t-36 -43t-24.5 -53.5q-27 -57 -27 -162v-379q0 -76 -133 -209l43 -43t37.5 -41t30.5 -39 q27 -47 26 -84v-362q0 -143 42 -221.5t153 -137.5z" />
<glyph unicode="|" horiz-adv-x="360" d="M197 -233h-37v1906h37v-1906z" />
<glyph unicode="}" horiz-adv-x="624" d="M176 -238l-16 35q111 59 152.5 137t41.5 222v362q0 70 86 156l52 51q-133 133 -134 209v379q0 104 -20.5 149t-30.5 66.5t-35.5 43t-33.5 30.5q-31 27 -72 47l14 34q131 -76 174 -159.5t43 -253.5v-324q0 -55 49.5 -118.5t98.5 -102.5q-43 -39 -64.5 -59.5t-54.5 -70.5 t-33 -89v-299q0 -195 -42 -282t-175 -163z" />
<glyph unicode="~" horiz-adv-x="1040" d="M387 768q51 0 116.5 -20.5t138.5 -46t155 -25.5t143 65l21 -36q-76 -70 -183 -70q-68 0 -139.5 24.5t-135 45t-114.5 20.5q-121 0 -205 -94l-24 35q92 102 227 102z" />
<glyph unicode="&#xa1;" horiz-adv-x="389" d="M192.5 1393q-12.5 0 -21.5 9t-9 21.5t9 21.5t21.5 9t21.5 -9t9 -21.5t-9 -21.5t-21.5 -9zM160 37l18 1171h31l16 -1171q0 -37 -30 -37q-12 0 -23.5 9.5t-11.5 27.5z" />
<glyph unicode="&#xa2;" horiz-adv-x="899" d="M524 16v988q-143 -6 -234 -97.5t-91 -263.5v-297q-2 -162 86.5 -241t238.5 -89zM559 -233h-35v215q-70 2 -135 22q-121 41 -175 126t-54 239v262q0 197 101 303t263 110v232h35v-232q125 -6 256 -65l-14 -41q-119 61 -242 66v-988h12q109 0 238 35l10 -39 q-129 -33 -246 -32h-14v-213z" />
<glyph unicode="&#xa3;" horiz-adv-x="976" d="M897 0h-737v31q102 51 167.5 161.5t67.5 227.5q0 111 -25.5 189.5t-27.5 84.5h-135v39h121q-72 219 -72 322q0 178 111.5 287.5t268.5 109.5t238 -51l-14 -39q-92 51 -209 51q-164 0 -260 -106.5t-96 -255.5q0 -92 74 -318h493v-39h-477q51 -139 51 -261t-56 -228.5 t-136 -163.5h653v-41z" />
<glyph unicode="&#xa4;" horiz-adv-x="958" d="M743.5 437q92.5 91 92.5 223.5t-93.5 225.5t-225.5 93t-225 -94t-93 -225.5t93 -222.5t226 -91t225.5 91zM823 326l-67 67q-90 -90 -236.5 -90t-243.5 90l-61 -69l-31 30l64 68q-88 98 -88 238.5t88 240.5l-60 64l29 28l59 -63q45 41 112 66.5t130 25.5q150 0 242 -92 l61 63l27 -30l-60 -64q90 -96 90.5 -237.5t-92.5 -237.5l68 -68z" />
<glyph unicode="&#xa5;" horiz-adv-x="1144" d="M598 0h-37v565h-305v39h305v92h-305v39h283l-441 699h47l435 -693l438 693h47l-444 -699h290v-39h-313v-92h313v-39h-313v-565z" />
<glyph unicode="&#xa7;" horiz-adv-x="1212" d="M1055 213q2 8 14 33q63 139 -45 256q-59 66 -155.5 108.5t-196.5 77.5q-270 96 -381 197q-57 -57 -50 -144.5t72.5 -145.5t165 -95t203.5 -70q271 -88 373 -217zM160 -16h39q8 -150 129 -249.5t323.5 -99.5t323.5 98.5t121 266.5q0 127 -88 214t-217 134t-258.5 90 t-225.5 115q-106 78 -106 197q0 86 61 161q-66 82 -65.5 210t119 232.5t341.5 104.5q170 0 299 -61l-14 -35q-119 61 -288 61t-295 -78.5t-126 -246.5q0 -111 91.5 -192t222.5 -130t263 -99t224 -131t94 -196q0 -72 -49 -164q53 -82 54 -174q0 -186 -125 -300.5 t-356.5 -114.5t-359.5 117.5t-132 269.5z" />
<glyph unicode="&#xa8;" horiz-adv-x="454" d="M391 1434q-12 0 -21.5 9t-9.5 21.5t9.5 21.5t21.5 9t21.5 -9t9.5 -21.5t-9.5 -21.5t-21.5 -9zM65.5 1432q-12.5 0 -21.5 9t-9 21.5t9 21.5t21.5 9t21.5 -9t9 -21.5t-9 -21.5t-21.5 -9z" />
<glyph unicode="&#xa9;" horiz-adv-x="1638" d="M1188 358h39q-33 -147 -143.5 -236t-254.5 -89q-203 0 -320.5 133t-117.5 334.5t117 340t317 138.5q150 0 262.5 -88t137.5 -229h-37q-20 102 -111.5 190t-249.5 88q-190 0 -293.5 -131t-103.5 -299q0 -106 35 -200.5t129 -166t238.5 -71.5t242 91t113.5 195zM311 -14 q219 -207 507 -207t508 209t220 517t-213 519t-510 211t-514 -206t-217 -521t219 -522zM1362 -39q-223 -221 -541.5 -221t-544 221t-225.5 547t223.5 545t546 219t543.5 -219t221 -545t-223 -547z" />
<glyph unicode="&#xaa;" horiz-adv-x="790" d="M672 1122q-176 133 -307 133q-63 0 -107 -34q-59 -53 -59 -170q0 -68 20.5 -116t75.5 -85q57 -41 154.5 -41t222.5 20v293zM360 1290q139 0 312 -125q0 141 -72 195.5t-233 58.5l4 33q201 0 270.5 -77t69.5 -238v-336q-141 -23 -205 -23t-126.5 6.5t-109.5 35t-78.5 90 t-31.5 148.5t37 144q57 88 163 88z" />
<glyph unicode="&#xab;" horiz-adv-x="1071" d="M920 164l-383 383v2l383 383l26 -29l-356 -354l358 -352zM469 164l-383 383v2l383 383l29 -29l-355 -354l355 -352z" />
<glyph unicode="&#xad;" horiz-adv-x="839" d="M748 807h-656v39h656v-39z" />
<glyph unicode="&#xae;" horiz-adv-x="1638" d="M307 -14q217 -207 516 -207t511 208t212 522t-212 519t-514 205t-516 -205t-214 -520t217 -522zM1362 -39q-223 -221 -541.5 -221t-544 221t-225.5 547t223.5 545t546 219t543.5 -219t221 -545t-223 -547zM580 508h323q74 0 133 29q109 51 109 175t-78 174t-176 50h-311 v-428zM1202 80h-47l-250 389h-325v-389h-39v895h354q127 0 207 -72t80 -181.5t-64.5 -173t-167.5 -75.5z" />
<glyph unicode="&#xaf;" horiz-adv-x="692" d="M612 1348h-452v38h452v-38z" />
<glyph unicode="&#xb0;" horiz-adv-x="829" d="M711 1157q0 100 -71 178t-185.5 78t-185 -78t-70.5 -178t70.5 -178t185 -78t185.5 78t71 178zM455 862q-123 0 -209 86t-86 209t86 209t209 86t209 -86t86 -209t-86 -209t-209 -86z" />
<glyph unicode="&#xb1;" horiz-adv-x="903" d="M815 485h-655v41h319v281h-311v39h311v270h39v-270h305v-39h-305v-281h297v-41z" />
<glyph unicode="&#xb4;" horiz-adv-x="454" d="M133 1204h-39l113 262q10 27 31 27q35 0 34 -29q0 -12 -10 -28z" />
<glyph unicode="&#xb5;" horiz-adv-x="974" d="M905 27l-26 -31q-10 0 -24.5 14.5t-27 46t-12.5 66.5q-98 -145 -315 -145.5t-385 155.5v-549l-39 4v1438h39v-840q20 -31 86 -80q129 -94 274.5 -94t242.5 61.5t97 205.5v757l39 8v-915q0 -88 51 -102z" />
<glyph unicode="&#xb6;" horiz-adv-x="1382" d="M1303 -408h-37v1901h-217v-1899h-37v910h-490q-137 0 -209 53q-37 29 -64.5 58.5t-43 78.5t-25.5 86t-14 99q-6 92 -6 194q0 205 94 334t287 129h762v-1944z" />
<glyph unicode="&#xb8;" horiz-adv-x="839" d="M309 -115q39 20 105.5 20.5t125 -32.5t58.5 -126t-76 -135t-168 -42t-198 39l20 43q74 -47 166 -47t154.5 38t62.5 111.5t-72 102.5q-33 12 -72.5 12t-88.5 -19l-84 -30l-13 20l125 160h41z" />
<glyph unicode="&#xbb;" horiz-adv-x="1062" d="M455 547l-383 -383l-29 33l358 352l-356 354l27 29l383 -383v-2zM905 547l-383 -383l-28 33l354 352l-354 354l28 29l383 -383v-2z" />
<glyph unicode="&#xbf;" horiz-adv-x="966" d="M547 1391q-12 0 -21.5 9t-9.5 21.5t9.5 21.5t21.5 9t21.5 -9t9.5 -21.5t-9.5 -21.5t-21.5 -9zM848 362h39q0 -154 -95.5 -258t-269.5 -104q-106 0 -192 53q-168 106 -168 299q0 127 76 238q39 57 99 119.5t97 100.5t65.5 110.5t28.5 169.5v118h39v-135q0 -92 -33.5 -170 t-74.5 -122t-100.5 -104.5t-104.5 -123.5q-53 -78 -53 -174t29.5 -166t107.5 -122t202 -52t216 85.5t92 237.5z" />
<glyph unicode="&#xc0;" horiz-adv-x="1079" d="M565 1497h-39l-129 232q-25 39 9 53q8 4 16 4q20 0 31 -27zM801 614l-260 738l-260 -738h520zM1059 0h-43l-201 575h-549l-203 -575h-38l501 1434h29z" />
<glyph unicode="&#xc1;" horiz-adv-x="1079" d="M535 1497h-39l112 262q10 27 31 27q8 0 16 -4q33 -14 9 -53zM801 614l-260 738l-260 -738h520zM1059 0h-43l-201 575h-549l-203 -575h-38l501 1434h29z" />
<glyph unicode="&#xc2;" horiz-adv-x="1079" d="M836 1581l-35 -33l-258 260l-269 -260l-32 33l303 289zM801 614l-260 738l-260 -738h520zM1059 0h-43l-201 575h-549l-203 -575h-38l501 1434h29z" />
<glyph unicode="&#xc3;" horiz-adv-x="1079" d="M399 1690q55 0 189 -66q51 -25 116.5 -25t129.5 66l20 -35q-78 -72 -168 -71q-53 0 -104.5 23.5t-99.5 44t-91 20.5q-94 0 -172 -91l-22 33q96 101 202 101zM801 614l-260 738l-260 -738h520zM1059 0h-43l-201 575h-549l-203 -575h-38l501 1434h29z" />
<glyph unicode="&#xc4;" horiz-adv-x="1079" d="M801 614l-260 738l-260 -738h520zM1059 0h-43l-201 575h-549l-203 -575h-38l501 1434h29z" />
<glyph unicode="&#xc5;" horiz-adv-x="1079" d="M555 1434v-4q66 8 110 57t44 119.5t-50.5 121t-123 50.5t-124 -50.5t-51.5 -122t47.5 -121.5t116.5 -54l2 4h29zM801 614l-260 738l-260 -738h520zM1059 0h-43l-201 575h-549l-203 -575h-38l485 1391q-80 10 -135.5 70.5t-55.5 145.5t63.5 148.5t152 63.5t152 -63.5 t63.5 -147.5t-51.5 -143.5t-129.5 -73.5z" />
<glyph unicode="&#xc6;" horiz-adv-x="1675" d="M911 614v746l-387 -746h387zM1591 0h-682l2 575h-405l-301 -575h-45l749 1434h686v-39h-645v-549h467l-14 -39h-453v-766h641v-41z" />
<glyph unicode="&#xc7;" horiz-adv-x="880" d="M532 14q150 0 330 70l12 -37q-178 -68 -339 -67h-35l-70 -95q39 20 105.5 20.5t125 -32.5t58.5 -126t-76 -135t-168 -42t-199 39l21 43q74 -47 166 -47t154.5 38t62.5 111.5t-72 102.5q-33 12 -72.5 12t-89.5 -19l-84 -30l-12 20l111 144q-147 16 -236.5 110t-89.5 281 v657q0 156 44 236t134 135q90 51 219 51q166 0 291 -68l-16 -34q-143 63 -268 63q-92 0 -162 -27.5t-109 -65.5t-66.5 -107.5t-27.5 -163.5v-672q0 -133 54.5 -220t136 -116t167.5 -29z" />
<glyph unicode="&#xc8;" horiz-adv-x="952" d="M553 1495h-39l-129 231q-25 39 8 54q8 4 17 4q20 0 30 -27zM840 0h-680v1434h684v-39h-645v-549h467l-15 -39h-452v-768h641v-39z" />
<glyph unicode="&#xc9;" horiz-adv-x="952" d="M524 1495h-39l113 262q10 27 31 27q8 0 16 -4q33 -14 8 -54zM840 0h-680v1434h684v-39h-645v-549h467l-15 -39h-452v-768h641v-39z" />
<glyph unicode="&#xca;" horiz-adv-x="952" d="M786 1581l-34 -33l-258 260l-269 -260l-32 33l303 289zM840 0h-680v1434h684v-39h-645v-549h467l-15 -39h-452v-768h641v-39z" />
<glyph unicode="&#xcb;" horiz-adv-x="952" d="M840 0h-680v1434h684v-39h-645v-549h467l-15 -39h-452v-768h641v-39z" />
<glyph unicode="&#xcc;" horiz-adv-x="538" d="M373 1495h-39l-129 231q-25 39 8 54q8 4 16 4q20 0 31 -27zM375 0h-39v1391l-176 4v39h215v-1434z" />
<glyph unicode="&#xcd;" horiz-adv-x="677" d="M375 1495h-39l113 262q10 27 30 27q35 0 35 -29q0 -12 -10 -29zM375 0h-39v1391l-176 4v39h215v-1434z" />
<glyph unicode="&#xce;" horiz-adv-x="917" d="M754 1581l-35 -33l-258 260l-268 -260l-33 33l303 289zM516 0h-39v1391l-176 4v39h215v-1434z" />
<glyph unicode="&#xcf;" horiz-adv-x="538" d="M375 0h-39v1391l-176 4v39h215v-1434z" />
<glyph unicode="&#xd0;" horiz-adv-x="1318" d="M666 1393h-367v-291h766q-37 147 -146.5 219t-252.5 72zM1081 438v520q0 39 -8 105h-774v-1022h367q59 0 102 4t107.5 25.5t104.5 61.5t70.5 118.5t30.5 187.5zM686 0h-426v1063h-100v39h100v334h385q190 0 308 -90.5t153 -243.5h133v-39h-125q6 -47 6 -92v-561 q0 -410 -434 -410z" />
<glyph unicode="&#xd1;" horiz-adv-x="1331" d="M526 1690q55 0 189 -66q51 -25 116.5 -25t129.5 66l20 -35q-78 -72 -168 -71q-53 0 -104.5 23.5t-99.5 44t-91 20.5q-94 0 -172 -91l-22 33q96 101 202 101zM1167 0h-34l-936 1372v-1372h-37v1434h37l936 -1368v1368h34v-1434z" />
<glyph unicode="&#xd2;" horiz-adv-x="1124" d="M598 1495h-39l-129 231q-25 39 8 54q8 4 17 4q20 0 30 -27zM950 377v667q0 176 -98 277.5t-292.5 101.5t-293 -103t-98.5 -280v-663q0 -178 114.5 -269.5t278.5 -91.5t276.5 86.5t112.5 274.5zM989 1036v-657q0 -207 -126 -304.5t-302 -97.5t-304 97.5t-128 304.5v659 q0 211 115.5 319.5t318.5 108.5t314.5 -114.5t111.5 -315.5z" />
<glyph unicode="&#xd3;" horiz-adv-x="1124" d="M565 1495h-39l113 262q10 27 31 27q8 0 16 -4q33 -14 8 -54zM950 377v667q0 176 -98 277.5t-292.5 101.5t-293 -103t-98.5 -280v-663q0 -178 114.5 -269.5t278.5 -91.5t276.5 86.5t112.5 274.5zM989 1036v-657q0 -207 -126 -304.5t-302 -97.5t-304 97.5t-128 304.5v659 q0 211 115.5 319.5t318.5 108.5t314.5 -114.5t111.5 -315.5z" />
<glyph unicode="&#xd4;" horiz-adv-x="1124" d="M852 1581l-35 -33l-258 260l-268 -260l-33 33l303 289zM950 377v667q0 176 -98 277.5t-292.5 101.5t-293 -103t-98.5 -280v-663q0 -178 114.5 -269.5t278.5 -91.5t276.5 86.5t112.5 274.5zM989 1036v-657q0 -207 -126 -304.5t-302 -97.5t-304 97.5t-128 304.5v659 q0 211 115.5 319.5t318.5 108.5t314.5 -114.5t111.5 -315.5z" />
<glyph unicode="&#xd5;" horiz-adv-x="1124" d="M430 1690q55 0 188 -66q51 -25 117 -25t129 66l21 -35q-78 -72 -168 -71q-53 0 -104.5 23.5t-100.5 44t-90 20.5q-94 0 -172 -91l-23 33q97 101 203 101zM950 377v667q0 176 -98 277.5t-292.5 101.5t-293 -103t-98.5 -280v-663q0 -178 114.5 -269.5t278.5 -91.5 t276.5 86.5t112.5 274.5zM989 1036v-657q0 -207 -126 -304.5t-302 -97.5t-304 97.5t-128 304.5v659q0 211 115.5 319.5t318.5 108.5t314.5 -114.5t111.5 -315.5z" />
<glyph unicode="&#xd6;" horiz-adv-x="1124" d="M950 377v667q0 176 -98 277.5t-292.5 101.5t-293 -103t-98.5 -280v-663q0 -178 114.5 -269.5t278.5 -91.5t276.5 86.5t112.5 274.5zM989 1036v-657q0 -207 -126 -304.5t-302 -97.5t-304 97.5t-128 304.5v659q0 211 115.5 319.5t318.5 108.5t314.5 -114.5t111.5 -315.5z " />
<glyph unicode="&#xd7;" horiz-adv-x="772" d="M688 395l-33 -26l-229 276l-233 -278l-29 24l237 283l-241 295l26 24l242 -288l236 286l28 -26l-239 -287z" />
<glyph unicode="&#xd8;" horiz-adv-x="1099" d="M322 100l448 1293q-86 31 -180 30q-195 0 -293 -103t-98 -280v-663q0 -179 123 -277zM981 377v667q0 242 -176 332l-453 -1298q100 -61 252 -61.5t264.5 86t112.5 274.5zM246 -233h-41l102 292q-147 109 -147 320v659q0 211 115.5 319.5t318.5 108.5q102 0 190 -32 l84 239h41l-90 -256q201 -104 201 -381v-657q0 -207 -126 -304.5t-285.5 -97.5t-268.5 62z" />
<glyph unicode="&#xd9;" horiz-adv-x="1159" d="M616 1495h-38l-129 231q-25 39 8 54q8 4 16 4q20 0 31 -27zM975 377v1059h39v-1055q0 -109 -38 -188.5t-102.5 -122.5t-136 -63.5t-153.5 -20.5t-155 20.5t-137.5 63.5t-102 122.5t-37.5 188.5v1055h38v-1059q0 -98 37 -170t98.5 -110t127 -55t135 -17t133 17t123 55 t95.5 111t36 169z" />
<glyph unicode="&#xda;" horiz-adv-x="1159" d="M575 1497h-38l112 262q10 27 31 27q8 0 16 -4q33 -14 9 -53zM975 377v1059h39v-1055q0 -109 -38 -188.5t-102.5 -122.5t-136 -63.5t-153.5 -20.5t-155 20.5t-137.5 63.5t-102 122.5t-37.5 188.5v1055h38v-1059q0 -98 37 -170t98.5 -110t127 -55t135 -17t133 17t123 55 t95.5 111t36 169z" />
<glyph unicode="&#xdb;" horiz-adv-x="1159" d="M887 1581l-35 -33l-258 260l-268 -260l-33 33l303 289zM975 377v1059h39v-1055q0 -109 -38 -188.5t-102.5 -122.5t-136 -63.5t-153.5 -20.5t-155 20.5t-137.5 63.5t-102 122.5t-37.5 188.5v1055h38v-1059q0 -98 37 -170t98.5 -110t127 -55t135 -17t133 17t123 55 t95.5 111t36 169z" />
<glyph unicode="&#xdc;" horiz-adv-x="1159" d="M975 377v1059h39v-1055q0 -109 -38 -188.5t-102.5 -122.5t-136 -63.5t-153.5 -20.5t-155 20.5t-137.5 63.5t-102 122.5t-37.5 188.5v1055h38v-1059q0 -98 37 -170t98.5 -110t127 -55t135 -17t133 17t123 55t95.5 111t36 169z" />
<glyph unicode="&#xdd;" horiz-adv-x="1122" d="M575 1497h-38l112 262q10 27 31 27q8 0 16 -4q33 -14 9 -53zM817 -14l-12 37q18 0 35.5 10t36 19t28.5 18.5t25.5 26t25 36t19.5 43.5q16 49 16 135v389q-61 -109 -178 -153.5t-221 -44.5q-217 0 -343 107.5t-126 318.5v506h39v-496q0 -190 106.5 -293.5t323.5 -103.5 q164 0 272.5 83t126.5 205v605h39v-1135q0 -260 -213 -313z" />
<glyph unicode="&#xde;" horiz-adv-x="1013" d="M301 379.5q98 -105.5 244.5 -105.5t248 96.5t101.5 274.5t-105.5 272.5t-237.5 94.5t-240.5 -92.5t-108.5 -263.5t98 -276.5zM199 0h-39v1434h39v-594q123 205 346 204q188 0 288.5 -114.5t100.5 -294.5t-112.5 -288.5t-272.5 -108.5q-63 0 -122.5 17t-125 75.5 t-102.5 150.5v-481z" />
<glyph unicode="&#xdf;" horiz-adv-x="1054" d="M352 76l25 39q59 -57 168 -84q49 -12 98 -13l119 19q109 31 149 131q23 59 23 115q0 133 -135 247q-35 29 -95.5 72t-101.5 73t-85 74t-63.5 83.5t-19.5 94t33 111.5h10q106 0 137 95q10 31 10.5 76.5t-40.5 105.5q-57 82 -164 82q-221 0 -221 -289v-1108h-39v1100 q0 336 264 336q76 0 133 -41q104 -72 105 -215q0 -63 -40 -112.5t-106 -59.5h-22q-23 -45 -23 -83t16.5 -71t40 -62.5t63.5 -60.5t73 -55q115 -78 165 -119q115 -92 142 -238q6 -23 6 -64.5t-29 -104.5q-43 -104 -157 -146q-74 -27 -134 -27q-188 1 -305 99z" />
<glyph unicode="&#xe0;" horiz-adv-x="1028" d="M598 1102h-39l-129 231q-25 39 8 53q8 4 17 5q20 0 30 -27zM352.5 60.5q65.5 -31.5 148.5 -39t163.5 -7.5t244.5 23v625q-131 94 -331 118q-43 6 -89.5 6t-93.5 -8q-84 -16 -140 -84.5t-56 -183.5v-178q0 -102 44 -171t109.5 -100.5zM494 823q238 0 415 -114 q0 295 -366 295h-25l4 38q166 0 246 -38q43 -23 76 -45.5t51 -59.5t30.5 -64.5t16.5 -74.5q6 -72 6 -150v-610q-213 -20 -340 -20q-449 0 -448 366v170q0 197 149 270q76 37 185 37z" />
<glyph unicode="&#xe1;" horiz-adv-x="1028" d="M567 1102h-39l113 262q10 27 31 27q8 0 16 -5q33 -14 8 -53zM352.5 60.5q65.5 -31.5 148.5 -39t163.5 -7.5t244.5 23v625q-131 94 -331 118q-43 6 -89.5 6t-93.5 -8q-84 -16 -140 -84.5t-56 -183.5v-178q0 -102 44 -171t109.5 -100.5zM494 823q238 0 415 -114 q0 295 -366 295h-25l4 38q166 0 246 -38q43 -23 76 -45.5t51 -59.5t30.5 -64.5t16.5 -74.5q6 -72 6 -150v-610q-213 -20 -340 -20q-449 0 -448 366v170q0 197 149 270q76 37 185 37z" />
<glyph unicode="&#xe2;" horiz-adv-x="1028" d="M858 1186l-35 -33l-258 260l-268 -260l-33 33l303 289zM352.5 60.5q65.5 -31.5 148.5 -39t163.5 -7.5t244.5 23v625q-131 94 -331 118q-43 6 -89.5 6t-93.5 -8q-84 -16 -140 -84.5t-56 -183.5v-178q0 -102 44 -171t109.5 -100.5zM494 823q238 0 415 -114q0 295 -366 295 h-25l4 38q166 0 246 -38q43 -23 76 -45.5t51 -59.5t30.5 -64.5t16.5 -74.5q6 -72 6 -150v-610q-213 -20 -340 -20q-449 0 -448 366v170q0 197 149 270q76 37 185 37z" />
<glyph unicode="&#xe3;" horiz-adv-x="1028" d="M434 1305q55 0 189 -66q51 -25 116.5 -25t128.5 66l21 -35q-78 -72 -168 -71q-53 0 -104.5 23.5t-100.5 44t-90 20.5q-94 0 -172 -91l-23 33q97 101 203 101zM352.5 60.5q65.5 -31.5 148.5 -39t163.5 -7.5t244.5 23v625q-131 94 -331 118q-43 6 -89.5 6t-93.5 -8 q-84 -16 -140 -84.5t-56 -183.5v-178q0 -102 44 -171t109.5 -100.5zM494 823q238 0 415 -114q0 295 -366 295h-25l4 38q166 0 246 -38q43 -23 76 -45.5t51 -59.5t30.5 -64.5t16.5 -74.5q6 -72 6 -150v-610q-213 -20 -340 -20q-449 0 -448 366v170q0 197 149 270 q76 37 185 37z" />
<glyph unicode="&#xe4;" horiz-adv-x="1028" d="M352.5 60.5q65.5 -31.5 148.5 -39t163.5 -7.5t244.5 23v625q-131 94 -331 118q-43 6 -89.5 6t-93.5 -8q-84 -16 -140 -84.5t-56 -183.5v-178q0 -102 44 -171t109.5 -100.5zM494 823q238 0 415 -114q0 295 -366 295h-25l4 38q166 0 246 -38q43 -23 76 -45.5t51 -59.5 t30.5 -64.5t16.5 -74.5q6 -72 6 -150v-610q-213 -20 -340 -20q-449 0 -448 366v170q0 197 149 270q76 37 185 37z" />
<glyph unicode="&#xe5;" horiz-adv-x="1028" d="M534.5 1047q77.5 0 132 55t54.5 133t-54.5 132t-132 54t-133 -54t-55.5 -132t55.5 -133t133 -55zM352.5 60.5q65.5 -31.5 148.5 -39t163.5 -7.5t244.5 23v625q-131 94 -331 118q-43 6 -89.5 6t-93.5 -8q-84 -16 -140 -84.5t-56 -183.5v-178q0 -102 44 -171t109.5 -100.5z M535 1004h-17q-90 8 -152.5 74.5t-62.5 159.5t67.5 160.5t164 67.5t164 -67.5t67.5 -163.5q0 -135 -117 -201q86 -12 145.5 -46t89 -69.5t45 -98t17.5 -100.5t2 -110v-610q-213 -20 -340 -20q-449 0 -448 366v170q0 197 149 270q76 37 185 37q238 0 415 -114q0 117 -71 200 q-82 95 -303 95z" />
<glyph unicode="&#xe6;" horiz-adv-x="1730" d="M1612 545v157q0 162 -95.5 233t-230.5 71t-234.5 -75t-99.5 -235v-188zM352.5 60.5q65.5 -31.5 148.5 -39t163.5 -7.5t244.5 23v625q-131 94 -331 118q-43 6 -89.5 6t-93.5 -8q-84 -16 -140 -84.5t-56 -183.5v-178q0 -102 44 -171t109.5 -100.5zM1245 8q162 0 336 98 l18 -34q-158 -96 -366.5 -96.5t-284.5 143.5v-119q-213 -20 -340 -20q-449 0 -448 366v170q0 197 149 270q76 37 185 37q238 0 415 -114q0 295 -366 295h-25l4 38q348 0 408 -227q35 111 130 170t247.5 59t248 -91t95.5 -253v-194l-699 -35v-201q0 -135 88 -198.5t205 -63.5 z" />
<glyph unicode="&#xe7;" horiz-adv-x="784" d="M166 145.5q55 -77.5 142 -103.5t189.5 -26t225.5 35l10 -39q-129 -35 -211 -35t-125 7l-73 -99q39 20 105.5 20.5t124.5 -32.5t58 -126t-75.5 -135t-168 -42t-198.5 39l20 43q74 -47 166.5 -47t154.5 38t62 111.5t-71 102.5q-33 12 -73 12t-89 -19l-84 -30l-12 20 l116 150q-37 6 -57 14q-121 41 -175 126t-54 239v262q0 145 57 243q98 170 324 170q135 0 274 -65l-14 -41q-125 66 -258 66q-76 0 -154 -28t-134 -116t-56 -217v-297q-2 -123 53 -200.5z" />
<glyph unicode="&#xe8;" horiz-adv-x="976" d="M582 1102h-39l-129 231q-25 39 8 53q8 4 16 5q20 0 31 -27zM858 545v157q0 162 -95 233t-230.5 71t-234.5 -75t-99 -235v-188zM492 8q162 0 335 98l19 -34q-158 -96 -330 -97q-356 0 -356 299v420q0 166 103.5 258t273.5 92t265 -91t95 -253v-194l-698 -35v-201 q0 -135 88 -198.5t205 -63.5z" />
<glyph unicode="&#xe9;" horiz-adv-x="976" d="M530 1102h-38l112 262q10 27 31 27q8 0 16 -5q33 -14 8 -53zM858 545v157q0 162 -95 233t-230.5 71t-234.5 -75t-99 -235v-188zM492 8q162 0 335 98l19 -34q-158 -96 -330 -97q-356 0 -356 299v420q0 166 103.5 258t273.5 92t265 -91t95 -253v-194l-698 -35v-201 q0 -135 88 -198.5t205 -63.5z" />
<glyph unicode="&#xea;" horiz-adv-x="995" d="M813 1186l-35 -33l-258 260l-268 -260l-33 33l303 289zM858 545v157q0 162 -95 233t-230.5 71t-234.5 -75t-99 -235v-188zM492 8q162 0 335 98l19 -34q-158 -96 -330 -97q-356 0 -356 299v420q0 166 103.5 258t273.5 92t265 -91t95 -253v-194l-698 -35v-201 q0 -135 88 -198.5t205 -63.5z" />
<glyph unicode="&#xeb;" horiz-adv-x="921" d="M770 545v157q0 162 -95 233t-230.5 71t-234.5 -75t-99 -235v-188zM403 8q162 0 336 98l19 -34q-158 -96 -330 -97q-356 0 -356 299v420q0 166 103.5 258t273 92t265 -91t95.5 -253v-194l-698 -35v-201q0 -135 87.5 -198.5t204.5 -63.5z" />
<glyph unicode="&#xec;" horiz-adv-x="417" d="M330 0h-39v1026h39v-1026zM338 1102h-39l-129 231q-10 16 -10 30.5t13 21t22 6.5q20 0 30 -27z" />
<glyph unicode="&#xed;" horiz-adv-x="417" d="M221 0h-39v1026h39v-1026zM199 1102h-39l112 262q10 27 31 27q35 0 35 -29q0 -12 -10 -29z" />
<glyph unicode="&#xee;" horiz-adv-x="360" d="M229 0h-39v1026h39v-1026zM506 1186l-35 -33l-258 260l-268 -260l-33 33l303 289z" />
<glyph unicode="&#xef;" horiz-adv-x="278" d="M311.5 1178q-12.5 0 -21.5 9t-9 21.5t9 21.5t21.5 9t21.5 -9t9 -21.5t-9 -21.5t-21.5 -9zM-14.5 1176q-12.5 0 -21.5 9t-9 21.5t9 21.5t21.5 9t21.5 -9t9 -21.5t-9 -21.5t-21.5 -9zM168 0h-39v1026h39v-1026z" />
<glyph unicode="&#xf1;" horiz-adv-x="995" d="M391 1305q55 0 189 -66q51 -25 116.5 -25t128.5 66l21 -35q-78 -72 -168 -71q-53 0 -104.5 23.5t-99.5 44t-91 20.5q-94 0 -172 -91l-23 33q97 101 203 101zM199 973q139 72 298.5 71.5t243.5 -43.5q174 -80 174 -292v-709h-38v711q0 123 -74 196q-96 98 -278.5 98.5 t-325.5 -75.5v-930h-39v1026h39v-53z" />
<glyph unicode="&#xf2;" d="M580 1102h-39l-129 231q-25 39 8 53q8 4 16 5q20 0 31 -27zM885 377v278q0 176 -97.5 265.5t-245 89.5t-245.5 -89.5t-98 -265.5v-278q0 -150 84 -255.5t259 -105.5t259 103.5t84 257.5zM924 647v-270q0 -172 -94.5 -284.5t-285 -112.5t-287.5 113.5t-97 283.5v270 q0 195 99 298.5t281.5 103.5t283 -108t100.5 -294z" />
<glyph unicode="&#xf3;" d="M528 1102h-39l113 262q10 27 31 27q8 0 16 -5q33 -14 8 -53zM885 377v278q0 176 -97.5 265.5t-245 89.5t-245.5 -89.5t-98 -265.5v-278q0 -150 84 -255.5t259 -105.5t259 103.5t84 257.5zM924 647v-270q0 -172 -94.5 -284.5t-285 -112.5t-287.5 113.5t-97 283.5v270 q0 195 99 298.5t281.5 103.5t283 -108t100.5 -294z" />
<glyph unicode="&#xf4;" d="M838 1186l-35 -33l-258 260l-269 -260l-32 33l303 289zM885 377v278q0 176 -97.5 265.5t-245 89.5t-245.5 -89.5t-98 -265.5v-278q0 -150 84 -255.5t259 -105.5t259 103.5t84 257.5zM924 647v-270q0 -172 -94.5 -284.5t-285 -112.5t-287.5 113.5t-97 283.5v270 q0 195 99 298.5t281.5 103.5t283 -108t100.5 -294z" />
<glyph unicode="&#xf5;" d="M410 1305q55 0 188 -66q51 -25 116.5 -25t129.5 66l20 -35q-78 -72 -168 -71q-53 0 -104 23.5t-100.5 44t-90.5 20.5q-94 0 -172 -91l-22 33q97 101 203 101zM885 377v278q0 176 -97.5 265.5t-245 89.5t-245.5 -89.5t-98 -265.5v-278q0 -150 84 -255.5t259 -105.5 t259 103.5t84 257.5zM924 647v-270q0 -172 -94.5 -284.5t-285 -112.5t-287.5 113.5t-97 283.5v270q0 195 99 298.5t281.5 103.5t283 -108t100.5 -294z" />
<glyph unicode="&#xf6;" d="M885 377v278q0 176 -97.5 265.5t-245 89.5t-245.5 -89.5t-98 -265.5v-278q0 -150 84 -255.5t259 -105.5t259 103.5t84 257.5zM924 647v-270q0 -172 -94.5 -284.5t-285 -112.5t-287.5 113.5t-97 283.5v270q0 195 99 298.5t281.5 103.5t283 -108t100.5 -294z" />
<glyph unicode="&#xf7;" horiz-adv-x="894" d="M491.5 981q-12.5 0 -21.5 9t-9 21.5t9 21.5t21.5 9t21.5 -9t9 -21.5t-9 -21.5t-21.5 -9zM491.5 528q-12.5 0 -21.5 9.5t-9 21.5t9 21.5t21.5 9.5t21.5 -9.5t9 -21.5t-9 -21.5t-21.5 -9.5zM815 774h-655v39h655v-39z" />
<glyph unicode="&#xf8;" horiz-adv-x="1019" d="M885 377v278q0 184 -115 279l-393 -885q72 -33 168 -33q172 0 256 103.5t84 257.5zM342 70l395 888q-82 51 -212 51.5t-228 -89t-98 -265.5v-278q0 -215 143 -307zM252 -233h-43l119 268q-168 100 -168 342v270q0 195 99 298.5t286 103.5q121 0 209 -54l143 322h43 l-154 -344q137 -109 138 -326v-270q0 -172 -94.5 -284.5t-284.5 -112.5q-102 0 -183 36z" />
<glyph unicode="&#xf9;" d="M594 1102h-39l-129 231q-25 39 8 53q8 4 17 5q20 0 30 -27zM924 0h-39v160q-102 -182 -340 -183q-385 0 -385 383v666h39v-666q0 -166 79.5 -254t246.5 -88t263.5 84t96.5 226v698h39v-1026z" />
<glyph unicode="&#xfa;" d="M528 1102h-39l113 262q10 27 31 27q8 0 16 -5q33 -14 8 -53zM924 0h-39v160q-102 -182 -340 -183q-385 0 -385 383v666h39v-666q0 -166 79.5 -254t246.5 -88t263.5 84t96.5 226v698h39v-1026z" />
<glyph unicode="&#xfb;" d="M831 1186l-34 -33l-258 260l-269 -260l-32 33l303 289zM924 0h-39v160q-102 -182 -340 -183q-385 0 -385 383v666h39v-666q0 -166 79.5 -254t246.5 -88t263.5 84t96.5 226v698h39v-1026z" />
<glyph unicode="&#xfc;" d="M924 0h-39v160q-102 -182 -340 -183q-385 0 -385 383v666h39v-666q0 -166 79.5 -254t246.5 -88t263.5 84t96.5 226v698h39v-1026z" />
<glyph unicode="&#xfd;" horiz-adv-x="1062" d="M522 1102h-39l113 262q10 27 31 27q8 0 16 -5q33 -14 8 -53zM713 -430l-13 37q190 49 191 264v307q-55 -111 -155.5 -157t-200.5 -46q-180 0 -277.5 97.5t-97.5 287.5v666h39v-686q0 -147 80.5 -236.5t246.5 -89.5t264.5 92.5t98.5 233.5v424q0 125 13 188.5t65 91.5 l16 -32q-55 -41 -55 -185v-952q0 -125 -49 -196.5t-166 -108.5z" />
<glyph unicode="&#xfe;" horiz-adv-x="1013" d="M301 379.5q98 -105.5 244.5 -105.5t248 96.5t101.5 274.5t-105.5 272.5t-237.5 94.5t-240.5 -92.5t-108.5 -263.5t98 -276.5zM199 0h-39v1049h39v-209q123 205 346 204q188 0 288.5 -114.5t100.5 -294.5t-112.5 -288.5t-272.5 -108.5q-63 0 -122.5 17t-125 75.5 t-102.5 150.5v-481z" />
<glyph unicode="&#xff;" horiz-adv-x="1062" d="M706.5 1178q-12.5 0 -21.5 9t-9 21.5t9 21.5t21.5 9t21.5 -9t9 -21.5t-9 -21.5t-21.5 -9zM381 1176q-12 0 -21.5 9t-9.5 21.5t9.5 21.5t21.5 9t21.5 -9t9.5 -21.5t-9.5 -21.5t-21.5 -9zM713 -430l-13 37q190 49 191 264v307q-55 -111 -155.5 -157t-200.5 -46 q-180 0 -277.5 97.5t-97.5 287.5v666h39v-686q0 -147 80.5 -236.5t246.5 -89.5t264.5 92.5t98.5 233.5v424q0 125 13 188.5t65 91.5l16 -32q-55 -41 -55 -185v-952q0 -125 -49 -196.5t-166 -108.5z" />
<glyph unicode="&#x152;" horiz-adv-x="1748" d="M981 377v667q0 176 -98.5 277.5t-293 101.5t-292.5 -103t-98 -280v-663q0 -178 114.5 -269.5t278.5 -91.5t276.5 86.5t112.5 274.5zM1665 0h-680v197q-49 -113 -156.5 -166.5t-236.5 -53.5q-176 0 -304 97.5t-128 304.5v659q0 211 115.5 319.5t318.5 108.5 q297 0 391 -233v201h684v-39h-645v-549h467l-14 -39h-453v-768h641v-39z" />
<glyph unicode="&#x153;" horiz-adv-x="1628" d="M1509 539v176q0 156 -89 225.5t-221 69.5t-223 -90.5t-91 -227.5v-180zM541 1012q-342 0 -342 -365v-291q0 -162 93 -250t235.5 -88t229.5 87.5t87 220.5v356q0 156 -88 243t-215 87zM1159 6q154 0 322 96l16 -30q-160 -96 -352 -97q-100 0 -180 52.5t-107 154.5 q-45 -94 -133 -148t-197 -54q-188 0 -278 112.5t-90 284.5v270q0 195 95 298.5t280 103.5q123 0 211 -65.5t116 -176.5q37 109 123 173t234.5 64t238.5 -91t90 -253v-196l-663 -35v-193q0 -143 84 -206.5t190 -63.5z" />
<glyph unicode="&#x178;" horiz-adv-x="1122" d="M817 -14l-12 37q18 0 35.5 10t36 19t28.5 18.5t25.5 26t25 36t19.5 43.5q16 49 16 135v389q-61 -109 -178 -153.5t-221 -44.5q-217 0 -343 107.5t-126 318.5v506h39v-496q0 -190 106.5 -293.5t323.5 -103.5q164 0 272.5 83t126.5 205v605h39v-1135q0 -260 -213 -313z" />
<glyph unicode="&#x2c6;" horiz-adv-x="870" d="M688 1290l-35 -33l-258 261l-268 -261l-33 33l303 289z" />
<glyph unicode="&#x2dc;" horiz-adv-x="897" d="M362 1438q55 0 189 -66q51 -25 116.5 -24.5t129.5 65.5l20 -35q-78 -72 -168 -71q-53 0 -104 23.5t-99.5 44t-91.5 20.5q-94 0 -172 -90l-22 32q96 101 202 101z" />
<glyph unicode="&#x2000;" horiz-adv-x="935" />
<glyph unicode="&#x2001;" horiz-adv-x="1870" />
<glyph unicode="&#x2002;" horiz-adv-x="935" />
<glyph unicode="&#x2003;" horiz-adv-x="1870" />
<glyph unicode="&#x2004;" horiz-adv-x="623" />
<glyph unicode="&#x2005;" horiz-adv-x="467" />
<glyph unicode="&#x2006;" horiz-adv-x="311" />
<glyph unicode="&#x2007;" horiz-adv-x="311" />
<glyph unicode="&#x2008;" horiz-adv-x="233" />
<glyph unicode="&#x2009;" horiz-adv-x="374" />
<glyph unicode="&#x200a;" horiz-adv-x="103" />
<glyph unicode="&#x2010;" horiz-adv-x="839" d="M748 807h-656v39h656v-39z" />
<glyph unicode="&#x2011;" horiz-adv-x="839" d="M748 807h-656v39h656v-39z" />
<glyph unicode="&#x2012;" horiz-adv-x="839" d="M748 807h-656v39h656v-39z" />
<glyph unicode="&#x2013;" horiz-adv-x="1207" d="M1116 807h-1024v39h1024v-39z" />
<glyph unicode="&#x2014;" horiz-adv-x="2231" d="M2140 807h-2048v39h2048v-39z" />
<glyph unicode="&#x2018;" horiz-adv-x="632" d="M27 1288h4q27 -6 26.5 -33.5t-31 -27.5t-30.5 30q0 98 125 201l33 -22q-51 -29 -83 -66t-38 -59z" />
<glyph unicode="&#x2019;" horiz-adv-x="632" d="M29 1147l-33 22q51 29 83 66t38 59l6 23h-4q-27 6 -27 33.5t31 27.5t31 -30q0 -99 -125 -201z" />
<glyph unicode="&#x201a;" horiz-adv-x="364" d="M94 -172l-33 22q51 29 83 66t38 59l6 23h-4q-27 6 -26.5 33.5t31 27.5t30.5 -30q0 -99 -125 -201z" />
<glyph unicode="&#x201c;" horiz-adv-x="942" d="M336 1296h4q27 -6 27 -33.5t-31 -27.5t-31 31q0 98 125 200l33 -22q-51 -29 -83 -66t-38 -59zM27 1296h4q27 -6 26.5 -33.5t-31 -27.5t-30.5 31q0 98 125 200l33 -22q-51 -29 -83 -66t-38 -59z" />
<glyph unicode="&#x201d;" horiz-adv-x="942" d="M338 1147l-33 22q51 29 83 66t38 59l6 23h-4q-27 6 -27 33.5t31 27.5t31 -30q0 -99 -125 -201zM29 1147l-33 22q51 29 83 66t38 59l6 23h-4q-27 6 -27 33.5t31 27.5t31 -30q0 -99 -125 -201z" />
<glyph unicode="&#x201e;" horiz-adv-x="673" d="M403 -168l-32 23q51 29 82.5 65.5t38.5 59.5l6 22h-4q-27 6 -27 33.5t30.5 27.5t30.5 -30q0 -99 -125 -201zM94 -168l-33 23q51 29 83 65.5t38 59.5l6 22h-4q-27 6 -26.5 33.5t31 27.5t30.5 -30q0 -99 -125 -201z" />
<glyph unicode="&#x2022;" horiz-adv-x="970" d="M524.5 324q-151.5 0 -258 107.5t-106.5 259t106.5 258t258 106.5t259 -106.5t107.5 -258t-107.5 -259t-259 -107.5z" />
<glyph unicode="&#x2026;" horiz-adv-x="999" d="M823.5 0q-12.5 0 -21.5 9t-9 21.5t9 21.5t21.5 9t21.5 -9t9 -21.5t-9 -21.5t-21.5 -9zM454.5 0q-12.5 0 -21.5 9t-9 21.5t9 21.5t21.5 9t21.5 -9t9 -21.5t-9 -21.5t-21.5 -9zM92 0q-12 0 -21.5 9t-9.5 21.5t9.5 21.5t21.5 9t21.5 -9t9.5 -21.5t-9.5 -21.5t-21.5 -9z" />
<glyph unicode="&#x202f;" horiz-adv-x="374" />
<glyph unicode="&#x2039;" horiz-adv-x="624" d="M469 164l-383 383v2l383 383l33 -29l-357 -356l355 -350z" />
<glyph unicode="&#x203a;" horiz-adv-x="616" d="M459 547l-383 -383l-31 33l354 350l-356 356l33 29l383 -383v-2z" />
<glyph unicode="&#x205f;" horiz-adv-x="467" />
<glyph unicode="&#x20ac;" horiz-adv-x="1091" d="M670 14q150 0 329 70l13 -37q-174 -68 -332 -67q-33 0 -99.5 6t-141 46t-121 127t-46.5 216v217h-112v39h112v176h-112v39h112v186q0 156 44 236t135 135q90 51 219 51q166 0 291 -68l-17 -34q-143 63 -268 63q-92 0 -162 -27.5t-108.5 -65.5t-66.5 -107.5t-28 -163.5 v-205h504v-39h-504v-176h504v-39h-504v-213q0 -133 54.5 -220t136.5 -116t168 -29z" />
<glyph unicode="&#x2122;" horiz-adv-x="1331" d="M1044 1049h-38v344l-148 -344h-43l-149 344v-344h-41v346h-144v-346h-39v346h-159v39h407l146 -342l147 342h61v-385z" />
<glyph unicode="&#x25fc;" horiz-adv-x="1024" d="M0 1024h1024v-1024h-1024v1024z" />
<glyph unicode="&#xfb01;" horiz-adv-x="788" d="M676 1325q-98 90 -211 90t-190.5 -73.5t-77.5 -202.5v-113h311l-16 -39h-295v-987h-37v1149q0 139 88 221t209 82q137 0 245 -100zM709 0h-37v1026h37v-1026z" />
<glyph unicode="&#xfb02;" horiz-adv-x="782" d="M160 1149q0 143 89 220t218 77t235 -100v-1346h-34v1327q-92 82 -204 82t-189.5 -67.5t-77.5 -184.5v-131h311l-16 -39h-295v-987h-37v1149z" />
<glyph unicode="&#xfb04;" horiz-adv-x="1253" d="M715 1362q82 82 217 82t242 -98v-1346h-35v1327q-92 82 -204 82t-189.5 -67.5t-77.5 -184.5v-131h311l-16 -39h-295v-987h-37v1149q0 109 59 184q-98 74 -210.5 74t-195.5 -65.5t-83 -198.5v-117h307l-19 -39h-288v-987h-41v1149q0 133 86 215t209 82t260 -84z" />
</font>
</defs>
</svg>
