<?xml version="1.0" encoding="UTF-8"?>
<svg width="32px" height="32px" viewBox="0 0 32 32" version="1.1" xmlns="http://www.w3.org/2000/svg" xmlns:xlink="http://www.w3.org/1999/xlink">
    <!-- Generator: Sketch 46.2 (44496) - http://www.bohemiancoding.com/sketch -->
    <title>Maps</title>
    <desc>Created with Sketch.</desc>
    <defs>
        <path d="M6.22209487,0.372578498 L25.7065522,0.372578498 L25.7065522,0.372578498 C26.4288,0.372578498 27.0949408,0.761982583 27.4492937,1.39132817 L31.7439123,9.01874968 L31.7439123,9.01874968 C32.2858418,9.98123921 31.9449106,11.2008119 30.9824211,11.7427415 C30.6828816,11.9113972 30.3449275,12 30.0011708,12 L1.92747632,12 L1.92747632,12 C0.822906816,12 -0.0725236839,11.1045695 -0.0725236839,10 C-0.0725236839,9.65624327 0.0160791534,9.31828923 0.184734855,9.01874968 L4.47935341,1.39132817 L4.47935341,1.39132817 C4.83370636,0.761982583 5.49984708,0.372578498 6.22209487,0.372578498 Z" id="path-1"></path>
        <path d="M16.7931753,20.3311312 C20.8736337,13.6837863 22.9138629,9.23117931 22.9138629,6.97331027 C22.9138629,3.47059341 19.9827527,0.624537404 16.3670449,0.624537404 C12.7513372,0.624537404 9.82022696,3.47059341 9.82022696,6.97331027 C9.82022696,9.23117727 11.8604525,13.6837782 15.9409035,20.3311132 L15.9408742,20.3311312 C16.0853472,20.5664876 16.3932598,20.6401632 16.6286163,20.4956902 C16.6956481,20.4545429 16.7520279,20.3981631 16.7931753,20.3311312 Z" id="path-3"></path>
    </defs>
    <g id="Page-1" stroke="none" stroke-width="1" fill="none" fill-rule="evenodd">
        <g id="Maps">
            <g id="Group" transform="translate(0.000000, 3.000000)">
                <g id="Oval-3" transform="translate(0.000000, 14.000000)">
                    <mask id="mask-2" fill="white">
                        <use xlink:href="#path-1"></use>
                    </mask>
                    <use id="Mask" fill="#58A93E" xlink:href="#path-1"></use>
                    <path d="M27.5,-0.5 L17.5,13.5" id="Line" stroke="#F5A623" stroke-width="3" stroke-linecap="square" mask="url(#mask-2)"></path>
                    <ellipse fill="#4A90E2" mask="url(#mask-2)" transform="translate(6.000000, 0.286964) rotate(3.000000) translate(-6.000000, -0.286964) " cx="6" cy="0.286964175" rx="7.59694695" ry="7.90019764"></ellipse>
                </g>
                <g id="Oval">
                    <use fill="#F34A38" fill-rule="evenodd" xlink:href="#path-3"></use>
                    <path stroke="#C73323" stroke-width="1" d="M17.2192964,20.5927048 C17.1370046,20.7267638 17.0242488,20.8395196 16.8901898,20.9218114 C16.4194931,21.2107475 15.803689,21.0634014 15.5147518,20.5927028 C11.3829843,13.8617033 9.32022696,9.35990791 9.32022696,6.97331027 C9.32022696,3.18975304 12.4798174,0.124537404 16.3670449,0.124537404 C20.2542724,0.124537404 23.4138629,3.18975304 23.4138629,6.97331027 C23.4138629,9.35992085 21.3510825,13.8617437 17.2192964,20.5927048 Z"></path>
                </g>
                <ellipse id="Oval-2" fill="#FFFFFF" cx="16.516129" cy="7" rx="3.09677419" ry="3"></ellipse>
            </g>
        </g>
    </g>
</svg>