<?xml version="1.0" encoding="UTF-8"?>
<svg width="32px" height="32px" viewBox="0 0 32 32" version="1.1" xmlns="http://www.w3.org/2000/svg" xmlns:xlink="http://www.w3.org/1999/xlink">
    <!-- Generator: Sketch 46.2 (44496) - http://www.bohemiancoding.com/sketch -->
    <title>Share Icons</title>
    <desc>Created with Sketch.</desc>
    <defs>
        <filter x="-45.8%" y="-29.2%" width="200.0%" height="191.7%" filterUnits="objectBoundingBox" id="filter-1">
            <feOffset dx="0" dy="2" in="SourceAlpha" result="shadowOffsetOuter1"></feOffset>
            <feGaussianBlur stdDeviation="1.5" in="shadowOffsetOuter1" result="shadowBlurOuter1"></feGaussianBlur>
            <feColorMatrix values="0 0 0 0 0   0 0 0 0 0   0 0 0 0 0  0 0 0 0.18 0" type="matrix" in="shadowBlurOuter1" result="shadowMatrixOuter1"></feColorMatrix>
            <feMerge>
                <feMergeNode in="shadowMatrixOuter1"></feMergeNode>
                <feMergeNode in="SourceGraphic"></feMergeNode>
            </feMerge>
        </filter>
        <filter x="-45.8%" y="-29.2%" width="200.0%" height="191.7%" filterUnits="objectBoundingBox" id="filter-2">
            <feOffset dx="0" dy="2" in="SourceAlpha" result="shadowOffsetOuter1"></feOffset>
            <feGaussianBlur stdDeviation="1.5" in="shadowOffsetOuter1" result="shadowBlurOuter1"></feGaussianBlur>
            <feColorMatrix values="0 0 0 0 0   0 0 0 0 0   0 0 0 0 0  0 0 0 0.178668478 0" type="matrix" in="shadowBlurOuter1" result="shadowMatrixOuter1"></feColorMatrix>
            <feMerge>
                <feMergeNode in="shadowMatrixOuter1"></feMergeNode>
                <feMergeNode in="SourceGraphic"></feMergeNode>
            </feMerge>
        </filter>
    </defs>
    <g id="Page-1" stroke="none" stroke-width="1" fill="none" fill-rule="evenodd">
        <g id="Share-Icons">
            <rect id="Rectangle-9" fill="#ECECEC" x="0" y="0" width="9" height="10" rx="1"></rect>
            <rect id="Rectangle-9" fill="#ECECEC" x="11" y="22" width="9" height="10" rx="1"></rect>
            <rect id="Rectangle-9" fill="#ECECEC" x="22" y="0" width="9" height="13" rx="1"></rect>
            <rect id="Rectangle-9-Copy-3" fill="#ECECEC" x="0" y="12" width="9" height="20" rx="1"></rect>
            <rect id="Rectangle-9-Copy-4" fill="#ECECEC" x="11" y="0" width="9" height="20" rx="1"></rect>
            <rect id="Rectangle-9-Copy-5" fill="#ECECEC" x="22" y="15" width="9" height="17" rx="1"></rect>
            <g id="Group-4" transform="translate(5.000000, 10.000000)">
                <g id="Group-3" filter="url(#filter-1)" transform="translate(10.000000, 0.000000)">
                    <g id="Group-2">
                        <g id="Group">
                            <circle id="Oval" fill="#F44336" cx="6" cy="6" r="6"></circle>
                            <g id="iconmonstr-favorite-1" transform="translate(3.000000, 3.500000)" fill-rule="nonzero" fill="#FFFFFF">
                                <path d="M3,0.858772185 C2.50275,-0.490971363 0,-0.290472321 0,1.75076792 C0,2.76776306 0.765,4.12100659 3,5.5 C5.235,4.12100659 6,2.76776306 6,1.75076792 C6,-0.278722377 3.5,-0.498971325 3,0.858772185 Z" id="Shape"></path>
                            </g>
                        </g>
                    </g>
                </g>
                <g id="Group" filter="url(#filter-2)">
                    <circle id="Oval" fill="#FFFFFF" cx="6" cy="6" r="6"></circle>
                    <path d="M6,0 C2.6865,0 0,2.6865 0,6 C0,9.3135 2.6865,12 6,12 C9.3135,12 12,9.3135 12,6 C12,2.6865 9.3135,0 6,0 Z M8.154,5.897 C8.363,5.925 8.469,6.061 8.469,6.202 C8.469,6.3635 8.3305,6.532 8.047,6.5545 C7.873,6.568 7.83,6.7105 8.039,6.7575 C8.2145,6.7975 8.3135,6.9205 8.3135,7.053 C8.3135,7.21 8.174,7.38 7.857,7.4385 C7.6655,7.4735 7.6465,7.661 7.849,7.677 C8.021,7.69 8.0885,7.75 8.0885,7.833 C8.0885,8.066 7.6755,8.4995 6.8755,8.4995 C5.625,8.5 5.172,7.75 3.5,7.75 L3.5,5.268 C4.383,5.1325 5.242,4.8595 5.672,3.367 C5.7915,2.9515 5.867,2.5 6.2655,2.5 C6.8595,2.5 6.914,3.781 6.6875,4.6955 C7.0155,4.8675 7.625,4.9295 7.932,4.9165 C8.375,4.8985 8.5,5.121 8.5,5.289 C8.5,5.5415 8.292,5.6265 8.1615,5.6665 C8.0095,5.7135 7.9395,5.8685 8.154,5.897 L8.154,5.897 Z" id="Shape" fill="#3B5998" fill-rule="nonzero"></path>
                </g>
            </g>
        </g>
    </g>
</svg>