<?xml version="1.0" encoding="utf-8"?>
<!-- Generator: Adobe Illustrator 19.2.1, SVG Export Plug-In . SVG Version: 6.00 Build 0)  -->
<svg version="1.1" xmlns="http://www.w3.org/2000/svg" xmlns:xlink="http://www.w3.org/1999/xlink" x="0px" y="0px"
	 viewBox="0 0 1417.3 1417.3" style="enable-background:new 0 0 1417.3 1417.3;" xml:space="preserve">
<style type="text/css">
	.st0{display:none;}
	.st1{display:inline;}
</style>
<g id="search-one">
	<path d="M976.2,925.2c90.6-98.1,147.1-229.4,147.1-374.1C1123.4,247.7,876.5,0,572.2,0S21.1,247.7,21.1,551.1
		s246.9,551.1,551.1,551.1c123.9,0,237.7-40.7,330-109.7l409.8,409.8c10,10,22.4,15,34.9,15s25.8-5,34.9-15
		c19.1-19.1,19.1-50.7,0-70.7L976.2,925.2z M120.8,551.1c0-248.6,202-451.4,451.4-451.4c248.6,0,451.4,202,451.4,451.4
		s-202,451.4-451.4,451.4S120.8,799.7,120.8,551.1z"/>
</g>
<g id="search-two" class="st0">
	<path class="st1" d="M976.2,925.2c90.6-98.1,147.1-229.4,147.1-374.1C1123.4,247.7,876.5,0,572.2,0S21.1,247.7,21.1,551.1
		s246.9,551.1,551.1,551.1c123.9,0,237.7-40.7,330-109.7l409.8,409.8c10,10,22.4,15,34.9,15s25.8-5,34.9-15
		c19.1-19.1,19.1-50.7,0-70.7L976.2,925.2z"/>
</g>
</svg>
