<?xml version="1.0" standalone="no"?>
<!DOCTYPE svg PUBLIC "-//W3C//DTD SVG 1.1//EN" "http://www.w3.org/Graphics/SVG/1.1/DTD/svg11.dtd" >
<svg xmlns="http://www.w3.org/2000/svg" xmlns:xlink="http://www.w3.org/1999/xlink" version="1.1">
<metadata></metadata>
<defs>
<font id="advent_proextralight" horiz-adv-x="1124" >
<font-face units-per-em="2048" ascent="1638" descent="-410" />
<missing-glyph horiz-adv-x="569" />
<glyph horiz-adv-x="0" />
<glyph unicode="&#xd;" horiz-adv-x="681" />
<glyph unicode=" "  horiz-adv-x="569" />
<glyph unicode="&#x09;" horiz-adv-x="569" />
<glyph unicode="&#xa0;" horiz-adv-x="569" />
<glyph unicode="!" horiz-adv-x="413" d="M233 246h-53l-20 1157q0 51 47 51q43 0 43 -49zM234.5 13.5q-13.5 -13.5 -31 -13.5t-29.5 13.5t-12 30.5t12 30.5t29.5 13.5t31 -13.5t13.5 -30.5t-13.5 -30.5z" />
<glyph unicode="&#x22;" horiz-adv-x="872" d="M590 1049h-49l-19 409q0 31 16.5 41t26.5 10l21 -6q23 -14 22 -45zM328 1049h-49l-21 409q0 31 16.5 41t27.5 10t27.5 -10t16.5 -41z" />
<glyph unicode="#" horiz-adv-x="1255" d="M1192 436h-395l-103 -436h-65l102 436h-340l-100 -436h-66l103 436h-258v66h272l82 344h-354v65h370l121 523h66l-123 -523h340l121 523h65l-123 -523h285v-65h-299l-82 -344h381v-66zM745 502l82 344h-338l-81 -344h337z" />
<glyph unicode="$" horiz-adv-x="1105" d="M582 -233h-64v210q-207 10 -325.5 126t-122.5 262h69q4 -115 104.5 -214.5t274.5 -109.5v700q-96 33 -155.5 57.5t-124.5 67.5q-131 84 -131.5 226.5t106 245t305.5 114.5v221h64v-219q158 -2 284 -61l-22 -66q-121 59 -262 64v-603q109 -35 171 -61.5t140 -73.5 q150 -92 149.5 -270t-113 -287.5t-347.5 -118.5v-210zM582 719v-678q172 6 280.5 88t108.5 254q0 141 -123 217q-102 64 -266 119zM518 811v578q-154 -12 -248 -88t-94 -194t87 -178.5t255 -117.5z" />
<glyph unicode="%" horiz-adv-x="1366" d="M133 2l-43 49l1133 1465l49 -48zM1005.5 -23q-122.5 0 -208.5 86.5t-86 209t86 208.5t208.5 86t208.5 -86t86 -208.5t-86 -209t-208.5 -86.5zM1239 272.5q0 92.5 -64.5 163t-169 70.5t-169 -70.5t-64.5 -163t64.5 -163t169 -70.5t169 70.5t64.5 163zM369 899 q-123 0 -209 86t-86 209t86 209t209 86t209 -86t86 -209t-86 -209t-209 -86zM602 1194q0 92 -64.5 161.5t-169 69.5t-168 -69.5t-63.5 -161.5t63.5 -162.5t168 -70.5t169 70.5t64.5 162.5z" />
<glyph unicode="&#x26;" horiz-adv-x="1112" d="M1006 33l-19 -56q-150 45 -162 236q-78 -127 -171 -181.5t-218 -54.5q-184 0 -280 129q-84 113 -84 261q0 111 37.5 192.5t77.5 127.5t104 91q88 59 221 117q-74 10 -129 76q-66 76 -66 194q0 150 132 236q88 55 173 55t158 -24l-35 -56q-57 18 -125.5 18.5t-140.5 -51.5 q-96 -70 -96 -176q0 -18 4 -39q18 -121 105 -163q55 -29 101 -29t81 8l145 33v270h66v-256l149 33l15 -63l-164 -37v-660q0 -190 121 -231zM819 428v483q-291 -63 -420 -141q-61 -39 -123 -90q-139 -113 -139 -311q0 -127 75 -227.5t236.5 -100.5t266 122t104.5 265z" />
<glyph unicode="'" horiz-adv-x="342" d="M162 1206h-49l-19 244q0 35 16.5 46t28 11t27.5 -11t16 -46z" />
<glyph unicode="(" horiz-adv-x="561" d="M397 -193l-22 -51q-117 68 -166 149t-49 240v1139q0 160 49 241t166 148l22 -49q-127 -78 -157 -194q-14 -55 -15 -127v-1172q0 -154 60 -225q31 -39 52 -56.5t60 -42.5z" />
<glyph unicode=")" horiz-adv-x="561" d="M182 -244l-22 51q39 25 60.5 42.5t51.5 56.5q61 74 62 225v1172q0 145 -58 219q-47 61 -114 102l20 49q117 -68 166 -148.5t49 -240.5v-1139q0 -160 -49 -240.5t-166 -148.5z" />
<glyph unicode="*" horiz-adv-x="720" d="M567 909l-51 -39l-158 213l-149 -213l-53 37l147 209l-246 90l23 60l244 -97v265h67l-2 -265l250 97l23 -60l-252 -90z" />
<glyph unicode="+" horiz-adv-x="788" d="M725 782h-295v-282h-63v282h-297v64h297v270h63v-270h295v-64z" />
<glyph unicode="," horiz-adv-x="350" d="M98 -172l-51 35q49 27 81 60.5t40 51.5l8 21l-10 2q-31 14 -31 38.5t13.5 37t31 12.5t31.5 -14.5t14 -32.5q0 -107 -127 -211z" />
<glyph unicode="-" horiz-adv-x="839" d="M748 780h-656v66h656v-66z" />
<glyph unicode="." horiz-adv-x="260" d="M122 13.5q-13 -13.5 -30.5 -13.5t-31 13.5t-13.5 30.5t13.5 30.5t31 13.5t30.5 -13.5t13 -30.5t-13 -30.5z" />
<glyph unicode="/" horiz-adv-x="845" d="M127 -233h-70l664 1906h67z" />
<glyph unicode="0" d="M989 1036v-657q0 -207 -126 -304.5t-302 -97.5t-304 97.5t-128 304.5v659q0 211 115.5 319.5t318.5 108.5t314.5 -114.5t111.5 -315.5zM924 379v670q0 166 -94.5 259t-270.5 93t-270 -93.5t-94 -260.5v-668q0 -168 105.5 -253t261 -85t259 81t103.5 257z" />
<glyph unicode="1" horiz-adv-x="434" d="M375 0h-66v1335q-43 -47 -101 -78.5t-97 -39.5l-37 -9l-17 62q18 2 47 9t96.5 49t108.5 106h66v-1434z" />
<glyph unicode="2" horiz-adv-x="835" d="M776 0h-719v66l570 813q80 129 80 235q0 123 -81 200t-195 77t-185.5 -59.5t-100.5 -147.5l-61 24q86 246 354 246q133 0 230 -88q106 -98 106 -235.5t-92 -284.5l-547 -783h641v-63z" />
<glyph unicode="3" horiz-adv-x="913" d="M57 170l58 37q109 -166 305 -166q164 0 267.5 112.5t103.5 266t-110 254t-249 106.5h-194l421 588h-505v66h587v-62l-381 -526h60q182 0 309 -127t127 -308.5t-127 -308.5t-309 -127q-111 0 -207.5 52.5t-155.5 142.5z" />
<glyph unicode="4" horiz-adv-x="997" d="M791 0h-66l-2 780h-666l369 654h68l-324 -588h555v588h66v-588h149l-22 -66h-127v-780z" />
<glyph unicode="5" horiz-adv-x="913" d="M57 170l56 35q45 -76 129 -120t178 -44q160 0 265.5 110.5t105.5 259t-104.5 259t-264.5 110.5h-293l70 654h542v-66h-483l-57 -522h219q182 0 309 -127t127 -308.5t-127 -308.5t-309 -127q-111 0 -207.5 52.5t-155.5 142.5z" />
<glyph unicode="6" horiz-adv-x="985" d="M57 412v532q0 170 103 318q55 76 157.5 124t239.5 48h72v-66h-80q-162 0 -287 -96q-63 -49 -102 -139.5t-39 -208.5v-303q55 117 155.5 171t215.5 54q182 0 309 -127t127 -308.5t-128 -308.5t-308.5 -127t-307.5 127.5t-127 309.5zM121 426v-14q0 -156 107.5 -263.5 t263 -107.5t263 107.5t107.5 263t-107.5 262t-261 106.5t-260 -101t-112.5 -253z" />
<glyph unicode="7" horiz-adv-x="921" d="M156 0h-72l704 1368h-731v66h807v-66z" />
<glyph unicode="8" horiz-adv-x="972" d="M481 756q-150 -2 -254 -104.5t-104 -254t105.5 -254t259 -102.5t257 102.5t103.5 254t-107.5 254t-259.5 104.5zM631 793q129 -43 205.5 -156t76.5 -238q0 -180 -121.5 -302t-304 -122t-306.5 122t-124 302q0 129 75 239t206 155q-88 37 -143.5 124t-55.5 181 q0 152 99.5 253t249 101t250 -101.5t100.5 -252.5q0 -96 -54.5 -180t-152.5 -125zM288 899q85 -80 198.5 -81t200.5 79t87 202t-82 206t-203.5 84t-203.5 -84t-82 -205t85 -201z" />
<glyph unicode="9" horiz-adv-x="985" d="M428 0h-72v66h80q162 0 285 94q66 49 103.5 138t37.5 208v301q-55 -117 -154.5 -171t-213.5 -54q-182 0 -309.5 127t-127.5 307t127 308t308.5 128t308.5 -127t127 -309v-531q0 -170 -105 -315q-53 -76 -155.5 -123t-239.5 -47zM862 1001v15q0 156 -106.5 263t-262 107 t-264 -107.5t-108.5 -263t108.5 -262t262 -106.5t260 101t110.5 253z" />
<glyph unicode=":" horiz-adv-x="202" d="M132 238.5q-13 -13.5 -30.5 -13.5t-31 13.5t-13.5 31t13.5 30.5t31 13t30.5 -13t13 -30.5t-13 -31zM132 781.5q-13 -13.5 -30.5 -13.5t-31 13.5t-13.5 30.5t13.5 30.5t31 13.5t30.5 -13.5t13 -30.5t-13 -30.5z" />
<glyph unicode=";" horiz-adv-x="292" d="M218 537.5q-13 -13.5 -30.5 -13.5t-31 13.5t-13.5 31t13.5 30.5t31 13t30.5 -13t13 -30.5t-13 -31zM109 -168l-52 35q49 27 81 60.5t40 52.5l8 20l-10 2q-31 14 -31 39t13.5 37t32 12t32 -14.5t13.5 -32.5q0 -107 -127 -211z" />
<glyph unicode="&#x3c;" horiz-adv-x="731" d="M674 209l-47 -45l-570 569v2l570 570l47 -45l-531 -527z" />
<glyph unicode="=" horiz-adv-x="770" d="M713 780h-656v66h656v-66zM713 565h-656v66h656v-66z" />
<glyph unicode="&#x3e;" horiz-adv-x="731" d="M104 164l-47 45l531 524l-531 527l47 45l570 -570v-2z" />
<glyph unicode="?" horiz-adv-x="841" d="M426 244h-61v153q0 94 31.5 171t70.5 119t95 100.5t85 99.5q68 98 68 211q0 158 -129 243q-72 47 -182.5 47.5t-195.5 -78.5t-85 -220h-66q0 154 95.5 258t269.5 104q106 0 192 -55q168 -104 168 -297q0 -127 -75 -238q-39 -55 -98.5 -115.5t-93.5 -97.5t-61.5 -109.5 t-27.5 -172.5v-123zM427 13.5q-13 -13.5 -30.5 -13.5t-31 13.5t-13.5 30.5t13.5 30.5t31 13.5t30.5 -13.5t13 -30.5t-13 -30.5z" />
<glyph unicode="@" horiz-adv-x="1464" d="M664 111q-332 0 -355 307v207q0 227 180 295q63 23 142 22q168 0 397 -106q-4 133 -98 208q-94 80 -303 80t-356.5 -103t-147.5 -321v-311q0 -217 149.5 -339t391.5 -122q270 0 440 113t170 291v411q0 121 17.5 172.5t92.5 90.5l23 -52q-68 -31 -68 -143v-461 q0 -129 -62.5 -227t-164.5 -152q-205 -106 -453.5 -106t-425 132t-176.5 390v309q0 229 136 344q115 94 230.5 121t217.5 27q281 0 391 -150q66 -88 66 -225l76 -33v-63l-76 33v-564q-278 -75 -434 -75zM1030 240v532q-213 106 -418 107q-100 0 -169.5 -63.5t-69.5 -197.5 v-196q0 -102 53 -164q76 -84 241.5 -84t362.5 66z" />
<glyph unicode="A" horiz-adv-x="1079" d="M1059 0h-72l-186 549h-520l-189 -549h-67l487 1434h55zM780 614l-241 705l-238 -705h479z" />
<glyph unicode="B" horiz-adv-x="1122" d="M631 0h-471v1434h452q168 0 264.5 -85t96.5 -249q0 -86 -41 -163t-123 -118q-2 -2 -2 -4v-2q102 -41 171 -135t69 -250q0 -164 -84 -285q-43 -66 -128 -104.5t-204 -38.5zM225 846h434q100 0 172 65q74 68 74 195t-77.5 195.5t-231.5 68.5h-371v-524zM225 63h402 q168 0 260 92.5t92 263.5t-92 266t-244 95h-418v-717z" />
<glyph unicode="C" horiz-adv-x="884" d="M874 47q-174 -68 -331 -67q-33 0 -99.5 6t-141.5 46t-121 127t-46 216v657q0 156 44 236t134 135q92 51 222 51q162 0 288 -68l-22 -49q-135 55 -252 56q-166 0 -260 -88q-37 -35 -62.5 -100.5t-25.5 -153.5v-672q0 -242 182 -313q72 -29 184.5 -29t290.5 67z" />
<glyph unicode="D" horiz-adv-x="1179" d="M586 0h-426v1436h385q231 0 353 -127t122 -338v-561q0 -410 -434 -410zM954 422v549q0 201 -113.5 300t-275.5 99h-340v-1309h336q57 0 100.5 4.5t102.5 26t97 57t65.5 106.5t27.5 167z" />
<glyph unicode="E" horiz-adv-x="952" d="M840 0h-680v1434h684v-64h-619v-524h441l-23 -66h-418v-719h615v-61z" />
<glyph unicode="F" horiz-adv-x="919" d="M227 0h-67v1434h684v-66h-617v-522h398l-27 -66h-371v-780z" />
<glyph unicode="G" horiz-adv-x="1099" d="M801 1335q-145 57 -258 58q-82 0 -147.5 -26t-103.5 -62.5t-65.5 -108.5t-27.5 -168v-645q0 -154 100 -247t271 -93t256 95t85 237v174h-194l-25 65h283v-614h-55l-11 147q-94 -168 -344 -167q-180 0 -306 102t-126 305v643q0 262 178 371q92 51 219 51q158 0 291 -68z " />
<glyph unicode="H" horiz-adv-x="1204" d="M1040 0h-65v780h-750v-780h-65v1434h65v-588h750v588h65v-1434z" />
<glyph unicode="I" horiz-adv-x="399" d="M289 0h-66v1368l-164 4v62h230v-1434z" />
<glyph unicode="J" horiz-adv-x="362" d="M18 -76l-16 51q180 18 180 265v1128l-159 4v62h225v-1186q0 -154 -55.5 -233t-174.5 -91z" />
<glyph unicode="K" horiz-adv-x="978" d="M975 0h-76l-508 784l-164 -219v-565h-65v1436h65v-762l566 762h75l-436 -594z" />
<glyph unicode="L" horiz-adv-x="901" d="M899 0h-739v1434h65v-1373h674v-61z" />
<glyph unicode="M" horiz-adv-x="1421" d="M1257 0h-63v1245l-453 -1245h-67l-451 1245v-1245h-63v1434h63l486 -1332l485 1332h63v-1434z" />
<glyph unicode="N" horiz-adv-x="1331" d="M1167 0h-63l-881 1319v-1319h-63v1434h63l881 -1317v1317h63v-1434z" />
<glyph unicode="O" d="M989 1036v-657q0 -207 -126 -304.5t-302 -97.5t-304 97.5t-128 304.5v659q0 211 115.5 319.5t318.5 108.5t314.5 -114.5t111.5 -315.5zM924 379v670q0 166 -94.5 259t-270.5 93t-270 -93.5t-94 -260.5v-668q0 -168 105.5 -253t261 -85t259 81t103.5 257z" />
<glyph unicode="P" d="M225 614h424q334 0 334 381q0 176 -79 274.5t-236 98.5h-443v-754zM225 0h-65v1434h504q195 0 290 -119t95 -320q0 -233 -103 -342q-39 -43 -115.5 -73.5t-179.5 -30.5h-426v-549z" />
<glyph unicode="Q" d="M877 -129v-64q-252 0 -318 170q-180 2 -305 100.5t-125 301.5v659q0 211 115.5 319.5t318.5 108.5t314.5 -114.5t111.5 -315.5v-657q0 -180 -98 -278.5t-260 -120.5q39 -107 246 -109zM924 381v676q0 172 -102.5 258t-260.5 86t-261 -83t-103 -261v-678q0 -168 103 -251 t243 -87q-8 49 -8 139v176h65l2 -176q0 -90 8 -137q147 10 230.5 101.5t83.5 236.5z" />
<glyph unicode="R" horiz-adv-x="1155" d="M1051 0h-70l-240 555q-31 -6 -61 -6h-453v-549h-67v1434h493q201 0 298.5 -119t97.5 -320q0 -338 -244 -424zM227 614h432q94 0 162 36t101 95q59 111 59 271t-84 256t-242 96h-428v-754z" />
<glyph unicode="S" horiz-adv-x="1148" d="M76 365h69q4 -121 113 -222.5t296 -101.5t305 82t118 260q0 98 -64.5 169t-160 106.5t-208 76.5t-207.5 78t-159.5 111.5t-64.5 177.5q0 143 118.5 247.5t341.5 104.5q170 0 299 -61l-22 -66q-123 63 -283.5 63.5t-272.5 -76.5t-112 -218q0 -100 89 -167t216 -107 t255 -86t217.5 -133t89.5 -216q0 -188 -120 -299t-356.5 -111t-364.5 118t-132 270z" />
<glyph unicode="T" horiz-adv-x="823" d="M438 0h-63l-2 1370h-373v64h823v-64h-385v-1370z" />
<glyph unicode="U" horiz-adv-x="1159" d="M948 373v1063h66v-1055q0 -109 -38 -188.5t-102.5 -122.5t-136 -63.5t-153.5 -20.5t-155 20.5t-137.5 63.5t-102 122.5t-37.5 188.5v1055h65v-1063q0 -166 109.5 -246t257 -80t256 81t108.5 245z" />
<glyph unicode="V" horiz-adv-x="1214" d="M692 0h-84l-448 1434h67l422 -1348l422 1348h68z" />
<glyph unicode="W" horiz-adv-x="1660" d="M1227 0h-88l-265 1298l-264 -1298h-88l-362 1434h71l330 -1336l273 1336h81l271 -1338l327 1338h72z" />
<glyph unicode="X" horiz-adv-x="1196" d="M1120 4l-80 -4l-438 672l-438 -672h-82l481 737l-442 697h74l407 -635l408 635h77l-444 -697z" />
<glyph unicode="Y" horiz-adv-x="1130" d="M817 -14l-16 51q35 12 51 21.5t49 37.5q63 55 64 215v355q-59 -88 -167 -126t-206 -38q-217 0 -343 107.5t-126 318.5v506h65v-506q0 -174 103.5 -267.5t300.5 -93.5q150 0 251 72t122 186v609h65v-1129q0 -274 -213 -319z" />
<glyph unicode="Z" horiz-adv-x="1126" d="M1061 0h-998v61l904 1311h-875l-2 62h959v-62l-904 -1311h916v-61z" />
<glyph unicode="[" horiz-adv-x="653" d="M489 -233h-329v1906h329v-55l-264 -8v-1778l264 -10v-55z" />
<glyph unicode="\" horiz-adv-x="966" d="M891 -233h-70l-661 1906h67z" />
<glyph unicode="]" horiz-adv-x="653" d="M489 -233h-329v55l264 10v1778l-264 8v55h329v-1906z" />
<glyph unicode="^" horiz-adv-x="829" d="M707 1503l-246 246l-256 -244l-45 47l303 289l291 -289z" />
<glyph unicode="_" horiz-adv-x="1052" d="M811 -66h-655v66h655v-66z" />
<glyph unicode="`" horiz-adv-x="454" d="M295 1204h-57l-134 215q-8 12 -8 23q0 37 27 47q10 4 20 4q27 0 41 -35z" />
<glyph unicode="a" horiz-adv-x="937" d="M406 823q227 0 393 -114q0 279 -355 278h-10l4 55q166 0 246 -38q43 -23 76 -45.5t51 -59.5t30.5 -64.5t16.5 -74.5q6 -72 6 -150v-610q-213 -20 -340 -20q-449 0 -448 366v170q0 199 147 270q77 37 183 37zM276.5 86q59.5 -31 135 -40t151.5 -9t236 20v590 q-170 104 -398 115q-6 2 -14 2q-100 0 -173 -61.5t-73 -192.5v-178q0 -90 38 -152.5t97.5 -93.5z" />
<glyph unicode="b" horiz-adv-x="991" d="M225 975q125 68 312 67q121 0 204 -38q174 -80 174 -295v-387q0 -203 -159 -285q-121 -61 -270.5 -61.5t-325.5 24.5v1434h65v-459zM453 37q397 0 397 282v383q0 102 -47 169t-120 89.5t-159 22.5q-170 0 -299 -70v-852q122 -24 228 -24z" />
<glyph unicode="c" horiz-adv-x="784" d="M498 39q104 0 221 31l14 -58q-131 -35 -237.5 -35t-208.5 33q-213 70 -213 359v262q0 145 57 243q98 170 324 170q135 0 274 -65l-20 -55q-123 59 -221.5 59t-171 -25.5t-125 -108.5t-52.5 -206v-297q1 -307 359 -307z" />
<glyph unicode="d" horiz-adv-x="958" d="M506 1042q186 0 311 -67v459h66v-1434q-176 -25 -325.5 -25t-270.5 62q-160 82 -160 285v387q0 215 174 295q84 38 205 38zM590 37q106 0 227 24v852q-129 70 -299 70q-86 0 -158.5 -22.5t-119.5 -89t-47 -169.5v-383q0 -282 397 -282z" />
<glyph unicode="e" horiz-adv-x="888" d="M406 31q154 0 323 94l29 -53q-158 -96 -330 -97q-356 0 -356 299v420q0 166 103.5 258t273 92t265 -91t95.5 -253v-219l-672 -35v-174q0 -127 81.5 -184t187.5 -57zM743 543v164q0 150 -90 214t-213 64t-213 -70.5t-90 -220.5v-184z" />
<glyph unicode="f" horiz-adv-x="610" d="M225 0h-65v1124q0 102 34.5 176t88.5 105q88 51 180 51q37 0 72 -8l-11 -57q-29 4 -55 4q-96 0 -162 -54q-82 -68 -82 -217v-98h283l-29 -63h-254v-963z" />
<glyph unicode="g" horiz-adv-x="917" d="M629 -430l-19 55q84 31 128 83t44 163v272q-109 -168 -325 -168q-180 0 -280.5 98.5t-100.5 286.5v306q0 180 107.5 279t285.5 99q217 0 315 -145l-2 127h66v-1157q0 -123 -51 -192.5t-168 -106.5zM782 338v432q-27 109 -113.5 161t-201.5 52q-111 0 -209 -61 q-51 -33 -84 -101.5t-33 -165.5v-313q0 -141 82 -223t220.5 -82t238.5 75.5t100 225.5z" />
<glyph unicode="h" horiz-adv-x="1009" d="M197 973q127 72 279.5 71.5t236.5 -40.5q174 -80 174 -295v-709h-66v709q0 119 -67 188q-86 86 -252 86t-305 -74v-909h-66v1434h66v-461z" />
<glyph unicode="i" horiz-adv-x="407" d="M236 0h-66v1026h66v-1026zM231.5 1382.5q-12.5 -12.5 -30 -12.5t-29.5 12.5t-12 30t12 29.5t29.5 12t30 -12t12.5 -29.5t-12.5 -30z" />
<glyph unicode="j" horiz-adv-x="399" d="M164 -150v1111l-133 2l-31 63h229v-1190q-2 -102 -58 -177t-171 -87l-8 55q23 0 56.5 15.5t56 37t41 66.5t18.5 104zM196.5 1370q-16.5 0 -29.5 12.5t-13 30t13 29.5t29.5 12t29 -12t12.5 -29.5t-12.5 -30t-29 -12.5z" />
<glyph unicode="k" horiz-adv-x="894" d="M889 0h-78l-440 715l-168 -152v-563h-66v1434h66v-793l459 424l47 -45l-289 -262q203 -336 469 -758z" />
<glyph unicode="l" horiz-adv-x="389" d="M225 0h-65v1434h65v-1434z" />
<glyph unicode="m" horiz-adv-x="1513" d="M510 1042q193 0 276 -108q43 25 134.5 69t185.5 44t166 -35q166 -80 166 -303v-709h-66v705q0 102 -42 169.5t-100.5 88t-97 20.5t-89 -5t-130.5 -42l-98 -49q27 -45 27 -195v-692h-64v745q0 109 -61 168q-72 68 -217.5 68t-274.5 -72v-909h-65v1026h65l-4 -55 q146 71 289 71z" />
<glyph unicode="n" horiz-adv-x="1024" d="M197 973q127 72 279.5 71.5t236.5 -40.5q174 -80 174 -295v-709h-66v709q0 117 -67 184q-86 88 -256 88t-301 -72v-909h-66v1026h66v-53z" />
<glyph unicode="o" horiz-adv-x="937" d="M862 647v-270q0 -172 -94 -284.5t-284.5 -112.5t-288 113.5t-97.5 283.5v270q0 195 99.5 298.5t282 103.5t282.5 -108t100 -294zM797 369v284q0 168 -88 251t-228.5 83t-228.5 -83t-88 -251v-284q0 -139 80 -234.5t237.5 -95.5t236.5 93.5t79 236.5z" />
<glyph unicode="p" horiz-adv-x="1007" d="M225 -430l-65 24v1432h65l-4 -119q53 70 138 102.5t167 32.5q201 0 303.5 -110.5t102.5 -288.5v-283q0 -186 -106.5 -285.5t-278.5 -99.5q-227 0 -322 158v-563zM866 340v311q0 94 -31.5 162t-84.5 102q-98 66 -208 66t-201 -51t-116 -170v-434q0 -139 88 -214t224.5 -75 t232.5 74.5t96 228.5z" />
<glyph unicode="q" horiz-adv-x="917" d="M848 -430l-66 24v539q-94 -158 -321 -158q-172 0 -278.5 99.5t-106.5 285.5v283q0 178 102.5 288.5t302.5 110.5q82 0 167 -32.5t138 -102.5l-4 119h66v-1456zM782 326v434q-25 119 -116 170t-168.5 51t-132 -16.5t-106.5 -51t-85 -102.5t-33 -160v-311 q0 -154 96.5 -228.5t232.5 -74.5t224 75t88 214z" />
<glyph unicode="r" horiz-adv-x="679" d="M190 0h-65v1026h65l-2 -96q113 113 295 112q72 0 154 -16l-19 -65q-76 18 -124 18q-152 0 -228 -52.5t-76 -113.5v-813z" />
<glyph unicode="s" horiz-adv-x="882" d="M651 934q-88 55 -204.5 55t-197.5 -54t-81 -151q0 -86 72.5 -132t166 -72.5t185.5 -59.5t155.5 -98.5t63.5 -177t-91 -193.5t-266 -82t-275.5 84t-104.5 207h63q10 -98 94 -162.5t215.5 -64.5t215 59.5t83.5 151.5t-62 146t-152.5 83t-181.5 57.5t-161 81.5 q-84 63 -84 162.5t79 188t266 88.5q63 0 120.5 -15.5t81.5 -31.5l27 -15z" />
<glyph unicode="t" horiz-adv-x="497" d="M326 29l-19 -56q-115 33 -166 105t-51 192v1164h66v-408h295l-29 -63h-266v-693q0 -102 40 -157t130 -84z" />
<glyph unicode="u" horiz-adv-x="915" d="M838 0h-66l4 141q-104 -164 -317 -164q-385 0 -385 381v668h65v-674q0 -313 320 -313q139 0 226 77t87 216v694h66v-1026z" />
<glyph unicode="v" horiz-adv-x="876" d="M467 0h-74l-356 1026h67l326 -936l328 936h67z" />
<glyph unicode="w" horiz-adv-x="1431" d="M1016 0h-72l-252 895l-250 -895h-71l-334 1026h69l300 -936l260 936h55l260 -934l301 934h70z" />
<glyph unicode="x" horiz-adv-x="946" d="M827 0h-75l-275 453l-284 -453h-76l321 512l-313 514h76l276 -457l281 457h73l-315 -514z" />
<glyph unicode="y" horiz-adv-x="972" d="M629 -430l-19 55q172 51 172 246v281q-49 -94 -142 -135.5t-189 -41.5q-180 0 -277.5 97.5t-97.5 287.5v666h63v-686q0 -141 78 -222t229.5 -81t242.5 82t91 221v416q0 201 43 248q23 25 60 40l20 -49q-59 -37 -59 -170v-950q0 -125 -49 -196.5t-166 -108.5z" />
<glyph unicode="z" horiz-adv-x="987" d="M911 0h-751v61l626 904h-608v61h690v-61l-628 -904h671v-61z" />
<glyph unicode="{" horiz-adv-x="626" d="M551 -188l-23 -50q-133 78 -175 168t-42 306v270q0 39 -32.5 89t-54 70.5t-64.5 59.5q49 39 98 102.5t49 118.5v285q0 199 43 288t174 164l23 -49q-45 -31 -61.5 -44t-51.5 -54q-61 -74 -61 -223v-379q0 -80 -129 -209q18 -16 29.5 -28.5t26.5 -29t23.5 -27.5t19.5 -27.5 t17 -30.5q16 -39 17 -64v-371q0 -131 40 -205.5t134 -129.5z" />
<glyph unicode="|" horiz-adv-x="387" d="M223 -233h-63v1906h63v-1906z" />
<glyph unicode="}" horiz-adv-x="626" d="M182 -238l-22 50q94 55 134 129.5t40 205.5v371q0 45 22.5 78t30.5 44t23.5 27.5t21.5 22.5l35 35q-129 129 -129 209v379q0 150 -64 223q-33 41 -49 54.5t-61 43.5l22 49q131 -76 174 -164.5t43 -287.5v-285q0 -55 49.5 -118.5t98.5 -102.5q-43 -39 -64.5 -59.5 t-54.5 -70.5t-33 -89v-270q0 -215 -42 -305.5t-175 -168.5z" />
<glyph unicode="~" horiz-adv-x="1046" d="M776 684q98 0 162 70l33 -52q-82 -84 -205 -84q-55 0 -123 21l-143 45q-53 16 -107 16q-121 0 -198 -88l-35 50q96 106 231 106q63 0 256 -63q66 -21 129 -21z" />
<glyph unicode="&#xa1;" horiz-adv-x="413" d="M160 51l20 1157h53l17 -1159q0 -49 -43 -49q-47 0 -47 51zM234.5 1379.5q-13.5 -13.5 -31 -13.5t-29.5 13.5t-12 30.5t12 30.5t29.5 13.5t31 -13.5t13.5 -30.5t-13.5 -30.5z" />
<glyph unicode="&#xa2;" horiz-adv-x="894" d="M573 -233h-61v215q-217 23 -299 149q-53 84 -53 238v262q0 195 97 299t255 112v234h61v-234q123 -10 242 -63l-20 -55q-109 51 -222 57v-944q106 0 232 33l14 -58q-131 -33 -246 -32v-213zM512 41v940q-127 -10 -207 -95t-80 -243v-297q-2 -276 287 -305z" />
<glyph unicode="&#xa3;" horiz-adv-x="972" d="M897 0h-737v55q102 51 167.5 157.5t66.5 202t-44 253.5h-143v65h121q-72 219 -72 322q0 178 111.5 287.5t268.5 109.5t238 -51l-22 -62q-92 51 -201 52q-150 0 -239.5 -97.5t-89.5 -242.5q0 -86 75 -318h465v-65h-442q43 -131 43 -237.5t-54.5 -209t-134.5 -155.5h623 v-66z" />
<glyph unicode="&#xa4;" horiz-adv-x="954" d="M817 319l-67 68q-94 -84 -230.5 -84t-234.5 84l-64 -70l-43 43l64 68q-82 98 -82 230.5t82 234.5l-62 63l43 43l60 -63q102 86 239 86t230 -86l61 63l43 -45l-61 -63q84 -96 84 -230.5t-86 -230.5l67 -68zM725 455q86 84 86 205.5t-86 208.5t-208 87t-208 -87t-86 -208.5 t86 -205.5t208 -84t208 84z" />
<glyph unicode="&#xa5;" horiz-adv-x="1144" d="M616 0h-63v549h-293v65h293v84l-6 11h-287v65h246l-404 660h76l404 -660h2l409 660h76l-407 -660h253v-65h-294l-5 -9v-86h299v-65h-299v-549z" />
<glyph unicode="&#xa7;" horiz-adv-x="1208" d="M160 -16h65q10 -135 123 -229.5t299.5 -94.5t302 89t115.5 251q0 172 -168 266q-74 41 -165 75t-182 66.5t-168 70.5t-128 100q-53 70 -53 161.5t61 171.5q-66 82 -65.5 210t119 232.5t341.5 104.5q170 0 299 -61l-22 -62q-121 61 -280.5 61.5t-274.5 -73.5t-117 -221 q0 -106 88 -181t216 -121t255 -94.5t217 -133.5t91 -189t-48 -197q51 -78 52 -174q0 -186 -123 -300.5t-356.5 -114.5t-361.5 117.5t-132 269.5zM264 762l2 -35q6 -96 98.5 -161.5t208 -98.5t253 -92.5t208.5 -134.5q2 8 10 30q18 45 16.5 112t-57 129t-144.5 104t-183 75 q-260 90 -365 178q-12 -12 -24.5 -36.5t-12.5 -28.5z" />
<glyph unicode="&#xa8;" horiz-adv-x="454" d="M95.5 1418.5q-13.5 -13.5 -31 -13.5t-29.5 13.5t-12 30.5t12 30.5t29.5 13.5t31 -13.5t13.5 -30.5t-13.5 -30.5zM421 1420.5q-13 -13.5 -30.5 -13.5t-31 13.5t-13.5 30.5t13.5 30.5t31 13.5t30.5 -13.5t13 -30.5t-13 -30.5z" />
<glyph unicode="&#xa9;" horiz-adv-x="1638" d="M1362 -39q-223 -221 -541.5 -221t-544 221t-225.5 547t223.5 545t546 219t543.5 -219t221 -545t-223 -547zM821 -195q180 0 339 87.5t258.5 251t99.5 366.5q0 293 -204 495.5t-493 202.5t-494.5 -197.5t-205.5 -502.5t207.5 -504t492.5 -199zM1155 358h72 q-33 -147 -143.5 -236t-254.5 -89q-203 0 -320.5 133t-117.5 334.5t117 340t317 138.5q150 0 262.5 -88t137.5 -229h-70q-20 96 -105 172.5t-223 76.5q-178 0 -272 -119.5t-94 -283.5t91 -286t277 -122q131 0 221.5 79t104.5 179z" />
<glyph unicode="&#xaa;" horiz-adv-x="786" d="M711 801q-141 -23 -205 -23t-126.5 6.5t-109.5 35t-78.5 90t-31.5 153.5q0 172 135 215q33 12 70 12q117 0 282 -108q0 115 -65.5 165t-214.5 54l4 51q201 0 270.5 -77t69.5 -238v-336zM647 1118q-156 113 -272 113q-51 0 -92 -25q-63 -41 -64 -155q0 -221 252 -222 q76 0 176 21v268z" />
<glyph unicode="&#xab;" horiz-adv-x="1046" d="M469 164l-383 383v2l383 383l45 -45l-338 -338l336 -340zM920 164l-383 383v2l383 383l43 -45l-338 -338l338 -340z" />
<glyph unicode="&#xad;" horiz-adv-x="839" d="M748 780h-656v66h656v-66z" />
<glyph unicode="&#xae;" horiz-adv-x="1638" d="M1202 80h-78l-247 389h-271v-389h-65v895h344q137 0 217 -72t80 -182.5t-65.5 -172t-168.5 -73.5zM606 532h264q246 0 246 191q0 102 -72.5 146t-169.5 44h-268v-381zM1362 -39q-223 -221 -541.5 -221t-544 221t-225.5 547t223.5 545t546 219t543.5 -219t221 -545 t-223 -547zM821 -195q289 0 493 200t204 501t-204 500.5t-495 199.5t-495.5 -197.5t-204.5 -501.5t206.5 -503t495.5 -199z" />
<glyph unicode="&#xaf;" horiz-adv-x="688" d="M612 1319h-452v67h452v-67z" />
<glyph unicode="&#xb0;" horiz-adv-x="825" d="M455 862q-123 0 -209 86t-86 209t86 209t209 86t209 -86t86 -209t-86 -209t-209 -86zM688 1157q0 92 -64.5 163t-169 71t-169 -71t-64.5 -163t64.5 -162.5t169 -70.5t169 70.5t64.5 162.5z" />
<glyph unicode="&#xb1;" horiz-adv-x="899" d="M815 485h-655v66h305v229h-297v66h297v270h65v-270h293v-66h-293v-229h285v-66z" />
<glyph unicode="&#xb4;" horiz-adv-x="454" d="M152 1204h-58l111 254q14 35 41 35q37 0 45 -33q2 -6 2 -16t-8 -23z" />
<glyph unicode="&#xb5;" horiz-adv-x="976" d="M907 37l-37 -43q-16 0 -41.5 28.5t-31.5 75.5q-88 -121 -293 -121q-164 0 -295 86l-29 21q-10 6 -39 31v-535l-65 8v1438h65v-829q49 -63 154 -111q109 -49 215 -49t192 55t86 199v739l66 14v-911q2 -78 53 -96z" />
<glyph unicode="&#xb6;" horiz-adv-x="1378" d="M1303 -408h-64v1878h-190v-1876h-64v910h-463q-137 0 -209 53q-37 29 -64.5 58.5t-43 78.5t-25.5 86t-14 99q-6 92 -6 194q0 205 94 334t287 129h762v-1944z" />
<glyph unicode="&#xb8;" horiz-adv-x="839" d="M326 -113q35 16 99 16.5t118.5 -34.5t54.5 -125t-76 -132t-168 -42t-198 39l30 65q76 -49 158 -49t136.5 32t54.5 96.5t-60 90.5q-29 10 -64.5 10.5t-82.5 -18.5l-78 -29l-21 33l125 160h58z" />
<glyph unicode="&#xbb;" horiz-adv-x="1058" d="M905 547l-383 -383l-43 45l336 340l-338 338l45 45l383 -383v-2zM455 547l-383 -383l-43 45l338 340l-338 338l43 45l383 -383v-2z" />
<glyph unicode="&#xbf;" horiz-adv-x="962" d="M821 362h66q0 -154 -95.5 -258t-269.5 -104q-106 0 -192 53q-168 106 -168 299q0 127 76 238q39 55 98 115.5t93 97.5t61.5 109.5t27.5 172.5v123h62v-153q0 -94 -32 -171t-71 -119t-95 -100.5t-85 -99.5q-68 -98 -68 -211q0 -158 129 -243q72 -47 182.5 -47.5 t195.5 78.5t85 220zM578.5 1377.5q-13.5 -13.5 -31 -13.5t-30.5 13.5t-13 30.5t13 30.5t30.5 13.5t31 -13.5t13.5 -30.5t-13.5 -30.5z" />
<glyph unicode="&#xc0;" horiz-adv-x="1079" d="M1059 0h-72l-186 549h-520l-189 -549h-67l487 1434h55zM780 614l-241 705l-238 -705h479zM565 1497h-57l-133 215q-8 12 -8 23q0 37 26 47q10 4 21 4q27 0 41 -35z" />
<glyph unicode="&#xc1;" horiz-adv-x="1079" d="M1059 0h-72l-186 549h-520l-189 -549h-67l487 1434h55zM780 614l-241 705l-238 -705h479zM553 1497h-57l110 254q14 35 41 35q37 0 45 -33q2 -6 2 -16.5t-8 -22.5z" />
<glyph unicode="&#xc2;" horiz-adv-x="1079" d="M1059 0h-72l-186 549h-520l-189 -549h-67l487 1434h55zM780 614l-241 705l-238 -705h479zM786 1532l-243 244l-252 -244l-49 49l303 289l291 -289z" />
<glyph unicode="&#xc3;" horiz-adv-x="1079" d="M1059 0h-72l-186 549h-520l-189 -549h-67l487 1434h55zM780 614l-241 705l-238 -705h479zM399 1690q53 0 187 -62q53 -25 118.5 -24.5t126.5 65.5l33 -49q-84 -84 -172 -84q-45 0 -99 21.5t-97 39.5q-57 27 -103 27q-86 0 -164 -86l-32 49q91 103 202 103z" />
<glyph unicode="&#xc4;" horiz-adv-x="1079" d="M1059 0h-72l-186 549h-520l-189 -549h-67l487 1434h55zM780 614l-241 705l-238 -705h479z" />
<glyph unicode="&#xc5;" horiz-adv-x="1079" d="M1059 0h-72l-186 549h-520l-189 -549h-67l469 1378q-76 16 -127.5 77t-51.5 146t65.5 149.5t156 64.5t156 -64.5t65.5 -148.5t-49.5 -145.5t-122.5 -78.5zM780 614l-241 705l-238 -705h479zM567 1434v-2q55 12 93 58t38 108.5t-47 110.5t-114.5 48t-115.5 -48t-48 -111.5 t39 -109.5t98 -56l2 2h55z" />
<glyph unicode="&#xc6;" horiz-adv-x="1671" d="M1591 0h-682l2 549h-393l-287 -549h-71l749 1434h686v-64h-618v-524h440l-22 -66h-418v-719h614v-61zM911 614v693l-360 -693h360z" />
<glyph unicode="&#xc7;" horiz-adv-x="884" d="M446 -113q35 16 99.5 16.5t119 -34.5t54.5 -125t-76 -132t-168 -42t-199 39l31 65q76 -49 158 -49t136 32t54 96.5t-61 90.5q-27 10 -62.5 10.5t-82.5 -18.5l-78 -29l-21 33l111 144q-147 16 -236.5 110t-89.5 281v657q0 156 44 236t134 135q92 51 222 51q162 0 288 -68 l-22 -49q-135 55 -252 56q-166 0 -260 -88q-37 -35 -62.5 -100.5t-25.5 -153.5v-672q0 -242 182 -313q72 -29 184.5 -29t290.5 67l16 -57q-176 -68 -331 -67h-27z" />
<glyph unicode="&#xc8;" horiz-adv-x="952" d="M840 0h-680v1434h684v-64h-619v-524h441l-23 -66h-418v-719h615v-61zM553 1495h-57l-134 215q-8 12 -8 23q0 37 27 47q10 4 20 4q27 0 41 -35z" />
<glyph unicode="&#xc9;" horiz-adv-x="952" d="M840 0h-680v1434h684v-64h-619v-524h441l-23 -66h-418v-719h615v-61zM543 1495h-58l111 254q14 35 41 35q37 0 47 -33v-16.5t-8 -22.5z" />
<glyph unicode="&#xca;" horiz-adv-x="952" d="M840 0h-680v1434h684v-64h-619v-524h441l-23 -66h-418v-719h615v-61zM737 1532l-243 244l-252 -244l-49 49l303 289l290 -289z" />
<glyph unicode="&#xcb;" horiz-adv-x="952" d="M840 0h-680v1434h684v-64h-619v-524h441l-23 -66h-418v-719h615v-61z" />
<glyph unicode="&#xcc;" horiz-adv-x="555" d="M393 0h-65v1368l-164 4v62h229v-1434zM383 1495h-57l-133 215q-8 12 -9 23q0 37 27 47q10 4 20 4q27 0 41 -35z" />
<glyph unicode="&#xcd;" horiz-adv-x="692" d="M389 0h-65v1368l-164 4v62h229v-1434zM385 1495h-57l110 254q14 35 41 35q37 0 45 -33q2 -6 2 -16.5t-8 -22.5z" />
<glyph unicode="&#xce;" horiz-adv-x="917" d="M516 0h-65v1368l-164 4v62h229v-1434zM705 1532l-244 244l-252 -244l-49 49l303 289l291 -289z" />
<glyph unicode="&#xcf;" horiz-adv-x="550" d="M389 0h-65v1368l-164 4v62h229v-1434z" />
<glyph unicode="&#xd0;" horiz-adv-x="1314" d="M686 0h-426v1036h-100v66h100v334h385q190 0 308 -90.5t153 -243.5h133v-66h-123q4 -45 4 -65v-561q0 -410 -434 -410zM1055 422v549q0 25 -4 65h-725v-975h336q57 0 100 4.5t102.5 26t97 57t65.5 106.5t28 167zM666 1370h-340v-268h712q-35 135 -138 201.5t-234 66.5z " />
<glyph unicode="&#xd1;" horiz-adv-x="1331" d="M1167 0h-63l-881 1319v-1319h-63v1434h63l881 -1317v1317h63v-1434zM526 1690q53 0 187 -62q53 -25 118.5 -24.5t126.5 65.5l33 -49q-84 -84 -172 -84q-45 0 -99 21.5t-97 39.5q-57 27 -103 27q-86 0 -164 -86l-32 49q91 103 202 103z" />
<glyph unicode="&#xd2;" d="M989 1036v-657q0 -207 -126 -304.5t-302 -97.5t-304 97.5t-128 304.5v659q0 211 115.5 319.5t318.5 108.5t314.5 -114.5t111.5 -315.5zM924 379v670q0 166 -94.5 259t-270.5 93t-270 -93.5t-94 -260.5v-668q0 -168 105.5 -253t261 -85t259 81t103.5 257zM598 1495h-57 l-133 215q-8 12 -9 23q0 37 27 47q10 4 20 4q27 0 41 -35z" />
<glyph unicode="&#xd3;" d="M989 1036v-657q0 -207 -126 -304.5t-302 -97.5t-304 97.5t-128 304.5v659q0 211 115.5 319.5t318.5 108.5t314.5 -114.5t111.5 -315.5zM924 379v670q0 166 -94.5 259t-270.5 93t-270 -93.5t-94 -260.5v-668q0 -168 105.5 -253t261 -85t259 81t103.5 257zM584 1495h-58 l111 254q14 35 41 35q37 0 47 -33v-16.5t-8 -22.5z" />
<glyph unicode="&#xd4;" d="M989 1036v-657q0 -207 -126 -304.5t-302 -97.5t-304 97.5t-128 304.5v659q0 211 115.5 319.5t318.5 108.5t314.5 -114.5t111.5 -315.5zM924 379v670q0 166 -94.5 259t-270.5 93t-270 -93.5t-94 -260.5v-668q0 -168 105.5 -253t261 -85t259 81t103.5 257zM803 1532 l-244 244l-252 -244l-49 49l303 289l291 -289z" />
<glyph unicode="&#xd5;" d="M989 1036v-657q0 -207 -126 -304.5t-302 -97.5t-304 97.5t-128 304.5v659q0 211 115.5 319.5t318.5 108.5t314.5 -114.5t111.5 -315.5zM924 379v670q0 166 -94.5 259t-270.5 93t-270 -93.5t-94 -260.5v-668q0 -168 105.5 -253t261 -85t259 81t103.5 257zM430 1690 q53 0 186 -62q53 -25 119 -24.5t127 65.5l33 -49q-84 -84 -172 -84q-45 0 -99.5 21.5t-95.5 39.5q-59 27 -104 27q-86 0 -164 -86l-33 49q92 103 203 103z" />
<glyph unicode="&#xd6;" d="M989 1036v-657q0 -207 -126 -304.5t-302 -97.5t-304 97.5t-128 304.5v659q0 211 115.5 319.5t318.5 108.5t314.5 -114.5t111.5 -315.5zM924 379v670q0 166 -94.5 259t-270.5 93t-270 -93.5t-94 -260.5v-668q0 -168 105.5 -253t261 -85t259 81t103.5 257z" />
<glyph unicode="&#xd7;" horiz-adv-x="784" d="M707 403l-52 -43l-221 267l-223 -269l-49 43l231 275l-233 285l47 40l229 -274l226 274l47 -43l-232 -278z" />
<glyph unicode="&#xd8;" horiz-adv-x="1095" d="M274 -233h-69l102 292q-147 109 -147 320v659q0 211 115.5 319.5t318.5 108.5q102 0 190 -32l84 239h68l-94 -270q178 -106 178 -367v-657q0 -207 -126 -304.5t-302 -97.5q-127 0 -227 48zM954 379v670q0 199 -135 290l-434 -1251q88 -47 225.5 -47t240.5 81t103 257z M330 127l432 1243q-82 31 -172 31q-176 0 -270.5 -93.5t-94.5 -260.5v-668q1 -164 105 -252z" />
<glyph unicode="&#xd9;" horiz-adv-x="1159" d="M948 373v1063h66v-1055q0 -109 -38 -188.5t-102.5 -122.5t-136 -63.5t-153.5 -20.5t-155 20.5t-137.5 63.5t-102 122.5t-37.5 188.5v1055h65v-1063q0 -166 109.5 -246t257 -80t256 81t108.5 245zM616 1495h-57l-133 215q-8 12 -8 23q0 37 26 47q10 4 21 4q27 0 41 -35z " />
<glyph unicode="&#xda;" horiz-adv-x="1159" d="M948 373v1063h66v-1055q0 -109 -38 -188.5t-102.5 -122.5t-136 -63.5t-153.5 -20.5t-155 20.5t-137.5 63.5t-102 122.5t-37.5 188.5v1055h65v-1063q0 -166 109.5 -246t257 -80t256 81t108.5 245zM594 1497h-57l110 254q14 35 41 35q37 0 45 -33q2 -6 2 -16.5t-8 -22.5z " />
<glyph unicode="&#xdb;" horiz-adv-x="1159" d="M948 373v1063h66v-1055q0 -109 -38 -188.5t-102.5 -122.5t-136 -63.5t-153.5 -20.5t-155 20.5t-137.5 63.5t-102 122.5t-37.5 188.5v1055h65v-1063q0 -166 109.5 -246t257 -80t256 81t108.5 245zM838 1532l-244 244l-252 -244l-49 49l303 289l291 -289z" />
<glyph unicode="&#xdc;" horiz-adv-x="1159" d="M948 373v1063h66v-1055q0 -109 -38 -188.5t-102.5 -122.5t-136 -63.5t-153.5 -20.5t-155 20.5t-137.5 63.5t-102 122.5t-37.5 188.5v1055h65v-1063q0 -166 109.5 -246t257 -80t256 81t108.5 245z" />
<glyph unicode="&#xdd;" horiz-adv-x="1130" d="M817 -14l-16 51q35 12 51 21.5t49 37.5q63 55 64 215v355q-59 -88 -167 -126t-206 -38q-217 0 -343 107.5t-126 318.5v506h65v-506q0 -174 103.5 -267.5t300.5 -93.5q150 0 251 72t122 186v609h65v-1129q0 -274 -213 -319zM594 1497h-57l110 254q14 35 41 35q37 0 45 -33 q2 -6 2 -16.5t-8 -22.5z" />
<glyph unicode="&#xde;" horiz-adv-x="1009" d="M225 0h-65v1434h65v-562q115 172 311.5 172t297 -113.5t100.5 -294.5t-110.5 -289.5t-274.5 -108.5q-94 0 -184.5 48t-139.5 158v-444zM327.5 902q-98.5 -83 -99.5 -245.5t90.5 -259t228.5 -96.5t229 88t92 257t-96 254t-221 85t-223.5 -83z" />
<glyph unicode="&#xdf;" horiz-adv-x="1052" d="M352 76l37 59q59 -57 160 -82q45 -10 95 -10t106 18q98 29 135 115q23 55 22 109q0 125 -123 233q-51 45 -141 115q-158 121 -192 198q-18 39 -18.5 93.5t34.5 113.5h8q102 0 129 92q8 29 8 72t-46 105.5t-134 64.5q-207 0 -207 -264v-1108h-65v1100q0 336 272 336 q76 0 133 -39q109 -74 109 -223q0 -57 -31 -106.5t-88 -70.5h-37q-20 -41 -20 -76.5t15 -65.5t37.5 -57.5t59.5 -58t70 -56.5t76 -58.5t73 -59.5q147 -127 148 -278q0 -66 -29 -137q-43 -104 -157 -146q-74 -27 -134 -27q-188 1 -305 99z" />
<glyph unicode="&#xe0;" horiz-adv-x="1024" d="M489 823q227 0 394 -114q0 279 -355 278h-10l4 55q166 0 246 -38q43 -23 76 -45.5t51 -59.5t30.5 -64.5t16.5 -74.5q6 -72 6 -150v-610q-213 -20 -340 -20q-449 0 -448 366v170q0 199 147 270q76 37 182 37zM360.5 86q59.5 -31 135 -40t151.5 -9t236 20v590 q-170 104 -396 115q-8 2 -16 2q-100 0 -173 -61.5t-73 -192.5v-178q0 -90 38 -152.5t97.5 -93.5zM598 1102h-57l-133 215q-8 12 -9 22q0 37 27 47q10 4 20 5q27 0 41 -35z" />
<glyph unicode="&#xe1;" horiz-adv-x="1024" d="M489 823q227 0 394 -114q0 279 -355 278h-10l4 55q166 0 246 -38q43 -23 76 -45.5t51 -59.5t30.5 -64.5t16.5 -74.5q6 -72 6 -150v-610q-213 -20 -340 -20q-449 0 -448 366v170q0 199 147 270q76 37 182 37zM360.5 86q59.5 -31 135 -40t151.5 -9t236 20v590 q-170 104 -396 115q-8 2 -16 2q-100 0 -173 -61.5t-73 -192.5v-178q0 -90 38 -152.5t97.5 -93.5zM586 1102h-58l111 254q14 35 41 35q37 0 45 -33q2 -6 2 -16.5t-8 -22.5z" />
<glyph unicode="&#xe2;" horiz-adv-x="1024" d="M489 823q227 0 394 -114q0 279 -355 278h-10l4 55q166 0 246 -38q43 -23 76 -45.5t51 -59.5t30.5 -64.5t16.5 -74.5q6 -72 6 -150v-610q-213 -20 -340 -20q-449 0 -448 366v170q0 199 147 270q76 37 182 37zM360.5 86q59.5 -31 135 -40t151.5 -9t236 20v590 q-170 104 -396 115q-8 2 -16 2q-100 0 -173 -61.5t-73 -192.5v-178q0 -90 38 -152.5t97.5 -93.5zM809 1137l-244 243l-252 -243l-49 49l303 289l291 -289z" />
<glyph unicode="&#xe3;" horiz-adv-x="1024" d="M489 823q227 0 394 -114q0 279 -355 278h-10l4 55q166 0 246 -38q43 -23 76 -45.5t51 -59.5t30.5 -64.5t16.5 -74.5q6 -72 6 -150v-610q-213 -20 -340 -20q-449 0 -448 366v170q0 199 147 270q76 37 182 37zM360.5 86q59.5 -31 135 -40t151.5 -9t236 20v590 q-170 104 -396 115q-8 2 -16 2q-100 0 -173 -61.5t-73 -192.5v-178q0 -90 38 -152.5t97.5 -93.5zM434 1305q53 0 187 -62q53 -25 118.5 -24.5t126.5 65.5l33 -49q-84 -84 -172 -84q-45 0 -99.5 21.5t-95.5 39.5q-59 27 -104 27q-86 0 -164 -86l-33 49q92 103 203 103z" />
<glyph unicode="&#xe4;" horiz-adv-x="1024" d="M489 823q227 0 394 -114q0 279 -355 278h-10l4 55q166 0 246 -38q43 -23 76 -45.5t51 -59.5t30.5 -64.5t16.5 -74.5q6 -72 6 -150v-610q-213 -20 -340 -20q-449 0 -448 366v170q0 199 147 270q76 37 182 37zM360.5 86q59.5 -31 135 -40t151.5 -9t236 20v590 q-170 104 -396 115q-8 2 -16 2q-100 0 -173 -61.5t-73 -192.5v-178q0 -90 38 -152.5t97.5 -93.5z" />
<glyph unicode="&#xe5;" horiz-adv-x="1024" d="M535 987h-17q-90 8 -152.5 74.5t-62.5 160t67.5 161t164 67.5t164 -67.5t67.5 -174t-98 -178.5q80 -14 136 -48t83.5 -69.5t42.5 -97.5q18 -80 18 -205v-610q-213 -20 -340 -20q-449 0 -448 366v170q0 199 147 270q76 37 182 37q227 0 394 -114q0 276 -348 278zM360.5 86 q59.5 -31 135 -40t151.5 -9t236 20v590q-170 104 -396 115q-8 2 -16 2q-100 0 -173 -61.5t-73 -192.5v-178q0 -90 38 -152.5t97.5 -93.5zM412.5 1097q50.5 -50 121 -50t121 50t50.5 121.5t-49.5 121t-121 49.5t-122 -50.5t-50.5 -121t50.5 -120.5z" />
<glyph unicode="&#xe6;" horiz-adv-x="1699" d="M1221 31q154 0 323 94l29 -53q-160 -96 -349.5 -96.5t-275.5 102.5v-78q-213 -20 -340 -20q-449 0 -448 366v170q0 199 147 270q76 37 182 37q227 0 394 -114q0 279 -355 278h-10l4 55q324 0 396 -188q88 190 346 190q170 0 265 -91t95 -253v-219l-672 -35v-174 q0 -127 81.5 -184t187.5 -57zM360.5 86q59.5 -31 135 -40t151.5 -9t236 20v590q-170 104 -396 115q-8 2 -16 2q-100 0 -173 -61.5t-73 -192.5v-178q0 -90 38 -152.5t97.5 -93.5zM1559 543v164q0 150 -90.5 214t-213 64t-213 -70.5t-90.5 -220.5v-184z" />
<glyph unicode="&#xe7;" horiz-adv-x="784" d="M498 39q104 0 221 31l14 -58q-121 -33 -199.5 -32.5t-121.5 4.5l-72 -97q35 16 99.5 16.5t118.5 -34.5t54 -125t-75.5 -132t-168 -42t-198.5 39l31 65q76 -49 157.5 -49t136 32t54.5 96.5t-62 90.5q-27 10 -62.5 10.5t-82.5 -18.5l-78 -29l-20 33l116 150q-37 6 -57 14 q-121 41 -175 126t-54 239v262q0 145 57 243q98 170 324 170q135 0 274 -65l-20 -55q-123 59 -221.5 59t-171 -25.5t-125 -108.5t-52.5 -206v-297q1 -307 359 -307z" />
<glyph unicode="&#xe8;" horiz-adv-x="972" d="M494 31q154 0 323 94l29 -53q-158 -96 -330 -97q-356 0 -356 299v420q0 166 103.5 258t273.5 92t265 -91t95 -253v-219l-672 -35v-174q0 -127 81.5 -184t187.5 -57zM831 543v164q0 150 -90 214t-212.5 64t-213 -70.5t-90.5 -220.5v-184zM582 1102h-58l-133 215 q-8 12 -8 22q0 37 27 47q10 4 20 5q27 0 41 -35z" />
<glyph unicode="&#xe9;" horiz-adv-x="972" d="M494 31q154 0 323 94l29 -53q-158 -96 -330 -97q-356 0 -356 299v420q0 166 103.5 258t273.5 92t265 -91t95 -253v-219l-672 -35v-174q0 -127 81.5 -184t187.5 -57zM831 543v164q0 150 -90 214t-212.5 64t-213 -70.5t-90.5 -220.5v-184zM549 1102h-57l110 254 q14 35 41 35q37 0 45 -33q2 -6 2 -16.5t-8 -22.5z" />
<glyph unicode="&#xea;" horiz-adv-x="991" d="M494 31q154 0 323 94l29 -53q-158 -96 -330 -97q-356 0 -356 299v420q0 166 103.5 258t273.5 92t265 -91t95 -253v-219l-672 -35v-174q0 -127 81.5 -184t187.5 -57zM831 543v164q0 150 -90 214t-212.5 64t-213 -70.5t-90.5 -220.5v-184zM764 1137l-244 243l-252 -243 l-49 49l303 289l291 -289z" />
<glyph unicode="&#xeb;" horiz-adv-x="921" d="M406 31q154 0 323 94l29 -53q-158 -96 -330 -97q-356 0 -356 299v420q0 166 103.5 258t273 92t265 -91t95.5 -253v-219l-672 -35v-174q0 -127 81.5 -184t187.5 -57zM743 543v164q0 150 -90 214t-213 64t-213 -70.5t-90 -220.5v-184z" />
<glyph unicode="&#xec;" horiz-adv-x="444" d="M360 1102h-57l-133 215q-8 12 -8 22q0 37 26 47q10 4 21 5q27 0 41 -35zM365 0h-66v1026h66v-1026z" />
<glyph unicode="&#xed;" horiz-adv-x="442" d="M223 1102h-57l110 254q14 35 41 35q37 0 48 -33v-16.5t-9 -22.5zM240 0h-66v1026h66v-1026z" />
<glyph unicode="&#xee;" horiz-adv-x="344" d="M440 1137l-243 243l-252 -243l-49 49l303 289l290 -289zM225 0h-65v1026h65v-1026z" />
<glyph unicode="&#xef;" horiz-adv-x="284" d="M182 0h-65v1026h65v-1026zM17.5 1162.5q-13.5 -13.5 -31 -13.5t-29.5 13.5t-12 30.5t12 30.5t29.5 13.5t31 -13.5t13.5 -30.5t-13.5 -30.5zM343 1164.5q-13 -13.5 -30.5 -13.5t-31 13.5t-13.5 30.5t13.5 30.5t31 13.5t30.5 -13.5t13 -30.5t-13 -30.5z" />
<glyph unicode="&#xf1;" horiz-adv-x="991" d="M225 973q127 72 279.5 71.5t236.5 -40.5q174 -80 174 -295v-709h-65v709q0 117 -68 184q-86 88 -256 88t-301 -72v-909h-65v1026h65v-53zM391 1305q53 0 187 -62q53 -25 118.5 -24.5t126.5 65.5l33 -49q-84 -84 -172 -84q-45 0 -99.5 21.5t-97.5 39.5q-57 27 -102 27 q-86 0 -164 -86l-33 49q92 103 203 103z" />
<glyph unicode="&#xf2;" horiz-adv-x="999" d="M924 647v-270q0 -172 -94.5 -284.5t-285 -112.5t-287.5 113.5t-97 283.5v270q0 195 99 298.5t281.5 103.5t283 -108t100.5 -294zM858 369v284q0 168 -88 251t-228.5 83t-228.5 -83t-88 -251v-284q0 -139 80 -234.5t237.5 -95.5t236.5 93.5t79 236.5zM580 1102h-58 l-133 215q-8 12 -8 22q0 37 27 47q10 4 20 5q27 0 41 -35z" />
<glyph unicode="&#xf3;" horiz-adv-x="999" d="M924 647v-270q0 -172 -94.5 -284.5t-285 -112.5t-287.5 113.5t-97 283.5v270q0 195 99 298.5t281.5 103.5t283 -108t100.5 -294zM858 369v284q0 168 -88 251t-228.5 83t-228.5 -83t-88 -251v-284q0 -139 80 -234.5t237.5 -95.5t236.5 93.5t79 236.5zM547 1102h-58 l111 254q14 35 41 35q37 0 47 -33v-16.5t-8 -22.5z" />
<glyph unicode="&#xf4;" horiz-adv-x="999" d="M924 647v-270q0 -172 -94.5 -284.5t-285 -112.5t-287.5 113.5t-97 283.5v270q0 195 99 298.5t281.5 103.5t283 -108t100.5 -294zM858 369v284q0 168 -88 251t-228.5 83t-228.5 -83t-88 -251v-284q0 -139 80 -234.5t237.5 -95.5t236.5 93.5t79 236.5zM793 1137l-244 243 l-252 -243l-49 49l303 289l291 -289z" />
<glyph unicode="&#xf5;" horiz-adv-x="999" d="M924 647v-270q0 -172 -94.5 -284.5t-285 -112.5t-287.5 113.5t-97 283.5v270q0 195 99 298.5t281.5 103.5t283 -108t100.5 -294zM858 369v284q0 168 -88 251t-228.5 83t-228.5 -83t-88 -251v-284q0 -139 80 -234.5t237.5 -95.5t236.5 93.5t79 236.5zM410 1305 q53 0 186 -62q53 -25 118.5 -24.5t127.5 65.5l32 -49q-84 -84 -172 -84q-45 0 -99 21.5t-95 39.5q-59 27 -105 27q-86 0 -163 -86l-33 49q92 103 203 103z" />
<glyph unicode="&#xf6;" horiz-adv-x="999" d="M924 647v-270q0 -172 -94.5 -284.5t-285 -112.5t-287.5 113.5t-97 283.5v270q0 195 99 298.5t281.5 103.5t283 -108t100.5 -294zM858 369v284q0 168 -88 251t-228.5 83t-228.5 -83t-88 -251v-284q0 -139 80 -234.5t237.5 -95.5t236.5 93.5t79 236.5z" />
<glyph unicode="&#xf7;" horiz-adv-x="890" d="M815 760h-655v65h655v-65zM523.5 517q-13.5 -13 -31 -13t-30.5 13t-13 30.5t13 31t30.5 13.5t31 -13.5t13.5 -31t-13.5 -30.5zM523.5 994.5q-13.5 -13.5 -31 -13.5t-30.5 13.5t-13 30.5t13 30.5t30.5 13.5t31 -13.5t13.5 -30.5t-13.5 -30.5z" />
<glyph unicode="&#xf8;" horiz-adv-x="1017" d="M279 -233h-70l117 270q-166 104 -166 340v270q0 195 99 298.5t286 103.5q113 0 196 -48l136 316h67l-151 -350q131 -106 131 -320v-270q0 -172 -94.5 -284.5t-284.5 -112.5q-90 0 -164 28zM350 94l367 850q-78 43 -172 43q-143 0 -231.5 -83t-88.5 -251v-284 q0 -187 125 -275zM858 369v284q0 166 -92 252l-360 -842q57 -25 139 -24q156 0 234.5 93.5t78.5 236.5z" />
<glyph unicode="&#xf9;" horiz-adv-x="999" d="M924 0h-66l4 141q-104 -164 -317 -164q-385 0 -385 381v668h65v-674q0 -313 320 -313q139 0 226 77t87 216v694h66v-1026zM594 1102h-57l-134 215q-8 12 -8 22q0 37 27 47q10 4 20 5q27 0 41 -35z" />
<glyph unicode="&#xfa;" horiz-adv-x="999" d="M924 0h-66l4 141q-104 -164 -317 -164q-385 0 -385 381v668h65v-674q0 -313 320 -313q139 0 226 77t87 216v694h66v-1026zM547 1102h-58l111 254q14 35 41 35q37 0 47 -33v-16.5t-8 -22.5z" />
<glyph unicode="&#xfb;" horiz-adv-x="999" d="M924 0h-66l4 141q-104 -164 -317 -164q-385 0 -385 381v668h65v-674q0 -313 320 -313q139 0 226 77t87 216v694h66v-1026zM788 1137l-243 243l-252 -243l-49 49l303 289l291 -289z" />
<glyph unicode="&#xfc;" horiz-adv-x="999" d="M924 0h-66l4 141q-104 -164 -317 -164q-385 0 -385 381v668h65v-674q0 -313 320 -313q139 0 226 77t87 216v694h66v-1026z" />
<glyph unicode="&#xfd;" horiz-adv-x="1062" d="M713 -430l-19 55q172 51 172 246v281q-49 -94 -142 -135.5t-189 -41.5q-180 0 -277.5 97.5t-97.5 287.5v666h63v-686q0 -141 78 -222t229.5 -81t242.5 82t91 221v416q0 201 43 248q23 25 60 40l20 -49q-59 -37 -59 -170v-950q0 -125 -49 -196.5t-166 -108.5zM541 1102 h-58l111 254q14 35 41 35q37 0 45 -33q2 -6 2 -16.5t-8 -22.5z" />
<glyph unicode="&#xfe;" horiz-adv-x="1009" d="M225 0h-65v1184h65v-312q115 172 311.5 172t297 -113.5t100.5 -294.5t-110.5 -289.5t-274.5 -108.5q-94 0 -184.5 48t-139.5 158v-444zM327.5 902q-98.5 -83 -99.5 -245.5t90.5 -259t228.5 -96.5t229 88t92 257t-96 254t-221 85t-223.5 -83z" />
<glyph unicode="&#xff;" horiz-adv-x="1062" d="M713 -430l-19 55q172 51 172 246v281q-49 -94 -142 -135.5t-189 -41.5q-180 0 -277.5 97.5t-97.5 287.5v666h63v-686q0 -141 78 -222t229.5 -81t242.5 82t91 221v416q0 201 43 248q23 25 60 40l20 -49q-59 -37 -59 -170v-950q0 -125 -49 -196.5t-166 -108.5z M406.5 1162.5q-13.5 -13.5 -31 -13.5t-29.5 13.5t-12 30.5t12 30.5t29.5 13.5t31 -13.5t13.5 -30.5t-13.5 -30.5zM732 1164.5q-13 -13.5 -30.5 -13.5t-31 13.5t-13.5 30.5t13.5 30.5t31 13.5t30.5 -13.5t13 -30.5t-13 -30.5z" />
<glyph unicode="&#x152;" horiz-adv-x="1716" d="M1636 0h-680v143q-113 -166 -364 -166q-176 0 -304 97.5t-128 304.5v659q0 211 115.5 319.5t318.5 108.5q252 0 362 -176v144h684v-64h-618v-524h440l-22 -66h-418v-719h614v-61zM954 379v670q0 166 -94 259t-270 93t-270.5 -93.5t-94.5 -260.5v-668q0 -168 105.5 -253 t261.5 -85t259 81t103 257z" />
<glyph unicode="&#x153;" horiz-adv-x="1624" d="M1159 31q147 0 311 92l27 -51q-160 -96 -352 -97q-100 0 -180 47.5t-111 139.5q-45 -84 -129 -133t-190 -49q-188 0 -281.5 112.5t-93.5 284.5v270q0 195 97 298.5t282 103.5q117 0 202.5 -57.5t120.5 -157.5q41 96 126 153t210 57q166 0 258 -91t92 -253v-221l-649 -35 v-168q0 -131 80 -188t180 -57zM831 336v334q0 156 -81.5 236.5t-204.5 80.5h-6q-313 0 -314 -340v-291q0 -147 86 -231t222.5 -84t217 83t80.5 212zM1483 539v176q0 145 -86 208.5t-207 63.5t-206 -80t-85 -215v-180z" />
<glyph unicode="&#x178;" horiz-adv-x="1130" d="M817 -14l-16 51q35 12 51 21.5t49 37.5q63 55 64 215v355q-59 -88 -167 -126t-206 -38q-217 0 -343 107.5t-126 318.5v506h65v-506q0 -174 103.5 -267.5t300.5 -93.5q150 0 251 72t122 186v609h65v-1129q0 -274 -213 -319z" />
<glyph unicode="&#x2c6;" horiz-adv-x="847" d="M639 1241l-244 244l-252 -244l-49 49l303 289l291 -289z" />
<glyph unicode="&#x2dc;" horiz-adv-x="901" d="M362 1438q53 0 187 -62q53 -25 118.5 -24.5t127.5 65.5l32 -49q-84 -84 -172 -84q-45 0 -99 21.5t-97 40.5q-57 27 -103 26q-86 0 -163 -86l-33 49q91 103 202 103z" />
<glyph unicode="&#x2000;" horiz-adv-x="935" />
<glyph unicode="&#x2001;" horiz-adv-x="1870" />
<glyph unicode="&#x2002;" horiz-adv-x="935" />
<glyph unicode="&#x2003;" horiz-adv-x="1870" />
<glyph unicode="&#x2004;" horiz-adv-x="623" />
<glyph unicode="&#x2005;" horiz-adv-x="467" />
<glyph unicode="&#x2006;" horiz-adv-x="311" />
<glyph unicode="&#x2007;" horiz-adv-x="311" />
<glyph unicode="&#x2008;" horiz-adv-x="233" />
<glyph unicode="&#x2009;" horiz-adv-x="374" />
<glyph unicode="&#x200a;" horiz-adv-x="103" />
<glyph unicode="&#x2010;" horiz-adv-x="839" d="M748 780h-656v66h656v-66z" />
<glyph unicode="&#x2011;" horiz-adv-x="839" d="M748 780h-656v66h656v-66z" />
<glyph unicode="&#x2012;" horiz-adv-x="839" d="M748 780h-656v66h656v-66z" />
<glyph unicode="&#x2013;" horiz-adv-x="1207" d="M1116 780h-1024v66h1024v-66z" />
<glyph unicode="&#x2014;" horiz-adv-x="2231" d="M2140 780h-2048v66h2048v-66z" />
<glyph unicode="&#x2018;" horiz-adv-x="653" d="M45 1290l10 -2q31 -14 31 -38.5t-13.5 -37t-30.5 -12.5t-31.5 14.5t-14.5 32.5q0 106 127 211l51 -35q-49 -27 -82 -60.5t-39 -51.5z" />
<glyph unicode="&#x2019;" horiz-adv-x="653" d="M47 1147l-51 35q49 27 82 60.5t41 51.5l6 21l-10 2q-31 14 -31 38.5t13.5 37t31.5 12.5t31.5 -14.5t13.5 -32.5q0 -107 -127 -211z" />
<glyph unicode="&#x201a;" horiz-adv-x="350" d="M98 -172l-51 35q49 27 81 60.5t40 51.5l8 21l-10 2q-31 14 -31 38.5t13.5 37t31 12.5t31.5 -14.5t14 -32.5q0 -107 -127 -211z" />
<glyph unicode="&#x201c;" horiz-adv-x="962" d="M45 1298l10 -2q31 -14 31 -38.5t-13.5 -37t-30.5 -12.5t-31.5 14.5t-14.5 32.5q0 106 127 211l51 -34q-49 -27 -82 -61t-39 -52zM354 1298l11 -2q31 -14 30.5 -38.5t-13.5 -37t-31.5 -12.5t-32 14.5t-13.5 32.5q0 106 127 211l51 -34q-49 -27 -81.5 -61t-41.5 -52z" />
<glyph unicode="&#x201d;" horiz-adv-x="962" d="M47 1147l-51 35q49 27 82 60.5t41 51.5l6 21l-10 2q-31 14 -31 38.5t13.5 37t31.5 12.5t31.5 -14.5t13.5 -32.5q0 -107 -127 -211zM356 1147l-51 35q49 27 81 60.5t40 51.5l8 21l-10 2q-31 14 -31 38.5t13.5 37t31 12.5t31.5 -14.5t14 -32.5q0 -107 -127 -211z" />
<glyph unicode="&#x201e;" horiz-adv-x="659" d="M98 -168l-51 35q49 27 81 60.5t40 52.5l8 20l-10 2q-31 14 -31 39t13.5 37t31 12t31.5 -14.5t14 -32.5q0 -107 -127 -211zM408 -168l-52 35q49 27 82 60.5t41 52.5l6 20l-10 2q-31 14 -31 39t13.5 37t32 12t32 -14.5t13.5 -32.5q0 -107 -127 -211z" />
<glyph unicode="&#x2022;" horiz-adv-x="966" d="M524.5 324q-151.5 0 -258 107.5t-106.5 259t106.5 258t258 106.5t259 -106.5t107.5 -258t-107.5 -259t-259 -107.5z" />
<glyph unicode="&#x2026;" horiz-adv-x="991" d="M122 13.5q-13 -13.5 -30.5 -13.5t-31 13.5t-13.5 30.5t13.5 30.5t31 13.5t30.5 -13.5t13 -30.5t-13 -30.5zM484.5 13.5q-13.5 -13.5 -31 -13.5t-30.5 13.5t-13 30.5t13 30.5t30.5 13.5t31 -13.5t13.5 -30.5t-13.5 -30.5zM853 13.5q-13 -13.5 -30.5 -13.5t-31 13.5 t-13.5 30.5t13.5 30.5t31 13.5t30.5 -13.5t13 -30.5t-13 -30.5z" />
<glyph unicode="&#x202f;" horiz-adv-x="374" />
<glyph unicode="&#x2039;" horiz-adv-x="598" d="M469 164l-383 383v2l383 383l47 -45l-338 -340l336 -338z" />
<glyph unicode="&#x203a;" horiz-adv-x="610" d="M457 547l-383 -383l-45 45l336 338l-338 340l47 45l383 -383v-2z" />
<glyph unicode="&#x205f;" horiz-adv-x="467" />
<glyph unicode="&#x20ac;" horiz-adv-x="1087" d="M1012 47q-174 -68 -332 -67q-33 0 -99.5 6t-141 46t-121 127t-46.5 216v190h-112v66h112v149h-112v66h112v186q0 156 44 236t135 135q92 51 221 51q162 0 289 -68l-23 -49q-135 55 -252 56q-166 0 -260 -88q-37 -35 -62.5 -100.5t-25.5 -153.5v-205h477v-66h-477v-149 h477v-66h-477v-186q0 -242 182 -313q72 -29 184.5 -29t290.5 67z" />
<glyph unicode="&#x2122;" horiz-adv-x="1284" d="M1020 1049h-57v309l-125 -309h-50l-126 309v-309h-62v327h-133v-327h-59v327h-150v58h432l121 -299l125 299h84v-385z" />
<glyph unicode="&#x25fc;" horiz-adv-x="1024" d="M0 1024h1024v-1024h-1024v1024z" />
<glyph unicode="&#xfb01;" horiz-adv-x="794" d="M721 0h-66v1026h66v-1026zM659 1309q-96 76 -197.5 75.5t-170 -69t-68.5 -180.5v-109h285l-29 -63h-256v-963h-63v1149q0 139 88 221t209 82q137 0 245 -100z" />
<glyph unicode="&#xfb02;" horiz-adv-x="792" d="M160 1149q0 141 89 219t221 78t247 -100v-1346h-64v1309q-102 70 -197.5 69.5t-164 -65t-68.5 -168.5v-119h285l-29 -63h-256v-963h-63v1149z" />
<glyph unicode="&#xfb04;" horiz-adv-x="1263" d="M715 1362q82 82 219 82t254 -98v-1346h-64v1309q-102 70 -197.5 69.5t-164 -65t-68.5 -168.5v-119h285l-29 -63h-256v-963h-63v1149q0 94 47 162q-92 68 -197.5 67.5t-179.5 -65t-74 -176.5v-111h281l-29 -63h-252v-963h-67v1149q0 133 86 215t209 82t260 -84z" />
</font>
</defs>
</svg>
