<?xml version="1.0" encoding="UTF-8"?>
<svg width="32px" height="32px" viewBox="0 0 32 32" version="1.1" xmlns="http://www.w3.org/2000/svg" xmlns:xlink="http://www.w3.org/1999/xlink">
    <!-- Generator: Sketch 46.2 (44496) - http://www.bohemiancoding.com/sketch -->
    <title>Team</title>
    <desc>Created with Sketch.</desc>
    <defs></defs>
    <g id="Page-1" stroke="none" stroke-width="1" fill="none" fill-rule="evenodd">
        <g id="Team">
            <g id="Group">
                <path d="M14,11.6623444 C13.9912336,11.6354577 13.9858156,11.6173484 13.9858156,11.6133897 C13.9722837,11.1561526 13.942695,10.0869856 12.9577872,9.74521237 C11.9115745,9.47265979 11.0605106,8.87224742 11.0514043,8.86534845 C10.9130213,8.76602062 10.7222979,8.80063093 10.624766,8.94146804 C10.5730004,9.01621414 9.99080639,9.37068247 9.3311206,9.3655459 C8.7468028,9.36099617 8.07654648,9.00536874 8.03069504,8.93921649 C7.93307801,8.79837938 7.74246809,8.76376907 7.60405674,8.86298144 C7.59497872,8.86999588 6.7484539,9.47029278 5.72031206,9.73597526 C4.71265248,10.0869856 4.6831773,11.1561526 4.66956028,11.6110227 C4.66956028,11.6318639 4.66956028,11.650367 4.66731915,11.6687546 C4.66529659,11.7792345 4.65204648,13.3636379 4.72766108,13.9787959 L2.00585866,13.9787959 C0.898053512,13.9787959 0,13.0830945 0,11.9759753 L0,2.00282063 C0,0.896693341 0.897060126,0 2.00585866,0 L11.9941413,0 C13.1019465,0 14,0.89570146 14,2.00282063 L14,11.6623444 Z M9.36059574,8.82837113 C10.0255887,8.81688247 10.5634894,8.57896907 10.9606525,8.12409897 C11.4956527,7.51032532 11.6486084,6.62815487 11.6831324,5.99880189 C11.7049873,5.60039989 11.6793828,5.30331004 11.6731915,5.23975258 C11.6164539,4.00887835 11.044539,3.4200701 10.5725957,3.14526598 C10.2207376,2.93971134 9.80995745,2.82886598 9.35151773,2.81962887 L9.31293617,2.81962887 C9.06104965,2.81962887 8.5662695,2.86122474 8.09197163,3.13602887 C7.61534752,3.41080412 7.03435461,3.99964124 6.97761702,5.23975258 C6.96175887,5.40371134 6.81648227,7.12178557 7.6902695,8.12409897 C8.08510638,8.57896907 8.62300709,8.81688247 9.288,8.82837113 L9.36059574,8.82837113 Z" id="Rectangle-5" fill="#FF5722"></path>
                <path d="M32,29.6835485 C31.9912336,29.6566617 31.9858156,29.6385524 31.9858156,29.6345938 C31.9722837,29.1773566 31.942695,28.1081896 30.9577872,27.7664164 C29.9115745,27.4938639 29.0605106,26.8934515 29.0514043,26.8865525 C28.9130213,26.7872247 28.7222979,26.821835 28.624766,26.9626721 C28.5730004,27.0374182 27.9908064,27.3918865 27.3311206,27.38675 C26.7468028,27.3822002 26.0765465,27.0265728 26.030695,26.9604206 C25.933078,26.8195834 25.7424681,26.7849731 25.6040567,26.8841855 C25.5949787,26.8911999 24.7484539,27.4914968 23.7203121,27.7571793 C22.7126525,28.1081896 22.6831773,29.1773566 22.6695603,29.6322267 C22.6695603,29.653068 22.6695603,29.6715711 22.6673191,29.6899587 C22.6652966,29.8004386 22.6520465,31.3848419 22.7276611,32 L20.0058587,32 C18.8980535,32 18,31.1042985 18,29.9971794 L18,20.0240247 C18,18.9178974 18.8970601,18.0212041 20.0058587,18.0212041 L29.9941413,18.0212041 C31.1019465,18.0212041 32,18.9169055 32,20.0240247 L32,29.6835485 Z M27.3605957,26.8495752 C28.0255887,26.8380865 28.5634894,26.6001731 28.9606525,26.145303 C29.4956527,25.5315294 29.6486084,24.6493589 29.6831324,24.020006 C29.7049873,23.621604 29.6793828,23.3245141 29.6731915,23.2609566 C29.6164539,22.0300824 29.044539,21.4412742 28.5725957,21.16647 C28.2207376,20.9609154 27.8099574,20.85007 27.3515177,20.8408329 L27.3129362,20.8408329 C27.0610496,20.8408329 26.5662695,20.8824288 26.0919716,21.1572329 C25.6153475,21.4320082 25.0343546,22.0208453 24.977617,23.2609566 C24.9617589,23.4249154 24.8164823,25.1429896 25.6902695,26.145303 C26.0851064,26.6001731 26.6230071,26.8380865 27.288,26.8495752 L27.3605957,26.8495752 Z" id="Rectangle-5" fill="#03A9F4"></path>
                <path d="M31.8228149,12.8106839 C31.9357364,12.5565889 32,12.2738775 32,11.9759753 L32,2.00282063 C32,0.89570146 31.1019465,0 29.9941413,0 L20.0058587,0 C18.8970601,0 18,0.896693341 18,2.00282063 L18,11.9759753 C18,13.0830945 18.9003112,13.9787959 20.0109013,13.9787959 C20.0109013,13.9787959 21.6110149,13.9787959 23.5728378,13.9787959 C23.5533309,13.7868555 23.5671382,13.4628614 23.6022017,13.3893418 C24.1176179,12.3191863 25.0283148,11.4824258 26.1238669,11.0662848 L26.1238669,10.4306461 C25.4650852,10.4029958 24.9081213,10.2665647 24.4619607,10.0261488 C24.0713608,9.81589685 23.9095041,9.598624 23.8818538,9.55698967 C23.8124536,9.45528749 23.7893106,9.32359471 23.8517187,9.21952333 C23.9118733,9.11785004 24.006699,9.05769551 24.1245233,9.06694116 C24.1591656,9.05769551 24.2932565,9.01152503 24.4341949,8.7780145 C24.6052973,8.49371066 24.8040499,7.90198886 24.7762841,6.6931197 C24.7486338,5.48661975 24.9751523,4.5550624 25.4489631,3.92641577 C25.8558296,3.38545838 26.336488,3.20285673 26.6092926,3.10118344 C26.9374844,2.9740846 27.2587997,2.91167644 27.5662466,2.91167644 C28.2250283,2.91167644 28.6549222,3.2006031 28.8513924,3.37170547 L28.9114313,3.37170547 C29.4268765,3.37170547 29.8545169,3.55656075 30.1827087,3.91942374 C30.4855327,4.25689009 30.693531,4.74003325 30.7976024,5.3548114 C30.8877764,5.89111707 30.8992757,6.51514088 30.8299911,7.20856487 C30.670388,8.83579983 31.4656297,9.10857549 31.4747598,9.11085801 C31.5812004,9.14099306 31.6643824,9.22414616 31.6921482,9.33047117 C31.7197985,9.43679618 31.689779,9.55011322 31.6134735,9.62864348 C31.0102235,10.2457908 29.9815868,10.3845045 29.436151,10.414524 L29.436151,11.0825513 C30.4196041,11.4533758 31.2848254,11.963887 31.8228149,12.8106839 Z" id="Rectangle-6" fill="#FFAB00"></path>
                <path d="M13.8228149,30.8318879 C13.9357364,30.5777929 14,30.2950816 14,29.9971794 L14,20.0240247 C14,18.9169055 13.1019465,18.0212041 11.9941413,18.0212041 L2.00585866,18.0212041 C0.897060126,18.0212041 0,18.9178974 0,20.0240247 L0,29.9971794 C0,31.1042985 0.900311162,32 2.01090126,32 C2.01090126,32 3.61101493,32 5.57283779,32 C5.55333088,31.8080596 5.56713816,31.4840654 5.60220167,31.4105459 C6.11761794,30.3403904 7.02831478,29.5036299 8.1238669,29.0874888 L8.1238669,28.4518502 C7.46508522,28.4241999 6.90812129,28.2877687 6.46196074,28.0473529 C6.07136078,27.8371009 5.90950407,27.6198281 5.88185379,27.5781937 C5.8124536,27.4764916 5.78931058,27.3447988 5.85171873,27.2407274 C5.91187327,27.1390541 6.006699,27.0788996 6.12452329,27.0881452 C6.1591656,27.0788996 6.29325646,27.0327291 6.43419489,26.7992186 C6.60529725,26.5149147 6.80404991,25.9231929 6.77628405,24.7143238 C6.74863377,23.5078238 6.97515228,22.5762665 7.44896311,21.9476198 C7.85582963,21.4066624 8.33648803,21.2240608 8.60929259,21.1223875 C8.93748438,20.9952887 9.25879972,20.9328805 9.56624658,20.9328805 C10.2250283,20.9328805 10.6549222,21.2218072 10.8513924,21.3929095 L10.9114313,21.3929095 C11.4268765,21.3929095 11.8545169,21.5777648 12.1827087,21.9406278 C12.4855327,22.2780942 12.693531,22.7612373 12.7976024,23.3760155 C12.8877764,23.9123211 12.8992757,24.5363449 12.8299911,25.2297689 C12.670388,26.8570039 13.4656297,27.1297796 13.4747598,27.1320621 C13.5812004,27.1621971 13.6643824,27.2453502 13.6921482,27.3516752 C13.7197985,27.4580002 13.689779,27.5713173 13.6134735,27.6498476 C13.0102235,28.2669949 11.9815868,28.4057086 11.436151,28.4357281 L11.436151,29.1037554 C12.4196041,29.4745798 13.2848254,29.9850911 13.8228149,30.8318879 Z" id="Rectangle-6" fill="#8BC34A"></path>
            </g>
        </g>
    </g>
</svg>