<?xml version="1.0" encoding="UTF-8"?>
<svg width="32px" height="32px" viewBox="0 0 32 32" version="1.1" xmlns="http://www.w3.org/2000/svg" xmlns:xlink="http://www.w3.org/1999/xlink">
    <!-- Generator: Sketch 46.2 (44496) - http://www.bohemiancoding.com/sketch -->
    <title>Dribbble</title>
    <desc>Created with Sketch.</desc>
    <defs></defs>
    <g id="Page-1" stroke="none" stroke-width="1" fill="none" fill-rule="evenodd">
        <g id="Dribbble" fill-rule="nonzero" fill="#EA4C89">
            <g id="iconmonstr-dribbble-4">
                <path d="M15.1053606,12.6667669 C12.7760149,13.3565725 10.0001704,13.7122276 6.78767608,13.7353865 C7.45249989,10.9993232 9.27953419,8.72313033 11.7172215,7.47585601 C12.9926983,9.15653334 14.1204364,10.8884912 15.1053606,12.6667669 Z M16.6894469,15.8593922 C16.4858959,15.3962134 16.2724957,14.9346888 16.0476047,14.4781268 C13.3850264,15.3217739 10.2020798,15.7502143 6.52010502,15.7551769 L6.5069727,16 C6.5069727,18.3225108 7.33430899,20.4531332 8.70663664,22.1123059 C10.7848266,18.9676527 13.4523295,16.8783855 16.6894469,15.8593922 Z M10.1725321,23.5365806 C12.7481088,25.5629879 16.1986264,26.1651203 19.4045545,24.9195002 C18.9908863,22.4580357 18.3375533,20.0561229 17.4511216,17.7203784 C14.4651599,18.6169602 12.0586618,20.5556943 10.1725321,23.5365806 Z M21.7864294,8.43364358 C20.1826446,7.18636926 18.1799655,6.43370372 16,6.43370372 C15.1956453,6.43370372 14.4175552,6.54619 13.6722959,6.73807836 C14.9264327,8.43860621 16.0377554,10.1887604 17.0128303,11.9852324 C19.0417741,11.1184264 20.6307851,9.93401203 21.7864294,8.43364358 Z M32,16 C32,24.836 24.836,32 16,32 C7.164,32 0,24.836 0,16 C0,7.164 7.164,0 16,0 C24.836,0 32,7.164 32,16 Z M27.4907818,16 C27.4907818,9.60482424 22.3445531,4.42053018 16,4.42053018 C9.65544691,4.42053018 4.50921821,9.60482424 4.50921821,16 C4.50921821,22.3951758 9.65544691,27.5794698 16,27.5794698 C22.3445531,27.5794698 27.4907818,22.3951758 27.4907818,16 Z M17.9304513,13.7684707 C18.1881732,14.3044348 18.4311211,14.8453614 18.6642198,15.3895965 C20.7325606,15.030633 22.9995277,15.0521377 25.4651211,15.4590733 C25.3452887,13.3218341 24.5360093,11.3665579 23.2424756,9.8297968 C21.9177526,11.4922778 20.1399645,12.8040663 17.9304513,13.7684707 L17.9304513,13.7684707 Z M19.4308191,17.2952464 C20.2335323,19.4606073 20.8507515,21.680557 21.2677027,23.9501331 C23.4214035,22.4944284 24.9463944,20.1719176 25.3666287,17.4838263 C23.2047202,17.1066665 21.2266642,17.0404981 19.4308191,17.2952464 L19.4308191,17.2952464 Z" id="Shape"></path>
            </g>
        </g>
    </g>
</svg>