<?xml version="1.0" encoding="UTF-8"?>
<svg width="32px" height="32px" viewBox="0 0 32 32" version="1.1" xmlns="http://www.w3.org/2000/svg" xmlns:xlink="http://www.w3.org/1999/xlink">
    <!-- Generator: Sketch 46.2 (44496) - http://www.bohemiancoding.com/sketch -->
    <title>Headings</title>
    <desc>Created with Sketch.</desc>
    <defs></defs>
    <g id="Page-1" stroke="none" stroke-width="1" fill="none" fill-rule="evenodd">
        <g id="Headings">
            <rect id="Rectangle-13" fill="#F8E71C" x="0" y="0" width="32" height="32" rx="3"></rect>
            <path d="M21.2924805,23.4394531 C20.6616179,24.0084664 19.8050184,24.2929688 18.7226562,24.2929688 C18.1350882,24.2929688 17.5676297,24.2048349 17.0202637,24.0285645 C16.4728977,23.852294 15.741541,23.5631531 14.8261719,23.1611328 C13.9108027,22.7591126 13.1717151,22.465333 12.6088867,22.2797852 C12.5222977,22.2550454 12.4403487,22.2318523 12.3630371,22.2102051 C12.2857255,22.1885578 12.2161461,22.1684571 12.1542969,22.1499023 C11.5976535,22.3354501 11.0719426,22.4282227 10.5771484,22.4282227 C9.9895804,22.4282227 9.69580078,22.3014336 9.69580078,22.0478516 C9.69580078,21.7818997 10.0390591,21.6489258 10.7255859,21.6489258 C11.1832705,21.6489258 11.6595027,21.7014969 12.1542969,21.8066406 C12.395509,21.7447914 12.6150706,21.6736658 12.8129883,21.5932617 C13.0109059,21.5128577 13.2629379,21.4030769 13.5690918,21.263916 C13.8752457,21.1247552 14.1180004,21.0211592 14.2973633,20.953125 C13.227371,20.8479812 12.293461,20.5093616 11.4956055,19.9372559 C10.6977499,19.3651501 10.0823589,18.5827686 9.64941406,17.5900879 C9.21646919,16.5974071 9,15.4362046 9,14.1064453 C9,12.7086519 9.25667061,11.4716851 9.77001953,10.3955078 C10.2833685,9.31933056 10.9977168,8.48437797 11.9130859,7.890625 C12.8284551,7.29687203 13.8705996,7 15.0395508,7 C16.2456115,7 17.3016719,7.2721327 18.2077637,7.81640625 C19.1138554,8.3606798 19.8158341,9.15079235 20.3137207,10.1867676 C20.8116073,11.2227428 21.0605469,12.455071 21.0605469,13.8837891 C21.0605469,15.2011785 20.831708,16.3762969 20.3740234,17.4091797 C19.9163389,18.4420625 19.2762085,19.2677378 18.4536133,19.8862305 C17.631018,20.5047231 16.6878308,20.8634435 15.6240234,20.9624023 L15.6240234,20.9716797 C15.3147771,21.0087892 15.0426444,21.065999 14.8076172,21.1433105 C14.57259,21.2206221 14.2556172,21.3443188 13.8566895,21.5144043 C13.4577617,21.6844898 13.1098648,21.8128251 12.8129883,21.8994141 C14.2045968,22.1777358 15.3936311,22.3988436 16.380127,22.5627441 C17.3666228,22.7266447 18.1845671,22.8085938 18.8339844,22.8085938 C19.7369837,22.8085938 20.451332,22.677166 20.9770508,22.4143066 C21.5027696,22.1514473 21.9109686,21.7324248 22.2016602,21.1572266 L22.4892578,21.2685547 C22.2047512,22.2395882 21.8058294,22.9632138 21.2924805,23.4394531 Z M11.4492188,17.5112305 C11.8203144,18.5131886 12.3259245,19.2862929 12.9660645,19.8305664 C13.6062044,20.37484 14.3159141,20.6469727 15.0952148,20.6469727 C15.9054402,20.6469727 16.6182424,20.3640165 17.2336426,19.7980957 C17.8490428,19.2321749 18.3237288,18.4436086 18.6577148,17.432373 C18.9917009,16.4211375 19.1586914,15.2630274 19.1586914,13.9580078 C19.1586914,12.6406184 18.9731464,11.480962 18.6020508,10.4790039 C18.2309552,9.47704577 17.7268912,8.70394152 17.0898438,8.15966797 C16.4527963,7.61539441 15.7446328,7.34326172 14.965332,7.34326172 C14.1551066,7.34326172 13.4407583,7.62621787 12.8222656,8.19213867 C12.2037729,8.75805947 11.7275407,9.5466258 11.3935547,10.5578613 C11.0595686,11.5690969 10.8925781,12.727207 10.8925781,14.0322266 C10.8925781,15.349616 11.0781231,16.5092723 11.4492188,17.5112305 Z" id="Q" fill="#000000"></path>
        </g>
    </g>
</svg>