<?xml version="1.0" encoding="UTF-8"?>
<svg width="32px" height="32px" viewBox="0 0 32 32" version="1.1" xmlns="http://www.w3.org/2000/svg" xmlns:xlink="http://www.w3.org/1999/xlink">
    <!-- Generator: Sketch 46.2 (44496) - http://www.bohemiancoding.com/sketch -->
    <title>Contact</title>
    <desc>Created with Sketch.</desc>
    <defs>
        <path d="M0.525068423,13.2059016 C1.43267756,12.7160847 2.05789271,12.3787622 2.40071387,12.1939342 C11.2963071,7.39797806 15.8294025,5 16,5 C16.1822009,5 21.3405238,7.73527496 31.4749686,13.2058249 L31.4749888,13.2057875 C31.7984049,13.3803668 32,13.718278 32,14.0858047 L32,31 L32,31 C32,31.5522847 31.5522847,32 31,32 L1,32 L1,32 C0.44771525,32 5.3967061e-15,31.5522847 5.32907052e-15,31 L5.32907052e-15,14.0859289 L-3.97593089e-06,14.0859289 C-3.9759309e-06,13.7183831 0.201619433,13.38046 0.525068423,13.2059016 Z" id="path-1"></path>
        <rect id="path-2" x="5" y="0" width="22" height="28" rx="1"></rect>
        <path d="M1.40451419,13.6212424 L16,20.0770941 L30.5954858,13.6212424 L30.5954858,13.6212424 C31.1005677,13.3978354 31.6911247,13.626178 31.9145317,14.13126 C31.9708885,14.2586722 32,14.3964546 32,14.5357742 L32,31 L32,31 C32,31.5522847 31.5522847,32 31,32 L1,32 L1,32 C0.44771525,32 6.76353751e-17,31.5522847 0,31 L0,14.5357742 L6.66133815e-16,14.5357742 C5.9849844e-16,13.9834894 0.44771525,13.5357742 1,13.5357742 C1.13931959,13.5357742 1.277102,13.5648857 1.40451419,13.6212424 Z" id="path-3"></path>
    </defs>
    <g id="Page-1" stroke="none" stroke-width="1" fill="none" fill-rule="evenodd">
        <g id="Contact">
            <g id="V">
                <use fill="#FFFFFF" fill-rule="evenodd" xlink:href="#path-1"></use>
                <path stroke="#979797" stroke-width="1" d="M0.762533267,13.6459135 C0.600808516,13.7331929 0.499998012,13.9021533 0.5,14.0859289 L0.5,31 C0.5,31.2761424 0.723857625,31.5 1,31.5 L31,31.5 C31.2761424,31.5 31.5,31.2761424 31.5,31 L31.5,14.0858047 C31.5,13.9020382 31.3992066,13.7330994 31.237463,13.6458148 C22.2578305,8.79862987 16.0371038,5.5 16,5.5 C15.9741929,5.5 10.4530437,8.42065214 2.6379947,12.6340453 C2.29525305,12.8188305 1.67008351,13.1561284 0.762533267,13.6459135 Z"></path>
            </g>
            <g id="Rectangle">
                <use fill="#ECECEC" fill-rule="evenodd" xlink:href="#path-2"></use>
                <rect stroke="#979797" stroke-width="1.2" x="5.6" y="0.6" width="20.8" height="26.8" rx="1"></rect>
            </g>
            <path d="M22.5,10.5 L9.5,10.5" id="Line-3" stroke="#4A4A4A" stroke-linecap="square"></path>
            <path d="M22.5,4.5 L17.4009805,4.5" id="Line" stroke="#4A4A4A" stroke-linecap="square"></path>
            <path d="M22.5,7.5 L9.5,7.5" id="Line-2" stroke="#4A4A4A" stroke-linecap="square"></path>
            <g id="V">
                <use fill="#FFFFFF" fill-rule="evenodd" xlink:href="#path-3"></use>
                <path stroke="#979797" stroke-width="1" d="M1.20225709,14.0785083 C1.138551,14.0503299 1.0696598,14.0357742 1,14.0357742 C0.723857625,14.0357742 0.5,14.2596318 0.5,14.5357742 L0.5,31 C0.5,31.2761424 0.723857625,31.5 1,31.5 L31,31.5 C31.2761424,31.5 31.5,31.2761424 31.5,31 L31.5,14.5357742 C31.5,14.4661144 31.4854442,14.3972232 31.4572659,14.3335171 C31.3455624,14.0809761 31.0502839,13.9668048 30.7977429,14.0785083 L16,20.623822 L1.20225709,14.0785083 Z"></path>
            </g>
        </g>
    </g>
</svg>