<?xml version="1.0" encoding="UTF-8"?>
<svg width="32px" height="32px" viewBox="0 0 32 32" version="1.1" xmlns="http://www.w3.org/2000/svg" xmlns:xlink="http://www.w3.org/1999/xlink">
    <!-- Generator: Sketch 46.2 (44496) - http://www.bohemiancoding.com/sketch -->
    <title>Button</title>
    <desc>Created with Sketch.</desc>
    <defs>
        <rect id="path-1" x="0" y="9" width="32" height="15" rx="1"></rect>
    </defs>
    <g id="Page-1" stroke="none" stroke-width="1" fill="none" fill-rule="evenodd">
        <g id="Button">
            <g id="Rectangle">
                <use fill="#4CAF50" fill-rule="evenodd" xlink:href="#path-1"></use>
                <rect stroke="#3F9542" stroke-width="1.2" x="0.6" y="9.6" width="30.8" height="13.8" rx="1"></rect>
            </g>
            <path d="M5.38769531,15.4316406 L5.38769531,16.3837891 L6.44824219,16.3837891 C6.63769626,16.3837891 6.79150332,16.3481449 6.90966797,16.2768555 C7.02783262,16.205566 7.08691406,16.0791025 7.08691406,15.8974609 C7.08691406,15.6962881 7.00878984,15.5634769 6.85253906,15.4990234 C6.71777276,15.4541013 6.54589948,15.4316406 6.33691406,15.4316406 L5.38769531,15.4316406 Z M5.38769531,17.0986328 L5.38769531,18.25 L6.44824219,18.25 C6.63769626,18.25 6.78515572,18.2246096 6.890625,18.1738281 C7.08203221,18.0800777 7.17773438,17.900392 7.17773438,17.6347656 C7.17773438,17.4101551 7.08496187,17.2558598 6.89941406,17.171875 C6.79589792,17.1249998 6.65039156,17.1005859 6.46289062,17.0986328 L5.38769531,17.0986328 Z M7.74902344,15.1416016 C7.8818366,15.3251962 7.94824219,15.5449206 7.94824219,15.8007812 C7.94824219,16.0644544 7.8818366,16.2763664 7.74902344,16.4365234 C7.67480432,16.5263676 7.56543041,16.6083981 7.42089844,16.6826172 C7.64160267,16.7626957 7.80810491,16.8896476 7.92041016,17.0634766 C8.03271541,17.2373056 8.08886719,17.4482409 8.08886719,17.6962891 C8.08886719,17.9521497 8.02441471,18.1816396 7.89550781,18.3847656 C7.81347615,18.5195319 7.71093812,18.632812 7.58789062,18.7246094 C7.44921806,18.8300787 7.28564547,18.9023436 7.09716797,18.9414062 C6.90869046,18.9804689 6.70410267,19 6.48339844,19 L4.52636719,19 L4.52636719,14.6816406 L6.62402344,14.6816406 C7.15332296,14.6894532 7.52831921,14.8427719 7.74902344,15.1416016 Z M8.84472656,14.6816406 L9.76171875,14.6816406 L9.76171875,17.3359375 C9.76171875,17.632814 9.79687465,17.8496087 9.8671875,17.9863281 C9.97656305,18.2285168 10.2148419,18.3496094 10.5820312,18.3496094 C10.9472675,18.3496094 11.1845698,18.2285168 11.2939453,17.9863281 C11.3642582,17.8496087 11.3994141,17.632814 11.3994141,17.3359375 L11.3994141,14.6816406 L12.3164062,14.6816406 L12.3164062,17.3359375 C12.3164062,17.7949242 12.2451179,18.1523425 12.1025391,18.4082031 C11.8369127,18.8769555 11.3300819,19.1113281 10.5820312,19.1113281 C9.83398063,19.1113281 9.32617321,18.8769555 9.05859375,18.4082031 C8.91601491,18.1523425 8.84472656,17.7949242 8.84472656,17.3359375 L8.84472656,14.6816406 Z M16.3154297,14.6816406 L16.3154297,15.4462891 L15.0234375,15.4462891 L15.0234375,19 L14.1152344,19 L14.1152344,15.4462891 L12.8173828,15.4462891 L12.8173828,14.6816406 L16.3154297,14.6816406 Z M19.9804688,14.6816406 L19.9804688,15.4462891 L18.6884766,15.4462891 L18.6884766,19 L17.7802734,19 L17.7802734,15.4462891 L16.4824219,15.4462891 L16.4824219,14.6816406 L19.9804688,14.6816406 Z M23.1635742,17.9599609 C23.3735362,17.6962877 23.4785156,17.3212915 23.4785156,16.8349609 C23.4785156,16.3505835 23.3735362,15.9760755 23.1635742,15.7114258 C22.9536122,15.446776 22.6699237,15.3144531 22.3125,15.3144531 C21.9550763,15.3144531 21.6699229,15.4462877 21.4570312,15.7099609 C21.2441396,15.9736341 21.1376953,16.3486304 21.1376953,16.8349609 C21.1376953,17.3212915 21.2441396,17.6962877 21.4570312,17.9599609 C21.6699229,18.2236341 21.9550763,18.3554688 22.3125,18.3554688 C22.6699237,18.3554688 22.9536122,18.2236341 23.1635742,17.9599609 Z M23.7275391,18.6162109 C23.4013656,18.9521501 22.9296906,19.1201172 22.3125,19.1201172 C21.6953094,19.1201172 21.2236344,18.9521501 20.8974609,18.6162109 C20.4599587,18.2040995 20.2412109,17.6103554 20.2412109,16.8349609 C20.2412109,16.0439414 20.4599587,15.4501973 20.8974609,15.0537109 C21.2236344,14.7177718 21.6953094,14.5498047 22.3125,14.5498047 C22.9296906,14.5498047 23.4013656,14.7177718 23.7275391,15.0537109 C24.1630881,15.4501973 24.3808594,16.0439414 24.3808594,16.8349609 C24.3808594,17.6103554 24.1630881,18.2040995 23.7275391,18.6162109 Z M25.0546875,14.6816406 L26.0009766,14.6816406 L27.7207031,17.6962891 L27.7207031,14.6816406 L28.5615234,14.6816406 L28.5615234,19 L27.6591797,19 L25.8955078,15.9326172 L25.8955078,19 L25.0546875,19 L25.0546875,14.6816406 Z" id="BUTTON" fill="#FFFFFF" opacity="0.650000036"></path>
            <path d="M23.4967782,21.1422406 L24.3156895,27.5008821 L24.3156895,27.5008821 C24.3509617,27.7747625 24.6015795,27.9681926 24.8754599,27.9329203 C24.9694843,27.9208112 25.0581287,27.8822212 25.1310562,27.8216506 L26.3587171,26.8020038 L28.0658134,29.6860638 L28.0658134,29.6860638 C28.2064709,29.9236981 28.513137,30.0023134 28.7507713,29.8616559 C28.761795,29.8551309 28.7725638,29.8481847 28.783054,29.8408326 L29.5257643,29.3203017 L29.5257643,29.3203017 C29.7518983,29.1618149 29.8067372,28.8500183 29.6482505,28.6238843 C29.6446369,28.6187283 29.6409263,28.613641 29.6371205,28.6086252 L27.6390003,25.975171 L29.239878,25.1253994 L29.239878,25.1253994 C29.4837875,24.9959283 29.5765582,24.6932436 29.4470871,24.449334 C29.4110393,24.3814239 29.3598161,24.3227417 29.2973993,24.277849 L24.2846319,20.6724613 L24.2846319,20.6724613 C24.0604522,20.5112221 23.7480085,20.5622454 23.5867693,20.7864251 C23.5127526,20.8893346 23.4805865,21.0165161 23.4967782,21.1422406 Z" id="Path-2" stroke="#000000" stroke-width="0.5" fill="#FFFFFF"></path>
        </g>
    </g>
</svg>